<?xml version="1.0" encoding="utf-8" standalone="no"?>
<!DOCTYPE svg PUBLIC "-//W3C//DTD SVG 1.1//EN"
  "http://www.w3.org/Graphics/SVG/1.1/DTD/svg11.dtd">
<svg xmlns:xlink="http://www.w3.org/1999/xlink" width="1080pt" height="288pt" viewBox="0 0 1080 288" xmlns="http://www.w3.org/2000/svg" version="1.1">
 <metadata>
  <rdf:RDF xmlns:dc="http://purl.org/dc/elements/1.1/" xmlns:cc="http://creativecommons.org/ns#" xmlns:rdf="http://www.w3.org/1999/02/22-rdf-syntax-ns#">
   <cc:Work>
    <dc:type rdf:resource="http://purl.org/dc/dcmitype/StillImage"/>
    <dc:date>2023-02-17T14:04:11.284246</dc:date>
    <dc:format>image/svg+xml</dc:format>
    <dc:creator>
     <cc:Agent>
      <dc:title>Matplotlib v3.6.3, https://matplotlib.org/</dc:title>
     </cc:Agent>
    </dc:creator>
   </cc:Work>
  </rdf:RDF>
 </metadata>
 <defs>
  <style type="text/css">*{stroke-linejoin: round; stroke-linecap: butt}</style>
 </defs>
 <g id="figure_1">
  <g id="patch_1">
   <path d="M 0 288 
L 1080 288 
L 1080 0 
L 0 0 
z
"/>
  </g>
  <g id="axes_1">
   <g id="patch_2">
    <path d="M 34.63 255.8 
L 1064.88 255.8 
L 1064.88 43.92 
L 34.63 43.92 
z
"/>
   </g>
   <g id="matplotlib.axis_1">
    <g id="xtick_1">
     <g id="text_1">
      <!-- PTRATIO -->
      <g style="fill: #ffffff" transform="translate(114.226719 270.673594) scale(0.11 -0.11)">
       <defs>
        <path id="ArialMT-50" d="M 494 0 
L 494 4581 
L 2222 4581 
Q 2678 4581 2919 4538 
Q 3256 4481 3484 4323 
Q 3713 4166 3852 3881 
Q 3991 3597 3991 3256 
Q 3991 2672 3619 2267 
Q 3247 1863 2275 1863 
L 1100 1863 
L 1100 0 
L 494 0 
z
M 1100 2403 
L 2284 2403 
Q 2872 2403 3119 2622 
Q 3366 2841 3366 3238 
Q 3366 3525 3220 3729 
Q 3075 3934 2838 4000 
Q 2684 4041 2272 4041 
L 1100 4041 
L 1100 2403 
z
" transform="scale(0.015625)"/>
        <path id="ArialMT-54" d="M 1659 0 
L 1659 4041 
L 150 4041 
L 150 4581 
L 3781 4581 
L 3781 4041 
L 2266 4041 
L 2266 0 
L 1659 0 
z
" transform="scale(0.015625)"/>
        <path id="ArialMT-52" d="M 503 0 
L 503 4581 
L 2534 4581 
Q 3147 4581 3465 4457 
Q 3784 4334 3975 4021 
Q 4166 3709 4166 3331 
Q 4166 2844 3850 2509 
Q 3534 2175 2875 2084 
Q 3116 1969 3241 1856 
Q 3506 1613 3744 1247 
L 4541 0 
L 3778 0 
L 3172 953 
Q 2906 1366 2734 1584 
Q 2563 1803 2427 1890 
Q 2291 1978 2150 2013 
Q 2047 2034 1813 2034 
L 1109 2034 
L 1109 0 
L 503 0 
z
M 1109 2559 
L 2413 2559 
Q 2828 2559 3062 2645 
Q 3297 2731 3419 2920 
Q 3541 3109 3541 3331 
Q 3541 3656 3305 3865 
Q 3069 4075 2559 4075 
L 1109 4075 
L 1109 2559 
z
" transform="scale(0.015625)"/>
        <path id="ArialMT-41" d="M -9 0 
L 1750 4581 
L 2403 4581 
L 4278 0 
L 3588 0 
L 3053 1388 
L 1138 1388 
L 634 0 
L -9 0 
z
M 1313 1881 
L 2866 1881 
L 2388 3150 
Q 2169 3728 2063 4100 
Q 1975 3659 1816 3225 
L 1313 1881 
z
" transform="scale(0.015625)"/>
        <path id="ArialMT-49" d="M 597 0 
L 597 4581 
L 1203 4581 
L 1203 0 
L 597 0 
z
" transform="scale(0.015625)"/>
        <path id="ArialMT-4f" d="M 309 2231 
Q 309 3372 921 4017 
Q 1534 4663 2503 4663 
Q 3138 4663 3647 4359 
Q 4156 4056 4423 3514 
Q 4691 2972 4691 2284 
Q 4691 1588 4409 1038 
Q 4128 488 3612 205 
Q 3097 -78 2500 -78 
Q 1853 -78 1343 234 
Q 834 547 571 1087 
Q 309 1628 309 2231 
z
M 934 2222 
Q 934 1394 1379 917 
Q 1825 441 2497 441 
Q 3181 441 3623 922 
Q 4066 1403 4066 2288 
Q 4066 2847 3877 3264 
Q 3688 3681 3323 3911 
Q 2959 4141 2506 4141 
Q 1863 4141 1398 3698 
Q 934 3256 934 2222 
z
" transform="scale(0.015625)"/>
       </defs>
       <use xlink:href="#ArialMT-50"/>
       <use xlink:href="#ArialMT-54" x="66.699219"/>
       <use xlink:href="#ArialMT-52" x="127.783203"/>
       <use xlink:href="#ArialMT-41" x="200"/>
       <use xlink:href="#ArialMT-54" x="259.324219"/>
       <use xlink:href="#ArialMT-49" x="320.408203"/>
       <use xlink:href="#ArialMT-4f" x="348.191406"/>
      </g>
     </g>
    </g>
    <g id="xtick_2">
     <g id="text_2">
      <!-- B -->
      <g style="fill: #ffffff" transform="translate(340.036328 270.673594) scale(0.11 -0.11)">
       <defs>
        <path id="ArialMT-42" d="M 469 0 
L 469 4581 
L 2188 4581 
Q 2713 4581 3030 4442 
Q 3347 4303 3526 4014 
Q 3706 3725 3706 3409 
Q 3706 3116 3547 2856 
Q 3388 2597 3066 2438 
Q 3481 2316 3704 2022 
Q 3928 1728 3928 1328 
Q 3928 1006 3792 729 
Q 3656 453 3456 303 
Q 3256 153 2954 76 
Q 2653 0 2216 0 
L 469 0 
z
M 1075 2656 
L 2066 2656 
Q 2469 2656 2644 2709 
Q 2875 2778 2992 2937 
Q 3109 3097 3109 3338 
Q 3109 3566 3000 3739 
Q 2891 3913 2687 3977 
Q 2484 4041 1991 4041 
L 1075 4041 
L 1075 2656 
z
M 1075 541 
L 2216 541 
Q 2509 541 2628 563 
Q 2838 600 2978 687 
Q 3119 775 3209 942 
Q 3300 1109 3300 1328 
Q 3300 1584 3169 1773 
Q 3038 1963 2805 2039 
Q 2572 2116 2134 2116 
L 1075 2116 
L 1075 541 
z
" transform="scale(0.015625)"/>
       </defs>
       <use xlink:href="#ArialMT-42"/>
      </g>
     </g>
    </g>
    <g id="xtick_3">
     <g id="text_3">
      <!-- LSTAT -->
      <g style="fill: #ffffff" transform="translate(533.451797 270.673594) scale(0.11 -0.11)">
       <defs>
        <path id="ArialMT-4c" d="M 469 0 
L 469 4581 
L 1075 4581 
L 1075 541 
L 3331 541 
L 3331 0 
L 469 0 
z
" transform="scale(0.015625)"/>
        <path id="ArialMT-53" d="M 288 1472 
L 859 1522 
Q 900 1178 1048 958 
Q 1197 738 1509 602 
Q 1822 466 2213 466 
Q 2559 466 2825 569 
Q 3091 672 3220 851 
Q 3350 1031 3350 1244 
Q 3350 1459 3225 1620 
Q 3100 1781 2813 1891 
Q 2628 1963 1997 2114 
Q 1366 2266 1113 2400 
Q 784 2572 623 2826 
Q 463 3081 463 3397 
Q 463 3744 659 4045 
Q 856 4347 1234 4503 
Q 1613 4659 2075 4659 
Q 2584 4659 2973 4495 
Q 3363 4331 3572 4012 
Q 3781 3694 3797 3291 
L 3216 3247 
Q 3169 3681 2898 3903 
Q 2628 4125 2100 4125 
Q 1550 4125 1298 3923 
Q 1047 3722 1047 3438 
Q 1047 3191 1225 3031 
Q 1400 2872 2139 2705 
Q 2878 2538 3153 2413 
Q 3553 2228 3743 1945 
Q 3934 1663 3934 1294 
Q 3934 928 3725 604 
Q 3516 281 3123 101 
Q 2731 -78 2241 -78 
Q 1619 -78 1198 103 
Q 778 284 539 648 
Q 300 1013 288 1472 
z
" transform="scale(0.015625)"/>
       </defs>
       <use xlink:href="#ArialMT-4c"/>
       <use xlink:href="#ArialMT-53" x="55.615234"/>
       <use xlink:href="#ArialMT-54" x="122.314453"/>
       <use xlink:href="#ArialMT-41" x="176.023438"/>
       <use xlink:href="#ArialMT-54" x="235.347656"/>
      </g>
     </g>
    </g>
    <g id="xtick_4">
     <g id="text_4">
      <!-- RAD -->
      <g style="fill: #ffffff" transform="translate(744.192266 270.673594) scale(0.11 -0.11)">
       <defs>
        <path id="ArialMT-44" d="M 494 0 
L 494 4581 
L 2072 4581 
Q 2606 4581 2888 4516 
Q 3281 4425 3559 4188 
Q 3922 3881 4101 3404 
Q 4281 2928 4281 2316 
Q 4281 1794 4159 1391 
Q 4038 988 3847 723 
Q 3656 459 3429 307 
Q 3203 156 2883 78 
Q 2563 0 2147 0 
L 494 0 
z
M 1100 541 
L 2078 541 
Q 2531 541 2789 625 
Q 3047 709 3200 863 
Q 3416 1078 3536 1442 
Q 3656 1806 3656 2325 
Q 3656 3044 3420 3430 
Q 3184 3816 2847 3947 
Q 2603 4041 2063 4041 
L 1100 4041 
L 1100 541 
z
" transform="scale(0.015625)"/>
       </defs>
       <use xlink:href="#ArialMT-52"/>
       <use xlink:href="#ArialMT-41" x="72.216797"/>
       <use xlink:href="#ArialMT-44" x="138.916016"/>
      </g>
     </g>
    </g>
    <g id="xtick_5">
     <g id="text_5">
      <!-- MEDV -->
      <g style="fill: #ffffff" transform="translate(945.964297 270.673594) scale(0.11 -0.11)">
       <defs>
        <path id="ArialMT-4d" d="M 475 0 
L 475 4581 
L 1388 4581 
L 2472 1338 
Q 2622 884 2691 659 
Q 2769 909 2934 1394 
L 4031 4581 
L 4847 4581 
L 4847 0 
L 4263 0 
L 4263 3834 
L 2931 0 
L 2384 0 
L 1059 3900 
L 1059 0 
L 475 0 
z
" transform="scale(0.015625)"/>
        <path id="ArialMT-45" d="M 506 0 
L 506 4581 
L 3819 4581 
L 3819 4041 
L 1113 4041 
L 1113 2638 
L 3647 2638 
L 3647 2100 
L 1113 2100 
L 1113 541 
L 3925 541 
L 3925 0 
L 506 0 
z
" transform="scale(0.015625)"/>
        <path id="ArialMT-56" d="M 1803 0 
L 28 4581 
L 684 4581 
L 1875 1253 
Q 2019 853 2116 503 
Q 2222 878 2363 1253 
L 3600 4581 
L 4219 4581 
L 2425 0 
L 1803 0 
z
" transform="scale(0.015625)"/>
       </defs>
       <use xlink:href="#ArialMT-4d"/>
       <use xlink:href="#ArialMT-45" x="83.300781"/>
       <use xlink:href="#ArialMT-44" x="150"/>
       <use xlink:href="#ArialMT-56" x="222.216797"/>
      </g>
     </g>
    </g>
   </g>
   <g id="matplotlib.axis_2">
    <g id="ytick_1">
     <g id="line2d_1">
      <path d="M 34.63 236.384317 
L 1064.88 236.384317 
" clip-path="url(#pef0e5217fe)" style="fill: none; stroke: #ffffff"/>
     </g>
     <g id="text_6">
      <!-- −4 -->
      <g style="fill: #ffffff" transform="translate(15.088281 240.321114) scale(0.11 -0.11)">
       <defs>
        <path id="ArialMT-2212" d="M 3381 1997 
L 356 1997 
L 356 2522 
L 3381 2522 
L 3381 1997 
z
" transform="scale(0.015625)"/>
        <path id="ArialMT-34" d="M 2069 0 
L 2069 1097 
L 81 1097 
L 81 1613 
L 2172 4581 
L 2631 4581 
L 2631 1613 
L 3250 1613 
L 3250 1097 
L 2631 1097 
L 2631 0 
L 2069 0 
z
M 2069 1613 
L 2069 3678 
L 634 1613 
L 2069 1613 
z
" transform="scale(0.015625)"/>
       </defs>
       <use xlink:href="#ArialMT-2212"/>
       <use xlink:href="#ArialMT-34" x="58.398438"/>
      </g>
     </g>
    </g>
    <g id="ytick_2">
     <g id="line2d_2">
      <path d="M 34.63 190.823045 
L 1064.88 190.823045 
" clip-path="url(#pef0e5217fe)" style="fill: none; stroke: #ffffff"/>
     </g>
     <g id="text_7">
      <!-- −2 -->
      <g style="fill: #ffffff" transform="translate(15.088281 194.759842) scale(0.11 -0.11)">
       <defs>
        <path id="ArialMT-32" d="M 3222 541 
L 3222 0 
L 194 0 
Q 188 203 259 391 
Q 375 700 629 1000 
Q 884 1300 1366 1694 
Q 2113 2306 2375 2664 
Q 2638 3022 2638 3341 
Q 2638 3675 2398 3904 
Q 2159 4134 1775 4134 
Q 1369 4134 1125 3890 
Q 881 3647 878 3216 
L 300 3275 
Q 359 3922 746 4261 
Q 1134 4600 1788 4600 
Q 2447 4600 2831 4234 
Q 3216 3869 3216 3328 
Q 3216 3053 3103 2787 
Q 2991 2522 2730 2228 
Q 2469 1934 1863 1422 
Q 1356 997 1212 845 
Q 1069 694 975 541 
L 3222 541 
z
" transform="scale(0.015625)"/>
       </defs>
       <use xlink:href="#ArialMT-2212"/>
       <use xlink:href="#ArialMT-32" x="58.398438"/>
      </g>
     </g>
    </g>
    <g id="ytick_3">
     <g id="line2d_3">
      <path d="M 34.63 145.261773 
L 1064.88 145.261773 
" clip-path="url(#pef0e5217fe)" style="fill: none; stroke: #ffffff"/>
     </g>
     <g id="text_8">
      <!-- 0 -->
      <g style="fill: #ffffff" transform="translate(21.512969 149.19857) scale(0.11 -0.11)">
       <defs>
        <path id="ArialMT-30" d="M 266 2259 
Q 266 3072 433 3567 
Q 600 4063 929 4331 
Q 1259 4600 1759 4600 
Q 2128 4600 2406 4451 
Q 2684 4303 2865 4023 
Q 3047 3744 3150 3342 
Q 3253 2941 3253 2259 
Q 3253 1453 3087 958 
Q 2922 463 2592 192 
Q 2263 -78 1759 -78 
Q 1097 -78 719 397 
Q 266 969 266 2259 
z
M 844 2259 
Q 844 1131 1108 757 
Q 1372 384 1759 384 
Q 2147 384 2411 759 
Q 2675 1134 2675 2259 
Q 2675 3391 2411 3762 
Q 2147 4134 1753 4134 
Q 1366 4134 1134 3806 
Q 844 3388 844 2259 
z
" transform="scale(0.015625)"/>
       </defs>
       <use xlink:href="#ArialMT-30"/>
      </g>
     </g>
    </g>
    <g id="ytick_4">
     <g id="line2d_4">
      <path d="M 34.63 99.7005 
L 1064.88 99.7005 
" clip-path="url(#pef0e5217fe)" style="fill: none; stroke: #ffffff"/>
     </g>
     <g id="text_9">
      <!-- 2 -->
      <g style="fill: #ffffff" transform="translate(21.512969 103.637297) scale(0.11 -0.11)">
       <use xlink:href="#ArialMT-32"/>
      </g>
     </g>
    </g>
    <g id="ytick_5">
     <g id="line2d_5">
      <path d="M 34.63 54.139228 
L 1064.88 54.139228 
" clip-path="url(#pef0e5217fe)" style="fill: none; stroke: #ffffff"/>
     </g>
     <g id="text_10">
      <!-- 4 -->
      <g style="fill: #ffffff" transform="translate(21.512969 58.076025) scale(0.11 -0.11)">
       <use xlink:href="#ArialMT-34"/>
      </g>
     </g>
    </g>
   </g>
   <g id="PolyCollection_1">
    <defs>
     <path id="m81d0078bf4" d="M 137.947913 -67.291481 
L 137.362087 -67.291481 
L 137.203291 -68.568574 
L 136.980775 -69.845667 
L 136.680991 -71.122759 
L 136.293183 -72.399852 
L 135.812268 -73.676945 
L 135.241782 -74.954038 
L 134.596203 -76.231131 
L 133.901818 -77.508223 
L 133.195409 -78.785316 
L 132.52029 -80.062409 
L 131.919816 -81.339502 
L 131.42909 -82.616595 
L 131.066212 -83.893687 
L 130.824829 -85.17078 
L 130.66974 -86.447873 
L 130.53702 -87.724966 
L 130.339427 -89.002059 
L 129.976956 -90.279151 
L 129.351479 -91.556244 
L 128.383504 -92.833337 
L 127.02844 -94.11043 
L 125.289433 -95.387523 
L 123.223982 -96.664615 
L 120.942275 -97.941708 
L 118.596456 -99.218801 
L 116.361746 -100.495894 
L 114.412107 -101.772987 
L 112.89458 -103.050079 
L 111.906997 -104.327172 
L 111.483346 -105.604265 
L 111.589606 -106.881358 
L 112.130681 -108.158451 
L 112.966828 -109.435543 
L 113.936093 -110.712636 
L 114.878302 -111.989729 
L 115.656168 -113.266822 
L 116.170025 -114.543915 
L 116.36423 -115.821007 
L 116.225092 -117.0981 
L 115.771803 -118.375193 
L 115.0431 -119.652286 
L 114.083012 -120.929379 
L 112.928971 -122.206471 
L 111.604817 -123.483564 
L 110.119924 -124.760657 
L 108.474081 -126.03775 
L 106.666268 -127.314843 
L 104.704452 -128.591935 
L 102.613322 -129.869028 
L 100.437568 -131.146121 
L 98.239713 -132.423214 
L 96.093127 -133.700307 
L 94.072204 -134.977399 
L 92.24225 -136.254492 
L 90.651272 -137.531585 
L 89.324751 -138.808678 
L 88.26318 -140.085771 
L 87.441116 -141.362863 
L 86.806372 -142.639956 
L 86.278726 -143.917049 
L 85.748997 -145.194142 
L 85.080885 -146.471235 
L 84.118798 -147.748327 
L 82.704461 -149.02542 
L 80.703019 -150.302513 
L 78.036025 -151.579606 
L 74.715068 -152.856699 
L 70.867094 -154.133791 
L 66.74218 -155.410884 
L 62.697327 -156.687977 
L 59.155379 -157.96507 
L 56.545172 -159.242163 
L 55.235 -160.519255 
L 55.47437 -161.796348 
L 57.357397 -163.073441 
L 60.815519 -164.350534 
L 65.639212 -165.627627 
L 71.520945 -166.904719 
L 78.107151 -168.181812 
L 85.046667 -169.458905 
L 92.026608 -170.735998 
L 98.792052 -172.013091 
L 105.151139 -173.290184 
L 110.970443 -174.567276 
L 116.166152 -175.844369 
L 120.695215 -177.121462 
L 124.548356 -178.398555 
L 127.744816 -179.675648 
L 130.327684 -180.95274 
L 132.358669 -182.229833 
L 133.911909 -183.506926 
L 135.06715 -184.784019 
L 135.903197 -186.061112 
L 136.492564 -187.338204 
L 136.89791 -188.615297 
L 137.170437 -189.89239 
L 137.349937 -191.169483 
L 137.465992 -192.446576 
L 137.539767 -193.723668 
L 137.770233 -193.723668 
L 137.770233 -193.723668 
L 137.844008 -192.446576 
L 137.960063 -191.169483 
L 138.139563 -189.89239 
L 138.41209 -188.615297 
L 138.817436 -187.338204 
L 139.406803 -186.061112 
L 140.24285 -184.784019 
L 141.398091 -183.506926 
L 142.951331 -182.229833 
L 144.982316 -180.95274 
L 147.565184 -179.675648 
L 150.761644 -178.398555 
L 154.614785 -177.121462 
L 159.143848 -175.844369 
L 164.339557 -174.567276 
L 170.158861 -173.290184 
L 176.517948 -172.013091 
L 183.283392 -170.735998 
L 190.263333 -169.458905 
L 197.202849 -168.181812 
L 203.789055 -166.904719 
L 209.670788 -165.627627 
L 214.494481 -164.350534 
L 217.952603 -163.073441 
L 219.83563 -161.796348 
L 220.075 -160.519255 
L 218.764828 -159.242163 
L 216.154621 -157.96507 
L 212.612673 -156.687977 
L 208.56782 -155.410884 
L 204.442906 -154.133791 
L 200.594932 -152.856699 
L 197.273975 -151.579606 
L 194.606981 -150.302513 
L 192.605539 -149.02542 
L 191.191202 -147.748327 
L 190.229115 -146.471235 
L 189.561003 -145.194142 
L 189.031274 -143.917049 
L 188.503628 -142.639956 
L 187.868884 -141.362863 
L 187.04682 -140.085771 
L 185.985249 -138.808678 
L 184.658728 -137.531585 
L 183.06775 -136.254492 
L 181.237796 -134.977399 
L 179.216873 -133.700307 
L 177.070287 -132.423214 
L 174.872432 -131.146121 
L 172.696678 -129.869028 
L 170.605548 -128.591935 
L 168.643732 -127.314843 
L 166.835919 -126.03775 
L 165.190076 -124.760657 
L 163.705183 -123.483564 
L 162.381029 -122.206471 
L 161.226988 -120.929379 
L 160.2669 -119.652286 
L 159.538197 -118.375193 
L 159.084908 -117.0981 
L 158.94577 -115.821007 
L 159.139975 -114.543915 
L 159.653832 -113.266822 
L 160.431698 -111.989729 
L 161.373907 -110.712636 
L 162.343172 -109.435543 
L 163.179319 -108.158451 
L 163.720394 -106.881358 
L 163.826654 -105.604265 
L 163.403003 -104.327172 
L 162.41542 -103.050079 
L 160.897893 -101.772987 
L 158.948254 -100.495894 
L 156.713544 -99.218801 
L 154.367725 -97.941708 
L 152.086018 -96.664615 
L 150.020567 -95.387523 
L 148.28156 -94.11043 
L 146.926496 -92.833337 
L 145.958521 -91.556244 
L 145.333044 -90.279151 
L 144.970573 -89.002059 
L 144.77298 -87.724966 
L 144.64026 -86.447873 
L 144.485171 -85.17078 
L 144.243788 -83.893687 
L 143.88091 -82.616595 
L 143.390184 -81.339502 
L 142.78971 -80.062409 
L 142.114591 -78.785316 
L 141.408182 -77.508223 
L 140.713797 -76.231131 
L 140.068218 -74.954038 
L 139.497732 -73.676945 
L 139.016817 -72.399852 
L 138.629009 -71.122759 
L 138.329225 -69.845667 
L 138.106709 -68.568574 
L 137.947913 -67.291481 
z
" style="stroke: #484848; stroke-width: 3"/>
    </defs>
    <g clip-path="url(#pef0e5217fe)">
     <use xlink:href="#m81d0078bf4" x="0" y="288" style="fill: #cb3335; stroke: #484848; stroke-width: 3"/>
    </g>
   </g>
   <g id="PolyCollection_2">
    <defs>
     <path id="mc89f6d4af8" d="M 343.913973 -41.830909 
L 343.496027 -41.830909 
L 343.39213 -43.086349 
L 343.251362 -44.341788 
L 343.067801 -45.597228 
L 342.837579 -46.852667 
L 342.560107 -48.108107 
L 342.239121 -49.363547 
L 341.883289 -50.618986 
L 341.506146 -51.874426 
L 341.125213 -53.129865 
L 340.760338 -54.385305 
L 340.43145 -55.640744 
L 340.156075 -56.896184 
L 339.947052 -58.151624 
L 339.810846 -59.407063 
L 339.746792 -60.662503 
L 339.747387 -61.917942 
L 339.799581 -63.173382 
L 339.886837 -64.428822 
L 339.991611 -65.684261 
L 340.097847 -66.939701 
L 340.19312 -68.19514 
L 340.270115 -69.45058 
L 340.327255 -70.706019 
L 340.368431 -71.961459 
L 340.401893 -73.216899 
L 340.438519 -74.472338 
L 340.489757 -75.727778 
L 340.565579 -76.983217 
L 340.672796 -78.238657 
L 340.813971 -79.494096 
L 340.987101 -80.749536 
L 341.18603 -82.004976 
L 341.401475 -83.260415 
L 341.622423 -84.515855 
L 341.837644 -85.771294 
L 342.037066 -87.026734 
L 342.212856 -88.282174 
L 342.360079 -89.537613 
L 342.476912 -90.793053 
L 342.564435 -92.048492 
L 342.626043 -93.303932 
L 342.666597 -94.559371 
L 342.69143 -95.814811 
L 342.705384 -97.070251 
L 342.712034 -98.32569 
L 342.713239 -99.58113 
L 342.709101 -100.836569 
L 342.698296 -102.092009 
L 342.678694 -103.347449 
L 342.648088 -104.602888 
L 342.604839 -105.858328 
L 342.548292 -107.113767 
L 342.478867 -108.369207 
L 342.397823 -109.624646 
L 342.306788 -110.880086 
L 342.20715 -112.135526 
L 342.099474 -113.390965 
L 341.983046 -114.646405 
L 341.855645 -115.901844 
L 341.713551 -117.157284 
L 341.551783 -118.412723 
L 341.364474 -119.668163 
L 341.145262 -120.923603 
L 340.887485 -122.179042 
L 340.583998 -123.434482 
L 340.226361 -124.689921 
L 339.803225 -125.945361 
L 339.297814 -127.200801 
L 338.68451 -128.45624 
L 337.924764 -129.71168 
L 336.962803 -130.967119 
L 335.721904 -132.222559 
L 334.102425 -133.477998 
L 331.983107 -134.733438 
L 329.227428 -135.988878 
L 325.696599 -137.244317 
L 321.270111 -138.499757 
L 315.873248 -139.755196 
L 309.508822 -141.010636 
L 302.287953 -142.266075 
L 294.45263 -143.521515 
L 286.38205 -144.776955 
L 278.576083 -146.032394 
L 271.61297 -147.287834 
L 266.084046 -148.543273 
L 262.514601 -149.798713 
L 261.285 -151.054153 
L 262.568185 -152.309592 
L 266.297492 -153.565032 
L 272.172642 -154.820471 
L 279.703287 -156.075911 
L 288.281032 -157.33135 
L 297.264877 -158.58679 
L 306.063066 -159.84223 
L 314.196795 -161.097669 
L 321.336918 -162.353109 
L 327.31181 -163.608548 
L 332.090789 -164.863988 
L 335.751512 -166.119428 
L 351.658488 -166.119428 
L 351.658488 -166.119428 
L 355.319211 -164.863988 
L 360.09819 -163.608548 
L 366.073082 -162.353109 
L 373.213205 -161.097669 
L 381.346934 -159.84223 
L 390.145123 -158.58679 
L 399.128968 -157.33135 
L 407.706713 -156.075911 
L 415.237358 -154.820471 
L 421.112508 -153.565032 
L 424.841815 -152.309592 
L 426.125 -151.054153 
L 424.895399 -149.798713 
L 421.325954 -148.543273 
L 415.79703 -147.287834 
L 408.833917 -146.032394 
L 401.02795 -144.776955 
L 392.95737 -143.521515 
L 385.122047 -142.266075 
L 377.901178 -141.010636 
L 371.536752 -139.755196 
L 366.139889 -138.499757 
L 361.713401 -137.244317 
L 358.182572 -135.988878 
L 355.426893 -134.733438 
L 353.307575 -133.477998 
L 351.688096 -132.222559 
L 350.447197 -130.967119 
L 349.485236 -129.71168 
L 348.72549 -128.45624 
L 348.112186 -127.200801 
L 347.606775 -125.945361 
L 347.183639 -124.689921 
L 346.826002 -123.434482 
L 346.522515 -122.179042 
L 346.264738 -120.923603 
L 346.045526 -119.668163 
L 345.858217 -118.412723 
L 345.696449 -117.157284 
L 345.554355 -115.901844 
L 345.426954 -114.646405 
L 345.310526 -113.390965 
L 345.20285 -112.135526 
L 345.103212 -110.880086 
L 345.012177 -109.624646 
L 344.931133 -108.369207 
L 344.861708 -107.113767 
L 344.805161 -105.858328 
L 344.761912 -104.602888 
L 344.731306 -103.347449 
L 344.711704 -102.092009 
L 344.700899 -100.836569 
L 344.696761 -99.58113 
L 344.697966 -98.32569 
L 344.704616 -97.070251 
L 344.71857 -95.814811 
L 344.743403 -94.559371 
L 344.783957 -93.303932 
L 344.845565 -92.048492 
L 344.933088 -90.793053 
L 345.049921 -89.537613 
L 345.197144 -88.282174 
L 345.372934 -87.026734 
L 345.572356 -85.771294 
L 345.787577 -84.515855 
L 346.008525 -83.260415 
L 346.22397 -82.004976 
L 346.422899 -80.749536 
L 346.596029 -79.494096 
L 346.737204 -78.238657 
L 346.844421 -76.983217 
L 346.920243 -75.727778 
L 346.971481 -74.472338 
L 347.008107 -73.216899 
L 347.041569 -71.961459 
L 347.082745 -70.706019 
L 347.139885 -69.45058 
L 347.21688 -68.19514 
L 347.312153 -66.939701 
L 347.418389 -65.684261 
L 347.523163 -64.428822 
L 347.610419 -63.173382 
L 347.662613 -61.917942 
L 347.663208 -60.662503 
L 347.599154 -59.407063 
L 347.462948 -58.151624 
L 347.253925 -56.896184 
L 346.97855 -55.640744 
L 346.649662 -54.385305 
L 346.284787 -53.129865 
L 345.903854 -51.874426 
L 345.526711 -50.618986 
L 345.170879 -49.363547 
L 344.849893 -48.108107 
L 344.572421 -46.852667 
L 344.342199 -45.597228 
L 344.158638 -44.341788 
L 344.01787 -43.086349 
L 343.913973 -41.830909 
z
" style="stroke: #484848; stroke-width: 3"/>
    </defs>
    <g clip-path="url(#pef0e5217fe)">
     <use xlink:href="#mc89f6d4af8" x="0" y="288" style="fill: #477ca8; stroke: #484848; stroke-width: 3"/>
    </g>
   </g>
   <g id="PolyCollection_3">
    <defs>
     <path id="m5b9b0603c8" d="M 550.384441 -94.401588 
L 549.125559 -94.401588 
L 548.691388 -95.816209 
L 548.0197 -97.230831 
L 547.019758 -98.645452 
L 545.586964 -100.060073 
L 543.610472 -101.474694 
L 540.984992 -102.889316 
L 537.625883 -104.303937 
L 533.485501 -105.718558 
L 528.567912 -107.133179 
L 522.938743 -108.547801 
L 516.727502 -109.962422 
L 510.121008 -111.377043 
L 503.348367 -112.791664 
L 496.659777 -114.206286 
L 490.302644 -115.620907 
L 484.498892 -117.035528 
L 479.426743 -118.450149 
L 475.20907 -119.86477 
L 471.909039 -121.279392 
L 469.532547 -122.694013 
L 468.036175 -124.108634 
L 467.338833 -125.523255 
L 467.335 -126.937877 
L 467.907334 -128.352498 
L 468.936699 -129.767119 
L 470.308414 -131.18174 
L 471.914811 -132.596362 
L 473.655561 -134.010983 
L 475.438087 -135.425604 
L 477.180136 -136.840225 
L 478.815254 -138.254847 
L 480.299965 -139.669468 
L 481.619904 -141.084089 
L 482.791887 -142.49871 
L 483.860083 -143.913332 
L 484.886676 -145.327953 
L 485.939586 -146.742574 
L 487.080939 -148.157195 
L 488.359526 -149.571817 
L 489.808734 -150.986438 
L 491.449113 -152.401059 
L 493.293021 -153.81568 
L 495.348248 -155.230301 
L 497.618389 -156.644923 
L 500.099548 -158.059544 
L 502.774816 -159.474165 
L 505.609195 -160.888786 
L 508.547657 -162.303408 
L 511.518002 -163.718029 
L 514.43848 -165.13265 
L 517.228562 -166.547271 
L 519.82022 -167.961893 
L 522.166976 -169.376514 
L 524.24864 -170.791135 
L 526.070854 -172.205756 
L 527.659811 -173.620378 
L 529.053626 -175.034999 
L 530.29255 -176.44962 
L 531.41038 -177.864241 
L 532.429019 -179.278863 
L 533.357248 -180.693484 
L 534.19353 -182.108105 
L 534.93157 -183.522726 
L 535.566647 -184.937348 
L 536.100813 -186.351969 
L 536.545685 -187.76659 
L 536.92256 -189.181211 
L 537.260364 -190.595832 
L 537.592293 -192.010454 
L 537.951904 -193.425075 
L 538.369063 -194.839696 
L 538.865976 -196.254317 
L 539.45362 -197.668939 
L 540.129207 -199.08356 
L 540.875566 -200.498181 
L 541.663169 -201.912802 
L 542.454946 -203.327424 
L 543.213108 -204.742045 
L 543.906385 -206.156666 
L 544.515753 -207.571287 
L 545.037073 -208.985909 
L 545.480006 -210.40053 
L 545.863737 -211.815151 
L 546.210983 -213.229772 
L 546.542141 -214.644394 
L 546.871137 -216.059015 
L 547.203757 -217.473636 
L 547.538359 -218.888257 
L 547.868167 -220.302879 
L 548.184111 -221.7175 
L 548.477316 -223.132121 
L 548.740767 -224.546742 
L 548.970061 -225.961363 
L 549.163463 -227.375985 
L 549.321549 -228.790606 
L 549.44669 -230.205227 
L 549.542504 -231.619848 
L 549.613339 -233.03447 
L 549.663812 -234.449091 
L 549.846188 -234.449091 
L 549.846188 -234.449091 
L 549.896661 -233.03447 
L 549.967496 -231.619848 
L 550.06331 -230.205227 
L 550.188451 -228.790606 
L 550.346537 -227.375985 
L 550.539939 -225.961363 
L 550.769233 -224.546742 
L 551.032684 -223.132121 
L 551.325889 -221.7175 
L 551.641833 -220.302879 
L 551.971641 -218.888257 
L 552.306243 -217.473636 
L 552.638863 -216.059015 
L 552.967859 -214.644394 
L 553.299017 -213.229772 
L 553.646263 -211.815151 
L 554.029994 -210.40053 
L 554.472927 -208.985909 
L 554.994247 -207.571287 
L 555.603615 -206.156666 
L 556.296892 -204.742045 
L 557.055054 -203.327424 
L 557.846831 -201.912802 
L 558.634434 -200.498181 
L 559.380793 -199.08356 
L 560.05638 -197.668939 
L 560.644024 -196.254317 
L 561.140937 -194.839696 
L 561.558096 -193.425075 
L 561.917707 -192.010454 
L 562.249636 -190.595832 
L 562.58744 -189.181211 
L 562.964315 -187.76659 
L 563.409187 -186.351969 
L 563.943353 -184.937348 
L 564.57843 -183.522726 
L 565.31647 -182.108105 
L 566.152752 -180.693484 
L 567.080981 -179.278863 
L 568.09962 -177.864241 
L 569.21745 -176.44962 
L 570.456374 -175.034999 
L 571.850189 -173.620378 
L 573.439146 -172.205756 
L 575.26136 -170.791135 
L 577.343024 -169.376514 
L 579.68978 -167.961893 
L 582.281438 -166.547271 
L 585.07152 -165.13265 
L 587.991998 -163.718029 
L 590.962343 -162.303408 
L 593.900805 -160.888786 
L 596.735184 -159.474165 
L 599.410452 -158.059544 
L 601.891611 -156.644923 
L 604.161752 -155.230301 
L 606.216979 -153.81568 
L 608.060887 -152.401059 
L 609.701266 -150.986438 
L 611.150474 -149.571817 
L 612.429061 -148.157195 
L 613.570414 -146.742574 
L 614.623324 -145.327953 
L 615.649917 -143.913332 
L 616.718113 -142.49871 
L 617.890096 -141.084089 
L 619.210035 -139.669468 
L 620.694746 -138.254847 
L 622.329864 -136.840225 
L 624.071913 -135.425604 
L 625.854439 -134.010983 
L 627.595189 -132.596362 
L 629.201586 -131.18174 
L 630.573301 -129.767119 
L 631.602666 -128.352498 
L 632.175 -126.937877 
L 632.171167 -125.523255 
L 631.473825 -124.108634 
L 629.977453 -122.694013 
L 627.600961 -121.279392 
L 624.30093 -119.86477 
L 620.083257 -118.450149 
L 615.011108 -117.035528 
L 609.207356 -115.620907 
L 602.850223 -114.206286 
L 596.161633 -112.791664 
L 589.388992 -111.377043 
L 582.782498 -109.962422 
L 576.571257 -108.547801 
L 570.942088 -107.133179 
L 566.024499 -105.718558 
L 561.884117 -104.303937 
L 558.525008 -102.889316 
L 555.899528 -101.474694 
L 553.923036 -100.060073 
L 552.490242 -98.645452 
L 551.4903 -97.230831 
L 550.818612 -95.816209 
L 550.384441 -94.401588 
z
" style="stroke: #484848; stroke-width: 3"/>
    </defs>
    <g clip-path="url(#pef0e5217fe)">
     <use xlink:href="#m5b9b0603c8" x="0" y="288" style="fill: #59a257; stroke: #484848; stroke-width: 3"/>
    </g>
   </g>
   <g id="PolyCollection_4">
    <defs>
     <path id="m533d498cc4" d="M 757.311271 -106.997308 
L 754.298729 -106.997308 
L 753.754629 -107.874976 
L 753.050476 -108.752644 
L 752.152121 -109.630312 
L 751.022176 -110.507981 
L 749.62094 -111.385649 
L 747.907758 -112.263317 
L 745.842843 -113.140986 
L 743.389593 -114.018654 
L 740.51735 -114.896322 
L 737.204543 -115.773991 
L 733.442068 -116.651659 
L 729.236714 -117.529327 
L 724.614356 -118.406996 
L 719.622597 -119.284664 
L 714.332507 -120.162332 
L 708.839095 -121.040001 
L 703.260198 -121.917669 
L 697.733581 -122.795337 
L 692.412162 -123.673005 
L 687.457484 -124.550674 
L 683.031736 -125.428342 
L 679.288846 -126.30601 
L 676.365331 -127.183679 
L 674.37167 -128.061347 
L 673.385 -128.939015 
L 673.443855 -129.816684 
L 674.545458 -130.694352 
L 676.645883 -131.57202 
L 679.663049 -132.449689 
L 683.482283 -133.327357 
L 687.963874 -134.205025 
L 692.951907 -135.082694 
L 698.283555 -135.960362 
L 703.798024 -136.83803 
L 709.344469 -137.715698 
L 714.788344 -138.593367 
L 720.015906 -139.471035 
L 724.936763 -140.348703 
L 729.484594 -141.226372 
L 733.616293 -142.10404 
L 737.309902 -142.981708 
L 740.561711 -143.859377 
L 743.382918 -144.737045 
L 745.796169 -145.614713 
L 747.832242 -146.492382 
L 749.527053 -147.37005 
L 750.919084 -148.247718 
L 752.047292 -149.125387 
L 752.94948 -150.003055 
L 753.661099 -150.880723 
L 754.214429 -151.758391 
L 754.638071 -152.63606 
L 754.956669 -153.513728 
L 755.190823 -154.391396 
L 755.357095 -155.269065 
L 755.468081 -156.146733 
L 755.532478 -157.024401 
L 755.555125 -157.90207 
L 755.536984 -158.779738 
L 755.475066 -159.657406 
L 755.362309 -160.535075 
L 755.187466 -161.412743 
L 754.935051 -162.290411 
L 754.585455 -163.16808 
L 754.115333 -164.045748 
L 753.498366 -164.923416 
L 752.706518 -165.801084 
L 751.711841 -166.678753 
L 750.488853 -167.556421 
L 749.0174 -168.434089 
L 747.285866 -169.311758 
L 745.294448 -170.189426 
L 743.058163 -171.067094 
L 740.609167 -171.944763 
L 737.997992 -172.822431 
L 735.29331 -173.700099 
L 732.579993 -174.577768 
L 729.955385 -175.455436 
L 727.52391 -176.333104 
L 725.390408 -177.210773 
L 723.65273 -178.088441 
L 722.394337 -178.966109 
L 721.677669 -179.843777 
L 721.539004 -180.721446 
L 721.985422 -181.599114 
L 722.994202 -182.476782 
L 724.514738 -183.354451 
L 726.472748 -184.232119 
L 728.776285 -185.109787 
L 731.322871 -185.987456 
L 734.006995 -186.865124 
L 736.727207 -187.742792 
L 739.392177 -188.620461 
L 741.925231 -189.498129 
L 744.267148 -190.375797 
L 746.377175 -191.253466 
L 748.232455 -192.131134 
L 749.826173 -193.008802 
L 751.16483 -193.88647 
L 760.44517 -193.88647 
L 760.44517 -193.88647 
L 761.783827 -193.008802 
L 763.377545 -192.131134 
L 765.232825 -191.253466 
L 767.342852 -190.375797 
L 769.684769 -189.498129 
L 772.217823 -188.620461 
L 774.882793 -187.742792 
L 777.603005 -186.865124 
L 780.287129 -185.987456 
L 782.833715 -185.109787 
L 785.137252 -184.232119 
L 787.095262 -183.354451 
L 788.615798 -182.476782 
L 789.624578 -181.599114 
L 790.070996 -180.721446 
L 789.932331 -179.843777 
L 789.215663 -178.966109 
L 787.95727 -178.088441 
L 786.219592 -177.210773 
L 784.08609 -176.333104 
L 781.654615 -175.455436 
L 779.030007 -174.577768 
L 776.31669 -173.700099 
L 773.612008 -172.822431 
L 771.000833 -171.944763 
L 768.551837 -171.067094 
L 766.315552 -170.189426 
L 764.324134 -169.311758 
L 762.5926 -168.434089 
L 761.121147 -167.556421 
L 759.898159 -166.678753 
L 758.903482 -165.801084 
L 758.111634 -164.923416 
L 757.494667 -164.045748 
L 757.024545 -163.16808 
L 756.674949 -162.290411 
L 756.422534 -161.412743 
L 756.247691 -160.535075 
L 756.134934 -159.657406 
L 756.073016 -158.779738 
L 756.054875 -157.90207 
L 756.077522 -157.024401 
L 756.141919 -156.146733 
L 756.252905 -155.269065 
L 756.419177 -154.391396 
L 756.653331 -153.513728 
L 756.971929 -152.63606 
L 757.395571 -151.758391 
L 757.948901 -150.880723 
L 758.66052 -150.003055 
L 759.562708 -149.125387 
L 760.690916 -148.247718 
L 762.082947 -147.37005 
L 763.777758 -146.492382 
L 765.813831 -145.614713 
L 768.227082 -144.737045 
L 771.048289 -143.859377 
L 774.300098 -142.981708 
L 777.993707 -142.10404 
L 782.125406 -141.226372 
L 786.673237 -140.348703 
L 791.594094 -139.471035 
L 796.821656 -138.593367 
L 802.265531 -137.715698 
L 807.811976 -136.83803 
L 813.326445 -135.960362 
L 818.658093 -135.082694 
L 823.646126 -134.205025 
L 828.127717 -133.327357 
L 831.946951 -132.449689 
L 834.964117 -131.57202 
L 837.064542 -130.694352 
L 838.166145 -129.816684 
L 838.225 -128.939015 
L 837.23833 -128.061347 
L 835.244669 -127.183679 
L 832.321154 -126.30601 
L 828.578264 -125.428342 
L 824.152516 -124.550674 
L 819.197838 -123.673005 
L 813.876419 -122.795337 
L 808.349802 -121.917669 
L 802.770905 -121.040001 
L 797.277493 -120.162332 
L 791.987403 -119.284664 
L 786.995644 -118.406996 
L 782.373286 -117.529327 
L 778.167932 -116.651659 
L 774.405457 -115.773991 
L 771.09265 -114.896322 
L 768.220407 -114.018654 
L 765.767157 -113.140986 
L 763.702242 -112.263317 
L 761.98906 -111.385649 
L 760.587824 -110.507981 
L 759.457879 -109.630312 
L 758.559524 -108.752644 
L 757.855371 -107.874976 
L 757.311271 -106.997308 
z
" style="stroke: #484848; stroke-width: 3"/>
    </defs>
    <g clip-path="url(#pef0e5217fe)">
     <use xlink:href="#m533d498cc4" x="0" y="288" style="fill: #905998; stroke: #484848; stroke-width: 3"/>
    </g>
   </g>
   <g id="PolyCollection_5">
    <defs>
     <path id="m99f9b39dbe" d="M 962.103167 -85.445812 
L 961.606833 -85.445812 
L 961.457457 -86.851754 
L 961.239851 -88.257696 
L 960.934449 -89.663638 
L 960.521027 -91.069579 
L 959.980482 -92.475521 
L 959.296777 -93.881463 
L 958.458649 -95.287405 
L 957.460666 -96.693347 
L 956.303282 -98.099289 
L 954.991678 -99.50523 
L 953.533478 -100.911172 
L 951.935731 -102.317114 
L 950.201864 -103.723056 
L 948.329527 -105.128998 
L 946.310235 -106.53494 
L 944.131382 -107.940882 
L 941.780632 -109.346823 
L 939.251806 -110.752765 
L 936.550648 -112.158707 
L 933.698371 -113.564649 
L 930.731085 -114.970591 
L 927.694154 -116.376533 
L 924.632114 -117.782475 
L 921.576499 -119.188416 
L 918.535268 -120.594358 
L 915.487721 -122.0003 
L 912.387734 -123.406242 
L 909.175899 -124.812184 
L 905.798465 -126.218126 
L 902.228747 -127.624067 
L 898.485738 -129.030009 
L 894.645299 -130.435951 
L 890.841348 -131.841893 
L 887.256939 -133.247835 
L 884.107337 -134.653777 
L 881.618205 -136.059719 
L 880.002017 -137.46566 
L 879.435 -138.871602 
L 880.036221 -140.277544 
L 881.850303 -141.683486 
L 884.835779 -143.089428 
L 888.861708 -144.49537 
L 893.715148 -145.901311 
L 899.120662 -147.307253 
L 904.770485 -148.713195 
L 910.360868 -150.119137 
L 915.627844 -151.525079 
L 920.375173 -152.931021 
L 924.489043 -154.336963 
L 927.93757 -155.742904 
L 930.757126 -157.148846 
L 933.030586 -158.554788 
L 934.863754 -159.96073 
L 936.365388 -161.366672 
L 937.633944 -162.772614 
L 938.751521 -164.178556 
L 939.783394 -165.584497 
L 940.780556 -166.990439 
L 941.782838 -168.396381 
L 942.821011 -169.802323 
L 943.917277 -171.208265 
L 945.084404 -172.614207 
L 946.324206 -174.020148 
L 947.626224 -175.42609 
L 948.967385 -176.832032 
L 950.313245 -178.237974 
L 951.621039 -179.643916 
L 952.844442 -181.049858 
L 953.939408 -182.4558 
L 954.870187 -183.861741 
L 955.614345 -185.267683 
L 956.165787 -186.673625 
L 956.535063 -188.079567 
L 956.746786 -189.485509 
L 956.83456 -190.891451 
L 956.834314 -192.297392 
L 956.777354 -193.703334 
L 956.684567 -195.109276 
L 956.563194 -196.515218 
L 956.407194 -197.92116 
L 956.201562 -199.327102 
L 955.930028 -200.733044 
L 955.584539 -202.138985 
L 955.174047 -203.544927 
L 954.729847 -204.950869 
L 954.305202 -206.356811 
L 953.968373 -207.762753 
L 953.790138 -209.168695 
L 953.828747 -210.574637 
L 954.116382 -211.980578 
L 954.651011 -213.38652 
L 955.395969 -214.792462 
L 956.287314 -216.198404 
L 957.24666 -217.604346 
L 958.195819 -219.010288 
L 959.069444 -220.416229 
L 959.822988 -221.822171 
L 960.435028 -223.228113 
L 960.90469 -224.634055 
L 962.80531 -224.634055 
L 962.80531 -224.634055 
L 963.274972 -223.228113 
L 963.887012 -221.822171 
L 964.640556 -220.416229 
L 965.514181 -219.010288 
L 966.46334 -217.604346 
L 967.422686 -216.198404 
L 968.314031 -214.792462 
L 969.058989 -213.38652 
L 969.593618 -211.980578 
L 969.881253 -210.574637 
L 969.919862 -209.168695 
L 969.741627 -207.762753 
L 969.404798 -206.356811 
L 968.980153 -204.950869 
L 968.535953 -203.544927 
L 968.125461 -202.138985 
L 967.779972 -200.733044 
L 967.508438 -199.327102 
L 967.302806 -197.92116 
L 967.146806 -196.515218 
L 967.025433 -195.109276 
L 966.932646 -193.703334 
L 966.875686 -192.297392 
L 966.87544 -190.891451 
L 966.963214 -189.485509 
L 967.174937 -188.079567 
L 967.544213 -186.673625 
L 968.095655 -185.267683 
L 968.839813 -183.861741 
L 969.770592 -182.4558 
L 970.865558 -181.049858 
L 972.088961 -179.643916 
L 973.396755 -178.237974 
L 974.742615 -176.832032 
L 976.083776 -175.42609 
L 977.385794 -174.020148 
L 978.625596 -172.614207 
L 979.792723 -171.208265 
L 980.888989 -169.802323 
L 981.927162 -168.396381 
L 982.929444 -166.990439 
L 983.926606 -165.584497 
L 984.958479 -164.178556 
L 986.076056 -162.772614 
L 987.344612 -161.366672 
L 988.846246 -159.96073 
L 990.679414 -158.554788 
L 992.952874 -157.148846 
L 995.77243 -155.742904 
L 999.220957 -154.336963 
L 1003.334827 -152.931021 
L 1008.082156 -151.525079 
L 1013.349132 -150.119137 
L 1018.939515 -148.713195 
L 1024.589338 -147.307253 
L 1029.994852 -145.901311 
L 1034.848292 -144.49537 
L 1038.874221 -143.089428 
L 1041.859697 -141.683486 
L 1043.673779 -140.277544 
L 1044.275 -138.871602 
L 1043.707983 -137.46566 
L 1042.091795 -136.059719 
L 1039.602663 -134.653777 
L 1036.453061 -133.247835 
L 1032.868652 -131.841893 
L 1029.064701 -130.435951 
L 1025.224262 -129.030009 
L 1021.481253 -127.624067 
L 1017.911535 -126.218126 
L 1014.534101 -124.812184 
L 1011.322266 -123.406242 
L 1008.222279 -122.0003 
L 1005.174732 -120.594358 
L 1002.133501 -119.188416 
L 999.077886 -117.782475 
L 996.015846 -116.376533 
L 992.978915 -114.970591 
L 990.011629 -113.564649 
L 987.159352 -112.158707 
L 984.458194 -110.752765 
L 981.929368 -109.346823 
L 979.578618 -107.940882 
L 977.399765 -106.53494 
L 975.380473 -105.128998 
L 973.508136 -103.723056 
L 971.774269 -102.317114 
L 970.176522 -100.911172 
L 968.718322 -99.50523 
L 967.406718 -98.099289 
L 966.249334 -96.693347 
L 965.251351 -95.287405 
L 964.413223 -93.881463 
L 963.729518 -92.475521 
L 963.188973 -91.069579 
L 962.775551 -89.663638 
L 962.470149 -88.257696 
L 962.252543 -86.851754 
L 962.103167 -85.445812 
z
" style="stroke: #484848; stroke-width: 3"/>
    </defs>
    <g clip-path="url(#pef0e5217fe)">
     <use xlink:href="#m99f9b39dbe" x="0" y="288" style="fill: #df7f20; stroke: #484848; stroke-width: 3"/>
    </g>
   </g>
   <g id="line2d_6">
    <path d="M 137.655 196.712052 
L 137.655 107.6729 
" clip-path="url(#pef0e5217fe)" style="fill: none; stroke: #484848; stroke-width: 3"/>
   </g>
   <g id="line2d_7">
    <path d="M 137.655 156.432435 
L 137.655 126.752718 
" clip-path="url(#pef0e5217fe)" style="fill: none; stroke: #484848; stroke-width: 9"/>
   </g>
   <g id="line2d_8">
    <path d="M 343.705 147.328237 
L 343.705 135.277141 
" clip-path="url(#pef0e5217fe)" style="fill: none; stroke: #484848; stroke-width: 3"/>
   </g>
   <g id="line2d_9">
    <path d="M 343.705 140.417663 
L 343.705 135.406207 
" clip-path="url(#pef0e5217fe)" style="fill: none; stroke: #484848; stroke-width: 9"/>
   </g>
   <g id="line2d_10">
    <path d="M 549.755 180.201843 
L 549.755 86.771008 
" clip-path="url(#pef0e5217fe)" style="fill: none; stroke: #484848; stroke-width: 3"/>
   </g>
   <g id="line2d_11">
    <path d="M 549.755 163.366301 
L 549.755 132.120947 
" clip-path="url(#pef0e5217fe)" style="fill: none; stroke: #484848; stroke-width: 9"/>
   </g>
   <g id="line2d_12">
    <path d="M 755.805 167.606124 
L 755.805 107.510098 
" clip-path="url(#pef0e5217fe)" style="fill: none; stroke: #484848; stroke-width: 3"/>
   </g>
   <g id="line2d_13">
    <path d="M 755.805 159.767512 
L 755.805 107.510098 
" clip-path="url(#pef0e5217fe)" style="fill: none; stroke: #484848; stroke-width: 9"/>
   </g>
   <g id="line2d_14">
    <path d="M 961.855 187.659018 
L 961.855 109.232211 
" clip-path="url(#pef0e5217fe)" style="fill: none; stroke: #484848; stroke-width: 3"/>
   </g>
   <g id="line2d_15">
    <path d="M 961.855 158.935824 
L 961.855 138.954472 
" clip-path="url(#pef0e5217fe)" style="fill: none; stroke: #484848; stroke-width: 9"/>
   </g>
   <g id="patch_3">
    <path d="M 34.63 255.8 
L 34.63 43.92 
" style="fill: none; stroke: #ffffff; stroke-width: 3; stroke-linejoin: miter; stroke-linecap: square"/>
   </g>
   <g id="patch_4">
    <path d="M 1064.88 255.8 
L 1064.88 43.92 
" style="fill: none; stroke: #ffffff; stroke-width: 3; stroke-linejoin: miter; stroke-linecap: square"/>
   </g>
   <g id="patch_5">
    <path d="M 34.63 255.8 
L 1064.88 255.8 
" style="fill: none; stroke: #ffffff; stroke-width: 3; stroke-linejoin: miter; stroke-linecap: square"/>
   </g>
   <g id="patch_6">
    <path d="M 34.63 43.92 
L 1064.88 43.92 
" style="fill: none; stroke: #ffffff; stroke-width: 3; stroke-linejoin: miter; stroke-linecap: square"/>
   </g>
   <g id="PathCollection_1">
    <defs>
     <path id="m5b0fab4695" d="M 0 3 
C 0.795609 3 1.55874 2.683901 2.12132 2.12132 
C 2.683901 1.55874 3 0.795609 3 0 
C 3 -0.795609 2.683901 -1.55874 2.12132 -2.12132 
C 1.55874 -2.683901 0.795609 -3 0 -3 
C -0.795609 -3 -1.55874 -2.683901 -2.12132 -2.12132 
C -2.683901 -1.55874 -3 -0.795609 -3 0 
C -3 0.795609 -2.683901 1.55874 -2.12132 2.12132 
C -1.55874 2.683901 -0.795609 3 0 3 
z
" style="stroke: #484848; stroke-width: 0.5"/>
    </defs>
    <g clip-path="url(#pef0e5217fe)">
     <use xlink:href="#m5b0fab4695" x="137.655" y="139.472597" style="fill: #ffffff; stroke: #484848; stroke-width: 0.5"/>
    </g>
   </g>
   <g id="PathCollection_2">
    <g clip-path="url(#pef0e5217fe)">
     <use xlink:href="#m5b0fab4695" x="343.705" y="136.555511" style="fill: #ffffff; stroke: #484848; stroke-width: 0.5"/>
    </g>
   </g>
   <g id="PathCollection_3">
    <g clip-path="url(#pef0e5217fe)">
     <use xlink:href="#m5b0fab4695" x="549.755" y="149.518746" style="fill: #ffffff; stroke: #484848; stroke-width: 0.5"/>
    </g>
   </g>
   <g id="PathCollection_4">
    <g clip-path="url(#pef0e5217fe)">
     <use xlink:href="#m5b0fab4695" x="755.805" y="157.154641" style="fill: #ffffff; stroke: #484848; stroke-width: 0.5"/>
    </g>
   </g>
   <g id="PathCollection_5">
    <g clip-path="url(#pef0e5217fe)">
     <use xlink:href="#m5b0fab4695" x="961.855" y="148.695381" style="fill: #ffffff; stroke: #484848; stroke-width: 0.5"/>
    </g>
   </g>
  </g>
  <g id="text_11">
   <!-- Violin Plot of all Continuous Variables -->
   <g style="fill: #ffffff" transform="translate(416.035547 16.496719) scale(0.15 -0.15)">
    <defs>
     <path id="ArialMT-69" d="M 425 3934 
L 425 4581 
L 988 4581 
L 988 3934 
L 425 3934 
z
M 425 0 
L 425 3319 
L 988 3319 
L 988 0 
L 425 0 
z
" transform="scale(0.015625)"/>
     <path id="ArialMT-6f" d="M 213 1659 
Q 213 2581 725 3025 
Q 1153 3394 1769 3394 
Q 2453 3394 2887 2945 
Q 3322 2497 3322 1706 
Q 3322 1066 3130 698 
Q 2938 331 2570 128 
Q 2203 -75 1769 -75 
Q 1072 -75 642 372 
Q 213 819 213 1659 
z
M 791 1659 
Q 791 1022 1069 705 
Q 1347 388 1769 388 
Q 2188 388 2466 706 
Q 2744 1025 2744 1678 
Q 2744 2294 2464 2611 
Q 2184 2928 1769 2928 
Q 1347 2928 1069 2612 
Q 791 2297 791 1659 
z
" transform="scale(0.015625)"/>
     <path id="ArialMT-6c" d="M 409 0 
L 409 4581 
L 972 4581 
L 972 0 
L 409 0 
z
" transform="scale(0.015625)"/>
     <path id="ArialMT-6e" d="M 422 0 
L 422 3319 
L 928 3319 
L 928 2847 
Q 1294 3394 1984 3394 
Q 2284 3394 2536 3286 
Q 2788 3178 2913 3003 
Q 3038 2828 3088 2588 
Q 3119 2431 3119 2041 
L 3119 0 
L 2556 0 
L 2556 2019 
Q 2556 2363 2490 2533 
Q 2425 2703 2258 2804 
Q 2091 2906 1866 2906 
Q 1506 2906 1245 2678 
Q 984 2450 984 1813 
L 984 0 
L 422 0 
z
" transform="scale(0.015625)"/>
     <path id="ArialMT-20" transform="scale(0.015625)"/>
     <path id="ArialMT-74" d="M 1650 503 
L 1731 6 
Q 1494 -44 1306 -44 
Q 1000 -44 831 53 
Q 663 150 594 308 
Q 525 466 525 972 
L 525 2881 
L 113 2881 
L 113 3319 
L 525 3319 
L 525 4141 
L 1084 4478 
L 1084 3319 
L 1650 3319 
L 1650 2881 
L 1084 2881 
L 1084 941 
Q 1084 700 1114 631 
Q 1144 563 1211 522 
Q 1278 481 1403 481 
Q 1497 481 1650 503 
z
" transform="scale(0.015625)"/>
     <path id="ArialMT-66" d="M 556 0 
L 556 2881 
L 59 2881 
L 59 3319 
L 556 3319 
L 556 3672 
Q 556 4006 616 4169 
Q 697 4388 901 4523 
Q 1106 4659 1475 4659 
Q 1713 4659 2000 4603 
L 1916 4113 
Q 1741 4144 1584 4144 
Q 1328 4144 1222 4034 
Q 1116 3925 1116 3625 
L 1116 3319 
L 1763 3319 
L 1763 2881 
L 1116 2881 
L 1116 0 
L 556 0 
z
" transform="scale(0.015625)"/>
     <path id="ArialMT-61" d="M 2588 409 
Q 2275 144 1986 34 
Q 1697 -75 1366 -75 
Q 819 -75 525 192 
Q 231 459 231 875 
Q 231 1119 342 1320 
Q 453 1522 633 1644 
Q 813 1766 1038 1828 
Q 1203 1872 1538 1913 
Q 2219 1994 2541 2106 
Q 2544 2222 2544 2253 
Q 2544 2597 2384 2738 
Q 2169 2928 1744 2928 
Q 1347 2928 1158 2789 
Q 969 2650 878 2297 
L 328 2372 
Q 403 2725 575 2942 
Q 747 3159 1072 3276 
Q 1397 3394 1825 3394 
Q 2250 3394 2515 3294 
Q 2781 3194 2906 3042 
Q 3031 2891 3081 2659 
Q 3109 2516 3109 2141 
L 3109 1391 
Q 3109 606 3145 398 
Q 3181 191 3288 0 
L 2700 0 
Q 2613 175 2588 409 
z
M 2541 1666 
Q 2234 1541 1622 1453 
Q 1275 1403 1131 1340 
Q 988 1278 909 1158 
Q 831 1038 831 891 
Q 831 666 1001 516 
Q 1172 366 1500 366 
Q 1825 366 2078 508 
Q 2331 650 2450 897 
Q 2541 1088 2541 1459 
L 2541 1666 
z
" transform="scale(0.015625)"/>
     <path id="ArialMT-43" d="M 3763 1606 
L 4369 1453 
Q 4178 706 3683 314 
Q 3188 -78 2472 -78 
Q 1731 -78 1267 223 
Q 803 525 561 1097 
Q 319 1669 319 2325 
Q 319 3041 592 3573 
Q 866 4106 1370 4382 
Q 1875 4659 2481 4659 
Q 3169 4659 3637 4309 
Q 4106 3959 4291 3325 
L 3694 3184 
Q 3534 3684 3231 3912 
Q 2928 4141 2469 4141 
Q 1941 4141 1586 3887 
Q 1231 3634 1087 3207 
Q 944 2781 944 2328 
Q 944 1744 1114 1308 
Q 1284 872 1643 656 
Q 2003 441 2422 441 
Q 2931 441 3284 734 
Q 3638 1028 3763 1606 
z
" transform="scale(0.015625)"/>
     <path id="ArialMT-75" d="M 2597 0 
L 2597 488 
Q 2209 -75 1544 -75 
Q 1250 -75 995 37 
Q 741 150 617 320 
Q 494 491 444 738 
Q 409 903 409 1263 
L 409 3319 
L 972 3319 
L 972 1478 
Q 972 1038 1006 884 
Q 1059 663 1231 536 
Q 1403 409 1656 409 
Q 1909 409 2131 539 
Q 2353 669 2445 892 
Q 2538 1116 2538 1541 
L 2538 3319 
L 3100 3319 
L 3100 0 
L 2597 0 
z
" transform="scale(0.015625)"/>
     <path id="ArialMT-73" d="M 197 991 
L 753 1078 
Q 800 744 1014 566 
Q 1228 388 1613 388 
Q 2000 388 2187 545 
Q 2375 703 2375 916 
Q 2375 1106 2209 1216 
Q 2094 1291 1634 1406 
Q 1016 1563 777 1677 
Q 538 1791 414 1992 
Q 291 2194 291 2438 
Q 291 2659 392 2848 
Q 494 3038 669 3163 
Q 800 3259 1026 3326 
Q 1253 3394 1513 3394 
Q 1903 3394 2198 3281 
Q 2494 3169 2634 2976 
Q 2775 2784 2828 2463 
L 2278 2388 
Q 2241 2644 2061 2787 
Q 1881 2931 1553 2931 
Q 1166 2931 1000 2803 
Q 834 2675 834 2503 
Q 834 2394 903 2306 
Q 972 2216 1119 2156 
Q 1203 2125 1616 2013 
Q 2213 1853 2448 1751 
Q 2684 1650 2818 1456 
Q 2953 1263 2953 975 
Q 2953 694 2789 445 
Q 2625 197 2315 61 
Q 2006 -75 1616 -75 
Q 969 -75 630 194 
Q 291 463 197 991 
z
" transform="scale(0.015625)"/>
     <path id="ArialMT-72" d="M 416 0 
L 416 3319 
L 922 3319 
L 922 2816 
Q 1116 3169 1280 3281 
Q 1444 3394 1641 3394 
Q 1925 3394 2219 3213 
L 2025 2691 
Q 1819 2813 1613 2813 
Q 1428 2813 1281 2702 
Q 1134 2591 1072 2394 
Q 978 2094 978 1738 
L 978 0 
L 416 0 
z
" transform="scale(0.015625)"/>
     <path id="ArialMT-62" d="M 941 0 
L 419 0 
L 419 4581 
L 981 4581 
L 981 2947 
Q 1338 3394 1891 3394 
Q 2197 3394 2470 3270 
Q 2744 3147 2920 2923 
Q 3097 2700 3197 2384 
Q 3297 2069 3297 1709 
Q 3297 856 2875 390 
Q 2453 -75 1863 -75 
Q 1275 -75 941 416 
L 941 0 
z
M 934 1684 
Q 934 1088 1097 822 
Q 1363 388 1816 388 
Q 2184 388 2453 708 
Q 2722 1028 2722 1663 
Q 2722 2313 2464 2622 
Q 2206 2931 1841 2931 
Q 1472 2931 1203 2611 
Q 934 2291 934 1684 
z
" transform="scale(0.015625)"/>
     <path id="ArialMT-65" d="M 2694 1069 
L 3275 997 
Q 3138 488 2766 206 
Q 2394 -75 1816 -75 
Q 1088 -75 661 373 
Q 234 822 234 1631 
Q 234 2469 665 2931 
Q 1097 3394 1784 3394 
Q 2450 3394 2872 2941 
Q 3294 2488 3294 1666 
Q 3294 1616 3291 1516 
L 816 1516 
Q 847 969 1125 678 
Q 1403 388 1819 388 
Q 2128 388 2347 550 
Q 2566 713 2694 1069 
z
M 847 1978 
L 2700 1978 
Q 2663 2397 2488 2606 
Q 2219 2931 1791 2931 
Q 1403 2931 1139 2672 
Q 875 2413 847 1978 
z
" transform="scale(0.015625)"/>
    </defs>
    <use xlink:href="#ArialMT-56"/>
    <use xlink:href="#ArialMT-69" x="64.949219"/>
    <use xlink:href="#ArialMT-6f" x="87.166016"/>
    <use xlink:href="#ArialMT-6c" x="142.78125"/>
    <use xlink:href="#ArialMT-69" x="164.998047"/>
    <use xlink:href="#ArialMT-6e" x="187.214844"/>
    <use xlink:href="#ArialMT-20" x="242.830078"/>
    <use xlink:href="#ArialMT-50" x="270.613281"/>
    <use xlink:href="#ArialMT-6c" x="337.3125"/>
    <use xlink:href="#ArialMT-6f" x="359.529297"/>
    <use xlink:href="#ArialMT-74" x="415.144531"/>
    <use xlink:href="#ArialMT-20" x="442.927734"/>
    <use xlink:href="#ArialMT-6f" x="470.710938"/>
    <use xlink:href="#ArialMT-66" x="526.326172"/>
    <use xlink:href="#ArialMT-20" x="554.109375"/>
    <use xlink:href="#ArialMT-61" x="581.892578"/>
    <use xlink:href="#ArialMT-6c" x="637.507812"/>
    <use xlink:href="#ArialMT-6c" x="659.724609"/>
    <use xlink:href="#ArialMT-20" x="681.941406"/>
    <use xlink:href="#ArialMT-43" x="709.724609"/>
    <use xlink:href="#ArialMT-6f" x="781.941406"/>
    <use xlink:href="#ArialMT-6e" x="837.556641"/>
    <use xlink:href="#ArialMT-74" x="893.171875"/>
    <use xlink:href="#ArialMT-69" x="920.955078"/>
    <use xlink:href="#ArialMT-6e" x="943.171875"/>
    <use xlink:href="#ArialMT-75" x="998.787109"/>
    <use xlink:href="#ArialMT-6f" x="1054.402344"/>
    <use xlink:href="#ArialMT-75" x="1110.017578"/>
    <use xlink:href="#ArialMT-73" x="1165.632812"/>
    <use xlink:href="#ArialMT-20" x="1215.632812"/>
    <use xlink:href="#ArialMT-56" x="1243.416016"/>
    <use xlink:href="#ArialMT-61" x="1302.740234"/>
    <use xlink:href="#ArialMT-72" x="1358.355469"/>
    <use xlink:href="#ArialMT-69" x="1391.65625"/>
    <use xlink:href="#ArialMT-61" x="1413.873047"/>
    <use xlink:href="#ArialMT-62" x="1469.488281"/>
    <use xlink:href="#ArialMT-6c" x="1525.103516"/>
    <use xlink:href="#ArialMT-65" x="1547.320312"/>
    <use xlink:href="#ArialMT-73" x="1602.935547"/>
   </g>
  </g>
 </g>
 <defs>
  <clipPath id="pef0e5217fe">
   <rect x="34.63" y="43.92" width="1030.25" height="211.88"/>
  </clipPath>
 </defs>
</svg>
