<?xml version="1.0" encoding="utf-8" standalone="no"?>
<!DOCTYPE svg PUBLIC "-//W3C//DTD SVG 1.1//EN"
  "http://www.w3.org/Graphics/SVG/1.1/DTD/svg11.dtd">
<svg xmlns:xlink="http://www.w3.org/1999/xlink" width="1080pt" height="288pt" viewBox="0 0 1080 288" xmlns="http://www.w3.org/2000/svg" version="1.1">
 <metadata>
  <rdf:RDF xmlns:dc="http://purl.org/dc/elements/1.1/" xmlns:cc="http://creativecommons.org/ns#" xmlns:rdf="http://www.w3.org/1999/02/22-rdf-syntax-ns#">
   <cc:Work>
    <dc:type rdf:resource="http://purl.org/dc/dcmitype/StillImage"/>
    <dc:date>2023-02-17T14:04:11.155612</dc:date>
    <dc:format>image/svg+xml</dc:format>
    <dc:creator>
     <cc:Agent>
      <dc:title>Matplotlib v3.6.3, https://matplotlib.org/</dc:title>
     </cc:Agent>
    </dc:creator>
   </cc:Work>
  </rdf:RDF>
 </metadata>
 <defs>
  <style type="text/css">*{stroke-linejoin: round; stroke-linecap: butt}</style>
 </defs>
 <g id="figure_1">
  <g id="patch_1">
   <path d="M 0 288 
L 1080 288 
L 1080 0 
L 0 0 
z
"/>
  </g>
  <g id="axes_1">
   <g id="patch_2">
    <path d="M 34.63 255.8 
L 1064.88 255.8 
L 1064.88 43.92 
L 34.63 43.92 
z
"/>
   </g>
   <g id="matplotlib.axis_1">
    <g id="xtick_1">
     <g id="text_1">
      <!-- CRIM -->
      <g style="fill: #ffffff" transform="translate(84.967266 270.673594) scale(0.11 -0.11)">
       <defs>
        <path id="ArialMT-43" d="M 3763 1606 
L 4369 1453 
Q 4178 706 3683 314 
Q 3188 -78 2472 -78 
Q 1731 -78 1267 223 
Q 803 525 561 1097 
Q 319 1669 319 2325 
Q 319 3041 592 3573 
Q 866 4106 1370 4382 
Q 1875 4659 2481 4659 
Q 3169 4659 3637 4309 
Q 4106 3959 4291 3325 
L 3694 3184 
Q 3534 3684 3231 3912 
Q 2928 4141 2469 4141 
Q 1941 4141 1586 3887 
Q 1231 3634 1087 3207 
Q 944 2781 944 2328 
Q 944 1744 1114 1308 
Q 1284 872 1643 656 
Q 2003 441 2422 441 
Q 2931 441 3284 734 
Q 3638 1028 3763 1606 
z
" transform="scale(0.015625)"/>
        <path id="ArialMT-52" d="M 503 0 
L 503 4581 
L 2534 4581 
Q 3147 4581 3465 4457 
Q 3784 4334 3975 4021 
Q 4166 3709 4166 3331 
Q 4166 2844 3850 2509 
Q 3534 2175 2875 2084 
Q 3116 1969 3241 1856 
Q 3506 1613 3744 1247 
L 4541 0 
L 3778 0 
L 3172 953 
Q 2906 1366 2734 1584 
Q 2563 1803 2427 1890 
Q 2291 1978 2150 2013 
Q 2047 2034 1813 2034 
L 1109 2034 
L 1109 0 
L 503 0 
z
M 1109 2559 
L 2413 2559 
Q 2828 2559 3062 2645 
Q 3297 2731 3419 2920 
Q 3541 3109 3541 3331 
Q 3541 3656 3305 3865 
Q 3069 4075 2559 4075 
L 1109 4075 
L 1109 2559 
z
" transform="scale(0.015625)"/>
        <path id="ArialMT-49" d="M 597 0 
L 597 4581 
L 1203 4581 
L 1203 0 
L 597 0 
z
" transform="scale(0.015625)"/>
        <path id="ArialMT-4d" d="M 475 0 
L 475 4581 
L 1388 4581 
L 2472 1338 
Q 2622 884 2691 659 
Q 2769 909 2934 1394 
L 4031 4581 
L 4847 4581 
L 4847 0 
L 4263 0 
L 4263 3834 
L 2931 0 
L 2384 0 
L 1059 3900 
L 1059 0 
L 475 0 
z
" transform="scale(0.015625)"/>
       </defs>
       <use xlink:href="#ArialMT-43"/>
       <use xlink:href="#ArialMT-52" x="72.216797"/>
       <use xlink:href="#ArialMT-49" x="144.433594"/>
       <use xlink:href="#ArialMT-4d" x="172.216797"/>
      </g>
     </g>
    </g>
    <g id="xtick_2">
     <g id="text_2">
      <!-- ZN -->
      <g style="fill: #ffffff" transform="translate(220.470547 270.673594) scale(0.11 -0.11)">
       <defs>
        <path id="ArialMT-5a" d="M 128 0 
L 128 563 
L 2475 3497 
Q 2725 3809 2950 4041 
L 394 4041 
L 394 4581 
L 3675 4581 
L 3675 4041 
L 1103 863 
L 825 541 
L 3750 541 
L 3750 0 
L 128 0 
z
" transform="scale(0.015625)"/>
        <path id="ArialMT-4e" d="M 488 0 
L 488 4581 
L 1109 4581 
L 3516 984 
L 3516 4581 
L 4097 4581 
L 4097 0 
L 3475 0 
L 1069 3600 
L 1069 0 
L 488 0 
z
" transform="scale(0.015625)"/>
       </defs>
       <use xlink:href="#ArialMT-5a"/>
       <use xlink:href="#ArialMT-4e" x="61.083984"/>
      </g>
     </g>
    </g>
    <g id="xtick_3">
     <g id="text_3">
      <!-- INDUS -->
      <g style="fill: #ffffff" transform="translate(339.470391 270.673594) scale(0.11 -0.11)">
       <defs>
        <path id="ArialMT-44" d="M 494 0 
L 494 4581 
L 2072 4581 
Q 2606 4581 2888 4516 
Q 3281 4425 3559 4188 
Q 3922 3881 4101 3404 
Q 4281 2928 4281 2316 
Q 4281 1794 4159 1391 
Q 4038 988 3847 723 
Q 3656 459 3429 307 
Q 3203 156 2883 78 
Q 2563 0 2147 0 
L 494 0 
z
M 1100 541 
L 2078 541 
Q 2531 541 2789 625 
Q 3047 709 3200 863 
Q 3416 1078 3536 1442 
Q 3656 1806 3656 2325 
Q 3656 3044 3420 3430 
Q 3184 3816 2847 3947 
Q 2603 4041 2063 4041 
L 1100 4041 
L 1100 541 
z
" transform="scale(0.015625)"/>
        <path id="ArialMT-55" d="M 3500 4581 
L 4106 4581 
L 4106 1934 
Q 4106 1244 3950 837 
Q 3794 431 3386 176 
Q 2978 -78 2316 -78 
Q 1672 -78 1262 144 
Q 853 366 678 786 
Q 503 1206 503 1934 
L 503 4581 
L 1109 4581 
L 1109 1938 
Q 1109 1341 1220 1058 
Q 1331 775 1601 622 
Q 1872 469 2263 469 
Q 2931 469 3215 772 
Q 3500 1075 3500 1938 
L 3500 4581 
z
" transform="scale(0.015625)"/>
        <path id="ArialMT-53" d="M 288 1472 
L 859 1522 
Q 900 1178 1048 958 
Q 1197 738 1509 602 
Q 1822 466 2213 466 
Q 2559 466 2825 569 
Q 3091 672 3220 851 
Q 3350 1031 3350 1244 
Q 3350 1459 3225 1620 
Q 3100 1781 2813 1891 
Q 2628 1963 1997 2114 
Q 1366 2266 1113 2400 
Q 784 2572 623 2826 
Q 463 3081 463 3397 
Q 463 3744 659 4045 
Q 856 4347 1234 4503 
Q 1613 4659 2075 4659 
Q 2584 4659 2973 4495 
Q 3363 4331 3572 4012 
Q 3781 3694 3797 3291 
L 3216 3247 
Q 3169 3681 2898 3903 
Q 2628 4125 2100 4125 
Q 1550 4125 1298 3923 
Q 1047 3722 1047 3438 
Q 1047 3191 1225 3031 
Q 1400 2872 2139 2705 
Q 2878 2538 3153 2413 
Q 3553 2228 3743 1945 
Q 3934 1663 3934 1294 
Q 3934 928 3725 604 
Q 3516 281 3123 101 
Q 2731 -78 2241 -78 
Q 1619 -78 1198 103 
Q 778 284 539 648 
Q 300 1013 288 1472 
z
" transform="scale(0.015625)"/>
       </defs>
       <use xlink:href="#ArialMT-49"/>
       <use xlink:href="#ArialMT-4e" x="27.783203"/>
       <use xlink:href="#ArialMT-44" x="100"/>
       <use xlink:href="#ArialMT-55" x="172.216797"/>
       <use xlink:href="#ArialMT-53" x="244.433594"/>
      </g>
     </g>
    </g>
    <g id="xtick_4">
     <g id="text_4">
      <!-- NOX -->
      <g style="fill: #ffffff" transform="translate(473.445703 270.673594) scale(0.11 -0.11)">
       <defs>
        <path id="ArialMT-4f" d="M 309 2231 
Q 309 3372 921 4017 
Q 1534 4663 2503 4663 
Q 3138 4663 3647 4359 
Q 4156 4056 4423 3514 
Q 4691 2972 4691 2284 
Q 4691 1588 4409 1038 
Q 4128 488 3612 205 
Q 3097 -78 2500 -78 
Q 1853 -78 1343 234 
Q 834 547 571 1087 
Q 309 1628 309 2231 
z
M 934 2222 
Q 934 1394 1379 917 
Q 1825 441 2497 441 
Q 3181 441 3623 922 
Q 4066 1403 4066 2288 
Q 4066 2847 3877 3264 
Q 3688 3681 3323 3911 
Q 2959 4141 2506 4141 
Q 1863 4141 1398 3698 
Q 934 3256 934 2222 
z
" transform="scale(0.015625)"/>
        <path id="ArialMT-58" d="M 28 0 
L 1800 2388 
L 238 4581 
L 959 4581 
L 1791 3406 
Q 2050 3041 2159 2844 
Q 2313 3094 2522 3366 
L 3444 4581 
L 4103 4581 
L 2494 2422 
L 4228 0 
L 3478 0 
L 2325 1634 
Q 2228 1775 2125 1941 
Q 1972 1691 1906 1597 
L 756 0 
L 28 0 
z
" transform="scale(0.015625)"/>
       </defs>
       <use xlink:href="#ArialMT-4e"/>
       <use xlink:href="#ArialMT-4f" x="72.216797"/>
       <use xlink:href="#ArialMT-58" x="150"/>
      </g>
     </g>
    </g>
    <g id="xtick_5">
     <g id="text_5">
      <!-- RM -->
      <g style="fill: #ffffff" transform="translate(605.592266 270.673594) scale(0.11 -0.11)">
       <use xlink:href="#ArialMT-52"/>
       <use xlink:href="#ArialMT-4d" x="72.216797"/>
      </g>
     </g>
    </g>
    <g id="xtick_6">
     <g id="text_6">
      <!-- AGE -->
      <g style="fill: #ffffff" transform="translate(731.311562 270.673594) scale(0.11 -0.11)">
       <defs>
        <path id="ArialMT-41" d="M -9 0 
L 1750 4581 
L 2403 4581 
L 4278 0 
L 3588 0 
L 3053 1388 
L 1138 1388 
L 634 0 
L -9 0 
z
M 1313 1881 
L 2866 1881 
L 2388 3150 
Q 2169 3728 2063 4100 
Q 1975 3659 1816 3225 
L 1313 1881 
z
" transform="scale(0.015625)"/>
        <path id="ArialMT-47" d="M 2638 1797 
L 2638 2334 
L 4578 2338 
L 4578 638 
Q 4131 281 3656 101 
Q 3181 -78 2681 -78 
Q 2006 -78 1454 211 
Q 903 500 622 1047 
Q 341 1594 341 2269 
Q 341 2938 620 3517 
Q 900 4097 1425 4378 
Q 1950 4659 2634 4659 
Q 3131 4659 3532 4498 
Q 3934 4338 4162 4050 
Q 4391 3763 4509 3300 
L 3963 3150 
Q 3859 3500 3706 3700 
Q 3553 3900 3268 4020 
Q 2984 4141 2638 4141 
Q 2222 4141 1919 4014 
Q 1616 3888 1430 3681 
Q 1244 3475 1141 3228 
Q 966 2803 966 2306 
Q 966 1694 1177 1281 
Q 1388 869 1791 669 
Q 2194 469 2647 469 
Q 3041 469 3416 620 
Q 3791 772 3984 944 
L 3984 1797 
L 2638 1797 
z
" transform="scale(0.015625)"/>
        <path id="ArialMT-45" d="M 506 0 
L 506 4581 
L 3819 4581 
L 3819 4041 
L 1113 4041 
L 1113 2638 
L 3647 2638 
L 3647 2100 
L 1113 2100 
L 1113 541 
L 3925 541 
L 3925 0 
L 506 0 
z
" transform="scale(0.015625)"/>
       </defs>
       <use xlink:href="#ArialMT-41"/>
       <use xlink:href="#ArialMT-47" x="66.699219"/>
       <use xlink:href="#ArialMT-45" x="144.482422"/>
      </g>
     </g>
    </g>
    <g id="xtick_7">
     <g id="text_7">
      <!-- DIS -->
      <g style="fill: #ffffff" transform="translate(862.539453 270.673594) scale(0.11 -0.11)">
       <use xlink:href="#ArialMT-44"/>
       <use xlink:href="#ArialMT-49" x="72.216797"/>
       <use xlink:href="#ArialMT-53" x="100"/>
      </g>
     </g>
    </g>
    <g id="xtick_8">
     <g id="text_8">
      <!-- TAX -->
      <g style="fill: #ffffff" transform="translate(990.198359 270.673594) scale(0.11 -0.11)">
       <defs>
        <path id="ArialMT-54" d="M 1659 0 
L 1659 4041 
L 150 4041 
L 150 4581 
L 3781 4581 
L 3781 4041 
L 2266 4041 
L 2266 0 
L 1659 0 
z
" transform="scale(0.015625)"/>
       </defs>
       <use xlink:href="#ArialMT-54"/>
       <use xlink:href="#ArialMT-41" x="53.708984"/>
       <use xlink:href="#ArialMT-58" x="120.408203"/>
      </g>
     </g>
    </g>
   </g>
   <g id="matplotlib.axis_2">
    <g id="ytick_1">
     <g id="line2d_1">
      <path d="M 34.63 239.819156 
L 1064.88 239.819156 
" clip-path="url(#p42e181ce42)" style="fill: none; stroke: #ffffff"/>
     </g>
     <g id="text_9">
      <!-- −4 -->
      <g style="fill: #ffffff" transform="translate(15.088281 243.755953) scale(0.11 -0.11)">
       <defs>
        <path id="ArialMT-2212" d="M 3381 1997 
L 356 1997 
L 356 2522 
L 3381 2522 
L 3381 1997 
z
" transform="scale(0.015625)"/>
        <path id="ArialMT-34" d="M 2069 0 
L 2069 1097 
L 81 1097 
L 81 1613 
L 2172 4581 
L 2631 4581 
L 2631 1613 
L 3250 1613 
L 3250 1097 
L 2631 1097 
L 2631 0 
L 2069 0 
z
M 2069 1613 
L 2069 3678 
L 634 1613 
L 2069 1613 
z
" transform="scale(0.015625)"/>
       </defs>
       <use xlink:href="#ArialMT-2212"/>
       <use xlink:href="#ArialMT-34" x="58.398438"/>
      </g>
     </g>
    </g>
    <g id="ytick_2">
     <g id="line2d_2">
      <path d="M 34.63 213.560189 
L 1064.88 213.560189 
" clip-path="url(#p42e181ce42)" style="fill: none; stroke: #ffffff"/>
     </g>
     <g id="text_10">
      <!-- −2 -->
      <g style="fill: #ffffff" transform="translate(15.088281 217.496986) scale(0.11 -0.11)">
       <defs>
        <path id="ArialMT-32" d="M 3222 541 
L 3222 0 
L 194 0 
Q 188 203 259 391 
Q 375 700 629 1000 
Q 884 1300 1366 1694 
Q 2113 2306 2375 2664 
Q 2638 3022 2638 3341 
Q 2638 3675 2398 3904 
Q 2159 4134 1775 4134 
Q 1369 4134 1125 3890 
Q 881 3647 878 3216 
L 300 3275 
Q 359 3922 746 4261 
Q 1134 4600 1788 4600 
Q 2447 4600 2831 4234 
Q 3216 3869 3216 3328 
Q 3216 3053 3103 2787 
Q 2991 2522 2730 2228 
Q 2469 1934 1863 1422 
Q 1356 997 1212 845 
Q 1069 694 975 541 
L 3222 541 
z
" transform="scale(0.015625)"/>
       </defs>
       <use xlink:href="#ArialMT-2212"/>
       <use xlink:href="#ArialMT-32" x="58.398438"/>
      </g>
     </g>
    </g>
    <g id="ytick_3">
     <g id="line2d_3">
      <path d="M 34.63 187.301222 
L 1064.88 187.301222 
" clip-path="url(#p42e181ce42)" style="fill: none; stroke: #ffffff"/>
     </g>
     <g id="text_11">
      <!-- 0 -->
      <g style="fill: #ffffff" transform="translate(21.512969 191.238019) scale(0.11 -0.11)">
       <defs>
        <path id="ArialMT-30" d="M 266 2259 
Q 266 3072 433 3567 
Q 600 4063 929 4331 
Q 1259 4600 1759 4600 
Q 2128 4600 2406 4451 
Q 2684 4303 2865 4023 
Q 3047 3744 3150 3342 
Q 3253 2941 3253 2259 
Q 3253 1453 3087 958 
Q 2922 463 2592 192 
Q 2263 -78 1759 -78 
Q 1097 -78 719 397 
Q 266 969 266 2259 
z
M 844 2259 
Q 844 1131 1108 757 
Q 1372 384 1759 384 
Q 2147 384 2411 759 
Q 2675 1134 2675 2259 
Q 2675 3391 2411 3762 
Q 2147 4134 1753 4134 
Q 1366 4134 1134 3806 
Q 844 3388 844 2259 
z
" transform="scale(0.015625)"/>
       </defs>
       <use xlink:href="#ArialMT-30"/>
      </g>
     </g>
    </g>
    <g id="ytick_4">
     <g id="line2d_4">
      <path d="M 34.63 161.042255 
L 1064.88 161.042255 
" clip-path="url(#p42e181ce42)" style="fill: none; stroke: #ffffff"/>
     </g>
     <g id="text_12">
      <!-- 2 -->
      <g style="fill: #ffffff" transform="translate(21.512969 164.979052) scale(0.11 -0.11)">
       <use xlink:href="#ArialMT-32"/>
      </g>
     </g>
    </g>
    <g id="ytick_5">
     <g id="line2d_5">
      <path d="M 34.63 134.783288 
L 1064.88 134.783288 
" clip-path="url(#p42e181ce42)" style="fill: none; stroke: #ffffff"/>
     </g>
     <g id="text_13">
      <!-- 4 -->
      <g style="fill: #ffffff" transform="translate(21.512969 138.720085) scale(0.11 -0.11)">
       <use xlink:href="#ArialMT-34"/>
      </g>
     </g>
    </g>
    <g id="ytick_6">
     <g id="line2d_6">
      <path d="M 34.63 108.524321 
L 1064.88 108.524321 
" clip-path="url(#p42e181ce42)" style="fill: none; stroke: #ffffff"/>
     </g>
     <g id="text_14">
      <!-- 6 -->
      <g style="fill: #ffffff" transform="translate(21.512969 112.461118) scale(0.11 -0.11)">
       <defs>
        <path id="ArialMT-36" d="M 3184 3459 
L 2625 3416 
Q 2550 3747 2413 3897 
Q 2184 4138 1850 4138 
Q 1581 4138 1378 3988 
Q 1113 3794 959 3422 
Q 806 3050 800 2363 
Q 1003 2672 1297 2822 
Q 1591 2972 1913 2972 
Q 2475 2972 2870 2558 
Q 3266 2144 3266 1488 
Q 3266 1056 3080 686 
Q 2894 316 2569 119 
Q 2244 -78 1831 -78 
Q 1128 -78 684 439 
Q 241 956 241 2144 
Q 241 3472 731 4075 
Q 1159 4600 1884 4600 
Q 2425 4600 2770 4297 
Q 3116 3994 3184 3459 
z
M 888 1484 
Q 888 1194 1011 928 
Q 1134 663 1356 523 
Q 1578 384 1822 384 
Q 2178 384 2434 671 
Q 2691 959 2691 1453 
Q 2691 1928 2437 2201 
Q 2184 2475 1800 2475 
Q 1419 2475 1153 2201 
Q 888 1928 888 1484 
z
" transform="scale(0.015625)"/>
       </defs>
       <use xlink:href="#ArialMT-36"/>
      </g>
     </g>
    </g>
    <g id="ytick_7">
     <g id="line2d_7">
      <path d="M 34.63 82.265354 
L 1064.88 82.265354 
" clip-path="url(#p42e181ce42)" style="fill: none; stroke: #ffffff"/>
     </g>
     <g id="text_15">
      <!-- 8 -->
      <g style="fill: #ffffff" transform="translate(21.512969 86.202151) scale(0.11 -0.11)">
       <defs>
        <path id="ArialMT-38" d="M 1131 2484 
Q 781 2613 612 2850 
Q 444 3088 444 3419 
Q 444 3919 803 4259 
Q 1163 4600 1759 4600 
Q 2359 4600 2725 4251 
Q 3091 3903 3091 3403 
Q 3091 3084 2923 2848 
Q 2756 2613 2416 2484 
Q 2838 2347 3058 2040 
Q 3278 1734 3278 1309 
Q 3278 722 2862 322 
Q 2447 -78 1769 -78 
Q 1091 -78 675 323 
Q 259 725 259 1325 
Q 259 1772 486 2073 
Q 713 2375 1131 2484 
z
M 1019 3438 
Q 1019 3113 1228 2906 
Q 1438 2700 1772 2700 
Q 2097 2700 2305 2904 
Q 2513 3109 2513 3406 
Q 2513 3716 2298 3927 
Q 2084 4138 1766 4138 
Q 1444 4138 1231 3931 
Q 1019 3725 1019 3438 
z
M 838 1322 
Q 838 1081 952 856 
Q 1066 631 1291 507 
Q 1516 384 1775 384 
Q 2178 384 2440 643 
Q 2703 903 2703 1303 
Q 2703 1709 2433 1975 
Q 2163 2241 1756 2241 
Q 1359 2241 1098 1978 
Q 838 1716 838 1322 
z
" transform="scale(0.015625)"/>
       </defs>
       <use xlink:href="#ArialMT-38"/>
      </g>
     </g>
    </g>
    <g id="ytick_8">
     <g id="line2d_8">
      <path d="M 34.63 56.006387 
L 1064.88 56.006387 
" clip-path="url(#p42e181ce42)" style="fill: none; stroke: #ffffff"/>
     </g>
     <g id="text_16">
      <!-- 10 -->
      <g style="fill: #ffffff" transform="translate(15.395938 59.943184) scale(0.11 -0.11)">
       <defs>
        <path id="ArialMT-31" d="M 2384 0 
L 1822 0 
L 1822 3584 
Q 1619 3391 1289 3197 
Q 959 3003 697 2906 
L 697 3450 
Q 1169 3672 1522 3987 
Q 1875 4303 2022 4600 
L 2384 4600 
L 2384 0 
z
" transform="scale(0.015625)"/>
       </defs>
       <use xlink:href="#ArialMT-31"/>
       <use xlink:href="#ArialMT-30" x="55.615234"/>
      </g>
     </g>
    </g>
   </g>
   <g id="PolyCollection_1">
    <defs>
     <path id="m90d6e4ce83" d="M 104.604895 -87.580524 
L 93.436355 -87.580524 
L 87.48496 -89.064045 
L 78.396751 -90.547566 
L 67.07275 -92.031087 
L 56.062969 -93.514608 
L 48.733214 -94.998129 
L 47.508125 -96.481649 
L 52.430101 -97.96517 
L 61.21691 -99.448691 
L 70.734533 -100.932212 
L 78.645879 -102.415733 
L 84.115384 -103.899254 
L 87.474674 -105.382775 
L 89.493452 -106.866296 
L 90.842628 -108.349816 
L 91.907863 -109.833337 
L 92.83401 -111.316858 
L 93.646961 -112.800379 
L 94.356175 -114.2839 
L 94.994433 -115.767421 
L 95.599623 -117.250942 
L 96.180834 -118.734463 
L 96.71046 -120.217983 
L 97.147552 -121.701504 
L 97.466296 -123.185025 
L 97.667045 -124.668546 
L 97.771146 -126.152067 
L 97.812862 -127.635588 
L 97.833757 -129.119109 
L 97.87488 -130.60263 
L 97.964184 -132.08615 
L 98.105997 -133.569671 
L 98.281846 -135.053192 
L 98.4631 -136.536713 
L 98.625568 -138.020234 
L 98.756117 -139.503755 
L 98.85023 -140.987276 
L 98.906603 -142.470797 
L 98.924297 -143.954317 
L 98.903814 -145.437838 
L 98.850598 -146.921359 
L 98.778052 -148.40488 
L 98.706399 -149.888401 
L 98.655847 -151.371922 
L 98.637747 -152.855443 
L 98.650337 -154.338964 
L 98.682003 -155.822484 
L 98.718741 -157.306005 
L 98.750556 -158.789526 
L 98.774223 -160.273047 
L 98.792162 -161.756568 
L 98.808196 -163.240089 
L 98.82305 -164.72361 
L 98.833823 -166.207131 
L 98.838452 -167.690651 
L 98.840435 -169.174172 
L 98.848024 -170.657693 
L 98.867993 -172.141214 
L 98.900036 -173.624735 
L 98.937034 -175.108256 
L 98.970241 -176.591777 
L 98.994327 -178.075298 
L 99.008742 -179.558818 
L 99.015887 -181.042339 
L 99.018591 -182.52586 
L 99.018524 -184.009381 
L 99.015637 -185.492902 
L 99.008181 -186.976423 
L 98.993307 -188.459944 
L 98.968733 -189.943465 
L 98.93532 -191.426986 
L 98.898819 -192.910506 
L 98.868298 -194.394027 
L 98.850889 -195.877548 
L 98.846605 -197.361069 
L 98.848469 -198.84459 
L 98.8489 -200.328111 
L 98.846844 -201.811632 
L 98.84878 -203.295153 
L 98.862593 -204.778673 
L 98.890303 -206.262194 
L 98.926197 -207.745715 
L 98.961101 -209.229236 
L 98.988113 -210.712757 
L 99.005177 -212.196278 
L 99.013882 -213.679799 
L 99.016715 -215.16332 
L 99.014916 -216.64684 
L 99.007671 -218.130361 
L 98.99265 -219.613882 
L 98.967938 -221.097403 
L 98.934922 -222.580924 
L 98.900341 -224.064445 
L 98.874982 -225.547966 
L 98.868487 -227.031487 
L 98.88352 -228.515007 
L 98.91403 -229.998528 
L 98.949128 -231.482049 
L 98.979253 -232.96557 
L 98.999972 -234.449091 
L 99.041278 -234.449091 
L 99.041278 -234.449091 
L 99.061997 -232.96557 
L 99.092122 -231.482049 
L 99.12722 -229.998528 
L 99.15773 -228.515007 
L 99.172763 -227.031487 
L 99.166268 -225.547966 
L 99.140909 -224.064445 
L 99.106328 -222.580924 
L 99.073312 -221.097403 
L 99.0486 -219.613882 
L 99.033579 -218.130361 
L 99.026334 -216.64684 
L 99.024535 -215.16332 
L 99.027368 -213.679799 
L 99.036073 -212.196278 
L 99.053137 -210.712757 
L 99.080149 -209.229236 
L 99.115053 -207.745715 
L 99.150947 -206.262194 
L 99.178657 -204.778673 
L 99.19247 -203.295153 
L 99.194406 -201.811632 
L 99.19235 -200.328111 
L 99.192781 -198.84459 
L 99.194645 -197.361069 
L 99.190361 -195.877548 
L 99.172952 -194.394027 
L 99.142431 -192.910506 
L 99.10593 -191.426986 
L 99.072517 -189.943465 
L 99.047943 -188.459944 
L 99.033069 -186.976423 
L 99.025613 -185.492902 
L 99.022726 -184.009381 
L 99.022659 -182.52586 
L 99.025363 -181.042339 
L 99.032508 -179.558818 
L 99.046923 -178.075298 
L 99.071009 -176.591777 
L 99.104216 -175.108256 
L 99.141214 -173.624735 
L 99.173257 -172.141214 
L 99.193226 -170.657693 
L 99.200815 -169.174172 
L 99.202798 -167.690651 
L 99.207427 -166.207131 
L 99.2182 -164.72361 
L 99.233054 -163.240089 
L 99.249088 -161.756568 
L 99.267027 -160.273047 
L 99.290694 -158.789526 
L 99.322509 -157.306005 
L 99.359247 -155.822484 
L 99.390913 -154.338964 
L 99.403503 -152.855443 
L 99.385403 -151.371922 
L 99.334851 -149.888401 
L 99.263198 -148.40488 
L 99.190652 -146.921359 
L 99.137436 -145.437838 
L 99.116953 -143.954317 
L 99.134647 -142.470797 
L 99.19102 -140.987276 
L 99.285133 -139.503755 
L 99.415682 -138.020234 
L 99.57815 -136.536713 
L 99.759404 -135.053192 
L 99.935253 -133.569671 
L 100.077066 -132.08615 
L 100.16637 -130.60263 
L 100.207493 -129.119109 
L 100.228388 -127.635588 
L 100.270104 -126.152067 
L 100.374205 -124.668546 
L 100.574954 -123.185025 
L 100.893698 -121.701504 
L 101.33079 -120.217983 
L 101.860416 -118.734463 
L 102.441627 -117.250942 
L 103.046817 -115.767421 
L 103.685075 -114.2839 
L 104.394289 -112.800379 
L 105.20724 -111.316858 
L 106.133387 -109.833337 
L 107.198622 -108.349816 
L 108.547798 -106.866296 
L 110.566576 -105.382775 
L 113.925866 -103.899254 
L 119.395371 -102.415733 
L 127.306717 -100.932212 
L 136.82434 -99.448691 
L 145.611149 -97.96517 
L 150.533125 -96.481649 
L 149.308036 -94.998129 
L 141.978281 -93.514608 
L 130.9685 -92.031087 
L 119.644499 -90.547566 
L 110.55629 -89.064045 
L 104.604895 -87.580524 
z
" style="stroke: #3e3e3e; stroke-width: 3"/>
    </defs>
    <g clip-path="url(#p42e181ce42)">
     <use xlink:href="#m90d6e4ce83" x="0" y="288" style="fill: #cb3335; stroke: #3e3e3e; stroke-width: 3"/>
    </g>
   </g>
   <g id="PolyCollection_2">
    <defs>
     <path id="m9c8d0efba3" d="M 234.748404 -86.590863 
L 220.855346 -86.590863 
L 217.823991 -87.324618 
L 213.97796 -88.058374 
L 209.328316 -88.792129 
L 203.989425 -89.525885 
L 198.194349 -90.25964 
L 192.291102 -90.993395 
L 186.715189 -91.727151 
L 181.939186 -92.460906 
L 178.406371 -93.194661 
L 176.460879 -93.928417 
L 176.289375 -94.662172 
L 177.887789 -95.395927 
L 181.061146 -96.129683 
L 185.456664 -96.863438 
L 190.622292 -97.597193 
L 196.077313 -98.330949 
L 201.379981 -99.064704 
L 206.179564 -99.79846 
L 210.245489 -100.532215 
L 213.472473 -101.26597 
L 215.865821 -101.999726 
L 217.514109 -102.733481 
L 218.557034 -103.467236 
L 219.154928 -104.200992 
L 219.464073 -104.934747 
L 219.619635 -105.668502 
L 219.726209 -106.402258 
L 219.854866 -107.136013 
L 220.045153 -107.869768 
L 220.310384 -108.603524 
L 220.644692 -109.337279 
L 221.030486 -110.071035 
L 221.445245 -110.80479 
L 221.866864 -111.538545 
L 222.277197 -112.272301 
L 222.663771 -113.006056 
L 223.01998 -113.739811 
L 223.344221 -114.473567 
L 223.638486 -115.207322 
L 223.906815 -115.941077 
L 224.15391 -116.674833 
L 224.384062 -117.408588 
L 224.600443 -118.142343 
L 224.804781 -118.876099 
L 224.997402 -119.609854 
L 225.177586 -120.343609 
L 225.344159 -121.077365 
L 225.496179 -121.81112 
L 225.633555 -122.544876 
L 225.757421 -123.278631 
L 225.870146 -124.012386 
L 225.974964 -124.746142 
L 226.075275 -125.479897 
L 226.1738 -126.213652 
L 226.271773 -126.947408 
L 226.368369 -127.681163 
L 226.460502 -128.414918 
L 226.543013 -129.148674 
L 226.609232 -129.882429 
L 226.651799 -130.616184 
L 226.663617 -131.34994 
L 226.638816 -132.083695 
L 226.573628 -132.817451 
L 226.467105 -133.551206 
L 226.32162 -134.284961 
L 226.143084 -135.018717 
L 225.940818 -135.752472 
L 225.727003 -136.486227 
L 225.515691 -137.219983 
L 225.321405 -137.953738 
L 225.157502 -138.687493 
L 225.034562 -139.421249 
L 224.959102 -140.155004 
L 224.932938 -140.888759 
L 224.95334 -141.622515 
L 225.013968 -142.35627 
L 225.106384 -143.090026 
L 225.221756 -143.823781 
L 225.352366 -144.557536 
L 225.492593 -145.291292 
L 225.639208 -146.025047 
L 225.79102 -146.758802 
L 225.948066 -147.492558 
L 226.110641 -148.226313 
L 226.278443 -148.960068 
L 226.450043 -149.693824 
L 226.622757 -150.427579 
L 226.79289 -151.161334 
L 226.956239 -151.89509 
L 227.108688 -152.628845 
L 227.246754 -153.3626 
L 227.367982 -154.096356 
L 227.471135 -154.830111 
L 227.556178 -155.563867 
L 227.624107 -156.297622 
L 227.676676 -157.031377 
L 227.716091 -157.765133 
L 227.744722 -158.498888 
L 227.764868 -159.232643 
L 227.838882 -159.232643 
L 227.838882 -159.232643 
L 227.859028 -158.498888 
L 227.887659 -157.765133 
L 227.927074 -157.031377 
L 227.979643 -156.297622 
L 228.047572 -155.563867 
L 228.132615 -154.830111 
L 228.235768 -154.096356 
L 228.356996 -153.3626 
L 228.495062 -152.628845 
L 228.647511 -151.89509 
L 228.81086 -151.161334 
L 228.980993 -150.427579 
L 229.153707 -149.693824 
L 229.325307 -148.960068 
L 229.493109 -148.226313 
L 229.655684 -147.492558 
L 229.81273 -146.758802 
L 229.964542 -146.025047 
L 230.111157 -145.291292 
L 230.251384 -144.557536 
L 230.381994 -143.823781 
L 230.497366 -143.090026 
L 230.589782 -142.35627 
L 230.65041 -141.622515 
L 230.670812 -140.888759 
L 230.644648 -140.155004 
L 230.569188 -139.421249 
L 230.446248 -138.687493 
L 230.282345 -137.953738 
L 230.088059 -137.219983 
L 229.876747 -136.486227 
L 229.662932 -135.752472 
L 229.460666 -135.018717 
L 229.28213 -134.284961 
L 229.136645 -133.551206 
L 229.030122 -132.817451 
L 228.964934 -132.083695 
L 228.940133 -131.34994 
L 228.951951 -130.616184 
L 228.994518 -129.882429 
L 229.060737 -129.148674 
L 229.143248 -128.414918 
L 229.235381 -127.681163 
L 229.331977 -126.947408 
L 229.42995 -126.213652 
L 229.528475 -125.479897 
L 229.628786 -124.746142 
L 229.733604 -124.012386 
L 229.846329 -123.278631 
L 229.970195 -122.544876 
L 230.107571 -121.81112 
L 230.259591 -121.077365 
L 230.426164 -120.343609 
L 230.606348 -119.609854 
L 230.798969 -118.876099 
L 231.003307 -118.142343 
L 231.219688 -117.408588 
L 231.44984 -116.674833 
L 231.696935 -115.941077 
L 231.965264 -115.207322 
L 232.259529 -114.473567 
L 232.58377 -113.739811 
L 232.939979 -113.006056 
L 233.326553 -112.272301 
L 233.736886 -111.538545 
L 234.158505 -110.80479 
L 234.573264 -110.071035 
L 234.959058 -109.337279 
L 235.293366 -108.603524 
L 235.558597 -107.869768 
L 235.748884 -107.136013 
L 235.877541 -106.402258 
L 235.984115 -105.668502 
L 236.139677 -104.934747 
L 236.448822 -104.200992 
L 237.046716 -103.467236 
L 238.089641 -102.733481 
L 239.737929 -101.999726 
L 242.131277 -101.26597 
L 245.358261 -100.532215 
L 249.424186 -99.79846 
L 254.223769 -99.064704 
L 259.526437 -98.330949 
L 264.981458 -97.597193 
L 270.147086 -96.863438 
L 274.542604 -96.129683 
L 277.715961 -95.395927 
L 279.314375 -94.662172 
L 279.142871 -93.928417 
L 277.197379 -93.194661 
L 273.664564 -92.460906 
L 268.888561 -91.727151 
L 263.312648 -90.993395 
L 257.409401 -90.25964 
L 251.614325 -89.525885 
L 246.275434 -88.792129 
L 241.62579 -88.058374 
L 237.779759 -87.324618 
L 234.748404 -86.590863 
z
" style="stroke: #3e3e3e; stroke-width: 3"/>
    </defs>
    <g clip-path="url(#p42e181ce42)">
     <use xlink:href="#m9c8d0efba3" x="0" y="288" style="fill: #477ca8; stroke: #3e3e3e; stroke-width: 3"/>
    </g>
   </g>
   <g id="PolyCollection_3">
    <defs>
     <path id="m9d7463441f" d="M 357.050289 -72.513266 
L 356.115961 -72.513266 
L 355.851838 -73.199599 
L 355.46814 -73.885931 
L 354.926749 -74.572264 
L 354.18473 -75.258597 
L 353.19675 -75.944929 
L 351.918652 -76.631262 
L 350.311987 -77.317595 
L 348.349074 -78.003927 
L 346.017938 -78.69026 
L 343.326342 -79.376593 
L 340.304174 -80.062925 
L 337.003616 -80.749258 
L 333.496855 -81.435591 
L 329.871513 -82.121923 
L 326.224377 -82.808256 
L 322.654326 -83.494589 
L 319.255461 -84.180921 
L 316.111375 -84.867254 
L 313.291206 -85.553587 
L 310.847733 -86.239919 
L 308.817334 -86.926252 
L 307.221332 -87.612585 
L 306.068053 -88.298917 
L 305.35499 -88.98525 
L 305.070625 -89.671583 
L 305.195778 -90.357915 
L 305.704606 -91.044248 
L 306.565534 -91.730581 
L 307.742461 -92.416913 
L 309.196392 -93.103246 
L 310.887468 -93.789579 
L 312.777094 -94.475911 
L 314.829701 -95.162244 
L 317.013695 -95.848577 
L 319.301261 -96.534909 
L 321.66702 -97.221242 
L 324.085844 -97.907575 
L 326.530401 -98.593907 
L 328.969091 -99.28024 
L 331.364902 -99.966573 
L 333.675375 -100.652905 
L 335.853469 -101.339238 
L 337.848715 -102.02557 
L 339.607966 -102.711903 
L 341.075183 -103.398236 
L 342.190234 -104.084568 
L 342.887344 -104.770901 
L 343.094541 -105.457234 
L 342.73578 -106.143566 
L 341.737321 -106.829899 
L 340.039111 -107.516232 
L 337.610599 -108.202564 
L 334.468765 -108.888897 
L 330.694645 -109.57523 
L 326.443832 -110.261562 
L 321.946688 -110.947895 
L 317.495536 -111.634228 
L 313.418704 -112.32056 
L 310.044356 -113.006893 
L 307.659851 -113.693226 
L 306.473955 -114.379558 
L 306.589197 -115.065891 
L 307.989743 -115.752224 
L 310.546975 -116.438556 
L 314.041206 -117.124889 
L 318.194754 -117.811222 
L 322.70964 -118.497554 
L 327.302983 -119.183887 
L 331.734507 -119.87022 
L 335.823023 -120.556552 
L 339.451462 -121.242885 
L 342.56233 -121.929218 
L 345.146871 -122.61555 
L 347.231549 -123.301883 
L 348.864895 -123.988216 
L 350.106724 -124.674548 
L 351.020487 -125.360881 
L 351.668587 -126.047214 
L 352.10988 -126.733546 
L 352.39847 -127.419879 
L 352.583016 -128.106212 
L 352.706132 -128.792544 
L 352.803723 -129.478877 
L 352.904361 -130.16521 
L 353.028854 -130.851542 
L 353.190189 -131.537875 
L 353.393916 -132.224208 
L 353.638991 -132.91054 
L 353.919004 -133.596873 
L 354.223676 -134.283205 
L 354.540506 -134.969538 
L 354.856389 -135.655871 
L 355.159077 -136.342203 
L 355.438339 -137.028536 
L 355.68673 -137.714869 
L 355.89991 -138.401201 
L 356.076565 -139.087534 
L 356.217965 -139.773867 
L 356.327324 -140.460199 
L 356.838926 -140.460199 
L 356.838926 -140.460199 
L 356.948285 -139.773867 
L 357.089685 -139.087534 
L 357.26634 -138.401201 
L 357.47952 -137.714869 
L 357.727911 -137.028536 
L 358.007173 -136.342203 
L 358.309861 -135.655871 
L 358.625744 -134.969538 
L 358.942574 -134.283205 
L 359.247246 -133.596873 
L 359.527259 -132.91054 
L 359.772334 -132.224208 
L 359.976061 -131.537875 
L 360.137396 -130.851542 
L 360.261889 -130.16521 
L 360.362527 -129.478877 
L 360.460118 -128.792544 
L 360.583234 -128.106212 
L 360.76778 -127.419879 
L 361.05637 -126.733546 
L 361.497663 -126.047214 
L 362.145763 -125.360881 
L 363.059526 -124.674548 
L 364.301355 -123.988216 
L 365.934701 -123.301883 
L 368.019379 -122.61555 
L 370.60392 -121.929218 
L 373.714788 -121.242885 
L 377.343227 -120.556552 
L 381.431743 -119.87022 
L 385.863267 -119.183887 
L 390.45661 -118.497554 
L 394.971496 -117.811222 
L 399.125044 -117.124889 
L 402.619275 -116.438556 
L 405.176507 -115.752224 
L 406.577053 -115.065891 
L 406.692295 -114.379558 
L 405.506399 -113.693226 
L 403.121894 -113.006893 
L 399.747546 -112.32056 
L 395.670714 -111.634228 
L 391.219562 -110.947895 
L 386.722418 -110.261562 
L 382.471605 -109.57523 
L 378.697485 -108.888897 
L 375.555651 -108.202564 
L 373.127139 -107.516232 
L 371.428929 -106.829899 
L 370.43047 -106.143566 
L 370.071709 -105.457234 
L 370.278906 -104.770901 
L 370.976016 -104.084568 
L 372.091067 -103.398236 
L 373.558284 -102.711903 
L 375.317535 -102.02557 
L 377.312781 -101.339238 
L 379.490875 -100.652905 
L 381.801348 -99.966573 
L 384.197159 -99.28024 
L 386.635849 -98.593907 
L 389.080406 -97.907575 
L 391.49923 -97.221242 
L 393.864989 -96.534909 
L 396.152555 -95.848577 
L 398.336549 -95.162244 
L 400.389156 -94.475911 
L 402.278782 -93.789579 
L 403.969858 -93.103246 
L 405.423789 -92.416913 
L 406.600716 -91.730581 
L 407.461644 -91.044248 
L 407.970472 -90.357915 
L 408.095625 -89.671583 
L 407.81126 -88.98525 
L 407.098197 -88.298917 
L 405.944918 -87.612585 
L 404.348916 -86.926252 
L 402.318517 -86.239919 
L 399.875044 -85.553587 
L 397.054875 -84.867254 
L 393.910789 -84.180921 
L 390.511924 -83.494589 
L 386.941873 -82.808256 
L 383.294737 -82.121923 
L 379.669395 -81.435591 
L 376.162634 -80.749258 
L 372.862076 -80.062925 
L 369.839908 -79.376593 
L 367.148312 -78.69026 
L 364.817176 -78.003927 
L 362.854263 -77.317595 
L 361.247598 -76.631262 
L 359.9695 -75.944929 
L 358.98152 -75.258597 
L 358.239501 -74.572264 
L 357.69811 -73.885931 
L 357.314412 -73.199599 
L 357.050289 -72.513266 
z
" style="stroke: #3e3e3e; stroke-width: 3"/>
    </defs>
    <g clip-path="url(#p42e181ce42)">
     <use xlink:href="#m9d7463441f" x="0" y="288" style="fill: #59a257; stroke: #3e3e3e; stroke-width: 3"/>
    </g>
   </g>
   <g id="PolyCollection_4">
    <defs>
     <path id="m6cd9b4a88e" d="M 486.172316 -74.255514 
L 484.556434 -74.255514 
L 484.104901 -74.960079 
L 483.455494 -75.664644 
L 482.550316 -76.369209 
L 481.327455 -77.073774 
L 479.726175 -77.778339 
L 477.693843 -78.482904 
L 475.194035 -79.187469 
L 472.214923 -79.892034 
L 468.776727 -80.596599 
L 464.936902 -81.301164 
L 460.791782 -82.005729 
L 456.473708 -82.710294 
L 452.14318 -83.414859 
L 447.976249 -84.119424 
L 444.148192 -84.823989 
L 440.815254 -85.528554 
L 438.096947 -86.233119 
L 436.06169 -86.937684 
L 434.718421 -87.642249 
L 434.016115 -88.346814 
L 433.851875 -89.051379 
L 434.086703 -89.755943 
L 434.566501 -90.460508 
L 435.14473 -91.165073 
L 435.702726 -91.869638 
L 436.164143 -92.574203 
L 436.501199 -93.278768 
L 436.732069 -93.983333 
L 436.910524 -94.687898 
L 437.110289 -95.392463 
L 437.407429 -96.097028 
L 437.864164 -96.801593 
L 438.517025 -97.506158 
L 439.371232 -98.210723 
L 440.401911 -98.915288 
L 441.561413 -99.619853 
L 442.790833 -100.324418 
L 444.033045 -101.028983 
L 445.244351 -101.733548 
L 446.402226 -102.438113 
L 447.507622 -103.142678 
L 448.581554 -103.847243 
L 449.657045 -104.551808 
L 450.768462 -105.256373 
L 451.940797 -105.960937 
L 453.181245 -106.665502 
L 454.474775 -107.370067 
L 455.784442 -108.074632 
L 457.056158 -108.779197 
L 458.226853 -109.483762 
L 459.234478 -110.188327 
L 460.028138 -110.892892 
L 460.576788 -111.597457 
L 460.875246 -112.302022 
L 460.946724 -113.006587 
L 460.841535 -113.711152 
L 460.632147 -114.415717 
L 460.405232 -115.120282 
L 460.251761 -115.824847 
L 460.256536 -116.529412 
L 460.488659 -117.233977 
L 460.994312 -117.938542 
L 461.79285 -118.643107 
L 462.876636 -119.347672 
L 464.214343 -120.052237 
L 465.756881 -120.756802 
L 467.44465 -121.461367 
L 469.214754 -122.165931 
L 471.007002 -122.870496 
L 472.767928 -123.575061 
L 474.452646 -124.279626 
L 476.024827 -124.984191 
L 477.455439 -125.688756 
L 478.721046 -126.393321 
L 479.802391 -127.097886 
L 480.683792 -127.802451 
L 481.353584 -128.507016 
L 481.805564 -129.211581 
L 482.041124 -129.916146 
L 482.071556 -130.620711 
L 481.919915 -131.325276 
L 481.621771 -132.029841 
L 481.224296 -132.734406 
L 480.783398 -133.438971 
L 480.358957 -134.143536 
L 480.008694 -134.848101 
L 479.781583 -135.552666 
L 479.712003 -136.257231 
L 479.815753 -136.961796 
L 480.088768 -137.666361 
L 480.508827 -138.370925 
L 481.039867 -139.07549 
L 481.638024 -139.780055 
L 482.258161 -140.48462 
L 482.859699 -141.189185 
L 483.410808 -141.89375 
L 483.890528 -142.598315 
L 484.288856 -143.30288 
L 484.605233 -144.007445 
L 486.123517 -144.007445 
L 486.123517 -144.007445 
L 486.439894 -143.30288 
L 486.838222 -142.598315 
L 487.317942 -141.89375 
L 487.869051 -141.189185 
L 488.470589 -140.48462 
L 489.090726 -139.780055 
L 489.688883 -139.07549 
L 490.219923 -138.370925 
L 490.639982 -137.666361 
L 490.912997 -136.961796 
L 491.016747 -136.257231 
L 490.947167 -135.552666 
L 490.720056 -134.848101 
L 490.369793 -134.143536 
L 489.945352 -133.438971 
L 489.504454 -132.734406 
L 489.106979 -132.029841 
L 488.808835 -131.325276 
L 488.657194 -130.620711 
L 488.687626 -129.916146 
L 488.923186 -129.211581 
L 489.375166 -128.507016 
L 490.044958 -127.802451 
L 490.926359 -127.097886 
L 492.007704 -126.393321 
L 493.273311 -125.688756 
L 494.703923 -124.984191 
L 496.276104 -124.279626 
L 497.960822 -123.575061 
L 499.721748 -122.870496 
L 501.513996 -122.165931 
L 503.2841 -121.461367 
L 504.971869 -120.756802 
L 506.514407 -120.052237 
L 507.852114 -119.347672 
L 508.9359 -118.643107 
L 509.734438 -117.938542 
L 510.240091 -117.233977 
L 510.472214 -116.529412 
L 510.476989 -115.824847 
L 510.323518 -115.120282 
L 510.096603 -114.415717 
L 509.887215 -113.711152 
L 509.782026 -113.006587 
L 509.853504 -112.302022 
L 510.151962 -111.597457 
L 510.700612 -110.892892 
L 511.494272 -110.188327 
L 512.501897 -109.483762 
L 513.672592 -108.779197 
L 514.944308 -108.074632 
L 516.253975 -107.370067 
L 517.547505 -106.665502 
L 518.787953 -105.960937 
L 519.960288 -105.256373 
L 521.071705 -104.551808 
L 522.147196 -103.847243 
L 523.221128 -103.142678 
L 524.326524 -102.438113 
L 525.484399 -101.733548 
L 526.695705 -101.028983 
L 527.937917 -100.324418 
L 529.167337 -99.619853 
L 530.326839 -98.915288 
L 531.357518 -98.210723 
L 532.211725 -97.506158 
L 532.864586 -96.801593 
L 533.321321 -96.097028 
L 533.618461 -95.392463 
L 533.818226 -94.687898 
L 533.996681 -93.983333 
L 534.227551 -93.278768 
L 534.564607 -92.574203 
L 535.026024 -91.869638 
L 535.58402 -91.165073 
L 536.162249 -90.460508 
L 536.642047 -89.755943 
L 536.876875 -89.051379 
L 536.712635 -88.346814 
L 536.010329 -87.642249 
L 534.66706 -86.937684 
L 532.631803 -86.233119 
L 529.913496 -85.528554 
L 526.580558 -84.823989 
L 522.752501 -84.119424 
L 518.58557 -83.414859 
L 514.255042 -82.710294 
L 509.936968 -82.005729 
L 505.791848 -81.301164 
L 501.952023 -80.596599 
L 498.513827 -79.892034 
L 495.534715 -79.187469 
L 493.034907 -78.482904 
L 491.002575 -77.778339 
L 489.401295 -77.073774 
L 488.178434 -76.369209 
L 487.273256 -75.664644 
L 486.623849 -74.960079 
L 486.172316 -74.255514 
z
" style="stroke: #3e3e3e; stroke-width: 3"/>
    </defs>
    <g clip-path="url(#p42e181ce42)">
     <use xlink:href="#m6cd9b4a88e" x="0" y="288" style="fill: #905998; stroke: #3e3e3e; stroke-width: 3"/>
    </g>
   </g>
   <g id="PolyCollection_5">
    <defs>
     <path id="mbd82f7feee" d="M 614.188533 -41.830909 
L 614.102717 -41.830909 
L 614.070566 -42.976599 
L 614.024767 -44.122289 
L 613.966022 -45.267979 
L 613.898326 -46.413669 
L 613.82836 -47.559359 
L 613.763493 -48.705048 
L 613.709298 -49.850738 
L 613.667958 -50.996428 
L 613.638429 -52.142118 
L 613.618066 -53.287808 
L 613.604509 -54.433498 
L 613.596693 -55.579188 
L 613.594603 -56.724878 
L 613.598108 -57.870568 
L 613.605334 -59.016258 
L 613.611073 -60.161947 
L 613.605948 -61.307637 
L 613.577187 -62.453327 
L 613.511301 -63.599017 
L 613.397508 -64.744707 
L 613.229607 -65.890397 
L 613.004677 -67.036087 
L 612.719503 -68.181777 
L 612.368362 -69.327467 
L 611.945761 -70.473156 
L 611.453907 -71.618846 
L 610.909239 -72.764536 
L 610.34006 -73.910226 
L 609.771616 -75.055916 
L 609.204125 -76.201606 
L 608.596502 -77.347296 
L 607.867308 -78.492986 
L 606.914347 -79.638676 
L 605.642177 -80.784366 
L 603.981914 -81.930055 
L 601.893702 -83.075745 
L 599.354807 -84.221435 
L 596.346451 -85.367125 
L 592.853914 -86.512815 
L 588.886641 -87.658505 
L 584.512757 -88.804195 
L 579.891303 -89.949885 
L 575.281175 -91.095575 
L 571.012072 -92.241264 
L 567.419471 -93.386954 
L 564.765384 -94.532644 
L 563.177511 -95.678334 
L 562.633125 -96.824024 
L 562.993061 -97.969714 
L 564.067529 -99.115404 
L 565.682082 -100.261094 
L 567.715272 -101.406784 
L 570.096684 -102.552474 
L 572.775848 -103.698163 
L 575.686847 -104.843853 
L 578.732013 -105.989543 
L 581.792493 -107.135233 
L 584.755172 -108.280923 
L 587.537202 -109.426613 
L 590.095135 -110.572303 
L 592.418381 -111.717993 
L 594.515888 -112.863683 
L 596.405656 -114.009373 
L 598.111045 -115.155062 
L 599.661457 -116.300752 
L 601.09187 -117.446442 
L 602.437033 -118.592132 
L 603.720437 -119.737822 
L 604.942889 -120.883512 
L 606.077768 -122.029202 
L 607.078153 -123.174892 
L 607.89548 -124.320582 
L 608.502796 -125.466271 
L 608.911733 -126.611961 
L 609.174045 -127.757651 
L 609.365624 -128.903341 
L 609.560019 -130.049031 
L 609.804124 -131.194721 
L 610.107426 -132.340411 
L 610.448687 -133.486101 
L 610.794672 -134.631791 
L 611.119748 -135.777481 
L 611.416006 -136.92317 
L 611.69008 -138.06886 
L 611.951143 -139.21455 
L 612.199607 -140.36024 
L 612.424691 -141.50593 
L 612.612225 -142.65162 
L 612.756611 -143.79731 
L 612.867988 -144.943 
L 612.969284 -146.08869 
L 613.085015 -147.234379 
L 613.229097 -148.380069 
L 613.398948 -149.525759 
L 613.578419 -150.671449 
L 613.746562 -151.817139 
L 613.886614 -152.962829 
L 613.990888 -154.108519 
L 614.060646 -155.254209 
L 614.230604 -155.254209 
L 614.230604 -155.254209 
L 614.300362 -154.108519 
L 614.404636 -152.962829 
L 614.544688 -151.817139 
L 614.712831 -150.671449 
L 614.892302 -149.525759 
L 615.062153 -148.380069 
L 615.206235 -147.234379 
L 615.321966 -146.08869 
L 615.423262 -144.943 
L 615.534639 -143.79731 
L 615.679025 -142.65162 
L 615.866559 -141.50593 
L 616.091643 -140.36024 
L 616.340107 -139.21455 
L 616.60117 -138.06886 
L 616.875244 -136.92317 
L 617.171502 -135.777481 
L 617.496578 -134.631791 
L 617.842563 -133.486101 
L 618.183824 -132.340411 
L 618.487126 -131.194721 
L 618.731231 -130.049031 
L 618.925626 -128.903341 
L 619.117205 -127.757651 
L 619.379517 -126.611961 
L 619.788454 -125.466271 
L 620.39577 -124.320582 
L 621.213097 -123.174892 
L 622.213482 -122.029202 
L 623.348361 -120.883512 
L 624.570813 -119.737822 
L 625.854217 -118.592132 
L 627.19938 -117.446442 
L 628.629793 -116.300752 
L 630.180205 -115.155062 
L 631.885594 -114.009373 
L 633.775362 -112.863683 
L 635.872869 -111.717993 
L 638.196115 -110.572303 
L 640.754048 -109.426613 
L 643.536078 -108.280923 
L 646.498757 -107.135233 
L 649.559237 -105.989543 
L 652.604403 -104.843853 
L 655.515402 -103.698163 
L 658.194566 -102.552474 
L 660.575978 -101.406784 
L 662.609168 -100.261094 
L 664.223721 -99.115404 
L 665.298189 -97.969714 
L 665.658125 -96.824024 
L 665.113739 -95.678334 
L 663.525866 -94.532644 
L 660.871779 -93.386954 
L 657.279178 -92.241264 
L 653.010075 -91.095575 
L 648.399947 -89.949885 
L 643.778493 -88.804195 
L 639.404609 -87.658505 
L 635.437336 -86.512815 
L 631.944799 -85.367125 
L 628.936443 -84.221435 
L 626.397548 -83.075745 
L 624.309336 -81.930055 
L 622.649073 -80.784366 
L 621.376903 -79.638676 
L 620.423942 -78.492986 
L 619.694748 -77.347296 
L 619.087125 -76.201606 
L 618.519634 -75.055916 
L 617.95119 -73.910226 
L 617.382011 -72.764536 
L 616.837343 -71.618846 
L 616.345489 -70.473156 
L 615.922888 -69.327467 
L 615.571747 -68.181777 
L 615.286573 -67.036087 
L 615.061643 -65.890397 
L 614.893742 -64.744707 
L 614.779949 -63.599017 
L 614.714063 -62.453327 
L 614.685302 -61.307637 
L 614.680177 -60.161947 
L 614.685916 -59.016258 
L 614.693142 -57.870568 
L 614.696647 -56.724878 
L 614.694557 -55.579188 
L 614.686741 -54.433498 
L 614.673184 -53.287808 
L 614.652821 -52.142118 
L 614.623292 -50.996428 
L 614.581952 -49.850738 
L 614.527757 -48.705048 
L 614.46289 -47.559359 
L 614.392924 -46.413669 
L 614.325228 -45.267979 
L 614.266483 -44.122289 
L 614.220684 -42.976599 
L 614.188533 -41.830909 
z
" style="stroke: #3e3e3e; stroke-width: 3"/>
    </defs>
    <g clip-path="url(#p42e181ce42)">
     <use xlink:href="#mbd82f7feee" x="0" y="288" style="fill: #df7f20; stroke: #3e3e3e; stroke-width: 3"/>
    </g>
   </g>
   <g id="PolyCollection_6">
    <defs>
     <path id="mf230e1a573" d="M 743.10404 -62.184653 
L 742.74971 -62.184653 
L 742.668544 -62.802295 
L 742.558572 -63.419937 
L 742.413304 -64.037579 
L 742.226176 -64.655221 
L 741.991038 -65.272864 
L 741.702688 -65.890506 
L 741.357382 -66.508148 
L 740.953233 -67.12579 
L 740.490412 -67.743432 
L 739.971103 -68.361075 
L 739.399193 -68.978717 
L 738.779746 -69.596359 
L 738.118356 -70.214001 
L 737.420502 -70.831643 
L 736.691039 -71.449286 
L 735.933921 -72.066928 
L 735.152195 -72.68457 
L 734.348218 -73.302212 
L 733.524031 -73.919854 
L 732.68175 -74.537497 
L 731.823867 -75.155139 
L 730.95341 -75.772781 
L 730.073972 -76.390423 
L 729.189674 -77.008065 
L 728.30517 -77.625708 
L 727.425796 -78.24335 
L 726.557877 -78.860992 
L 725.709148 -79.478634 
L 724.889165 -80.096276 
L 724.109497 -80.713918 
L 723.383557 -81.331561 
L 722.725935 -81.949203 
L 722.15126 -82.566845 
L 721.672692 -83.184487 
L 721.300293 -83.802129 
L 721.039535 -84.419772 
L 720.890237 -85.037414 
L 720.846104 -85.655056 
L 720.894994 -86.272698 
L 721.019847 -86.89034 
L 721.200163 -87.507983 
L 721.413807 -88.125625 
L 721.638888 -88.743267 
L 721.855487 -89.360909 
L 722.047031 -89.978551 
L 722.201182 -90.596194 
L 722.310181 -91.213836 
L 722.370653 -91.831478 
L 722.382959 -92.44912 
L 722.350198 -93.066762 
L 722.277028 -93.684405 
L 722.168482 -94.302047 
L 722.028898 -94.919689 
L 721.861117 -95.537331 
L 721.665973 -96.154973 
L 721.442108 -96.772616 
L 721.18602 -97.390258 
L 720.892277 -98.0079 
L 720.553769 -98.625542 
L 720.161931 -99.243184 
L 719.706852 -99.860827 
L 719.177323 -100.478469 
L 718.560845 -101.096111 
L 717.843712 -101.713753 
L 717.011271 -102.331395 
L 716.048461 -102.949038 
L 714.940678 -103.56668 
L 713.675012 -104.184322 
L 712.241826 -104.801964 
L 710.636651 -105.419606 
L 708.862327 -106.037248 
L 706.931318 -106.654891 
L 704.868059 -107.272533 
L 702.711123 -107.890175 
L 700.514917 -108.507817 
L 698.350468 -109.125459 
L 696.304832 -109.743102 
L 694.478657 -110.360744 
L 692.98154 -110.978386 
L 691.925143 -111.596028 
L 691.414375 -112.21367 
L 691.537407 -112.831313 
L 692.355684 -113.448955 
L 693.895339 -114.066597 
L 696.141428 -114.684239 
L 699.036104 -115.301881 
L 702.481371 -115.919524 
L 706.346288 -116.537166 
L 710.477855 -117.154808 
L 714.714128 -117.77245 
L 718.897847 -118.390092 
L 722.888766 -119.007735 
L 726.573217 -119.625377 
L 729.869948 -120.243019 
L 732.731934 -120.860661 
L 735.144482 -121.478303 
L 737.120458 -122.095946 
L 738.693712 -122.713588 
L 739.911857 -123.33123 
L 745.941893 -123.33123 
L 745.941893 -123.33123 
L 747.160038 -122.713588 
L 748.733292 -122.095946 
L 750.709268 -121.478303 
L 753.121816 -120.860661 
L 755.983802 -120.243019 
L 759.280533 -119.625377 
L 762.964984 -119.007735 
L 766.955903 -118.390092 
L 771.139622 -117.77245 
L 775.375895 -117.154808 
L 779.507462 -116.537166 
L 783.372379 -115.919524 
L 786.817646 -115.301881 
L 789.712322 -114.684239 
L 791.958411 -114.066597 
L 793.498066 -113.448955 
L 794.316343 -112.831313 
L 794.439375 -112.21367 
L 793.928607 -111.596028 
L 792.87221 -110.978386 
L 791.375093 -110.360744 
L 789.548918 -109.743102 
L 787.503282 -109.125459 
L 785.338833 -108.507817 
L 783.142627 -107.890175 
L 780.985691 -107.272533 
L 778.922432 -106.654891 
L 776.991423 -106.037248 
L 775.217099 -105.419606 
L 773.611924 -104.801964 
L 772.178738 -104.184322 
L 770.913072 -103.56668 
L 769.805289 -102.949038 
L 768.842479 -102.331395 
L 768.010038 -101.713753 
L 767.292905 -101.096111 
L 766.676427 -100.478469 
L 766.146898 -99.860827 
L 765.691819 -99.243184 
L 765.299981 -98.625542 
L 764.961473 -98.0079 
L 764.66773 -97.390258 
L 764.411642 -96.772616 
L 764.187777 -96.154973 
L 763.992633 -95.537331 
L 763.824852 -94.919689 
L 763.685268 -94.302047 
L 763.576722 -93.684405 
L 763.503552 -93.066762 
L 763.470791 -92.44912 
L 763.483097 -91.831478 
L 763.543569 -91.213836 
L 763.652568 -90.596194 
L 763.806719 -89.978551 
L 763.998263 -89.360909 
L 764.214862 -88.743267 
L 764.439943 -88.125625 
L 764.653587 -87.507983 
L 764.833903 -86.89034 
L 764.958756 -86.272698 
L 765.007646 -85.655056 
L 764.963513 -85.037414 
L 764.814215 -84.419772 
L 764.553457 -83.802129 
L 764.181058 -83.184487 
L 763.70249 -82.566845 
L 763.127815 -81.949203 
L 762.470193 -81.331561 
L 761.744253 -80.713918 
L 760.964585 -80.096276 
L 760.144602 -79.478634 
L 759.295873 -78.860992 
L 758.427954 -78.24335 
L 757.54858 -77.625708 
L 756.664076 -77.008065 
L 755.779778 -76.390423 
L 754.90034 -75.772781 
L 754.029883 -75.155139 
L 753.172 -74.537497 
L 752.329719 -73.919854 
L 751.505532 -73.302212 
L 750.701555 -72.68457 
L 749.919829 -72.066928 
L 749.162711 -71.449286 
L 748.433248 -70.831643 
L 747.735394 -70.214001 
L 747.074004 -69.596359 
L 746.454557 -68.978717 
L 745.882647 -68.361075 
L 745.363338 -67.743432 
L 744.900517 -67.12579 
L 744.496368 -66.508148 
L 744.151062 -65.890506 
L 743.862712 -65.272864 
L 743.627574 -64.655221 
L 743.440446 -64.037579 
L 743.295178 -63.419937 
L 743.185206 -62.802295 
L 743.10404 -62.184653 
z
" style="stroke: #3e3e3e; stroke-width: 3"/>
    </defs>
    <g clip-path="url(#p42e181ce42)">
     <use xlink:href="#mf230e1a573" x="0" y="288" style="fill: #e6e64c; stroke: #3e3e3e; stroke-width: 3"/>
    </g>
   </g>
   <g id="PolyCollection_7">
    <defs>
     <path id="m83b3bdc026" d="M 872.483886 -76.210856 
L 870.932364 -76.210856 
L 870.373558 -77.067316 
L 869.505685 -77.923777 
L 868.219212 -78.780237 
L 866.399302 -79.636697 
L 863.942812 -80.493157 
L 860.780234 -81.349617 
L 856.898951 -82.206077 
L 852.362507 -83.062537 
L 847.32018 -83.918997 
L 842.002415 -84.775457 
L 836.700647 -85.631917 
L 831.733845 -86.488377 
L 827.407721 -87.344838 
L 823.974595 -88.201298 
L 821.601863 -89.057758 
L 820.354769 -89.914218 
L 820.195625 -90.770678 
L 820.997889 -91.627138 
L 822.570743 -92.483598 
L 824.688627 -93.340058 
L 827.120523 -94.196518 
L 829.655145 -95.052978 
L 832.119756 -95.909438 
L 834.391646 -96.765899 
L 836.402112 -97.622359 
L 838.133325 -98.478819 
L 839.608968 -99.335279 
L 840.880234 -100.191739 
L 842.009516 -101.048199 
L 843.054735 -101.904659 
L 844.057299 -102.761119 
L 845.03601 -103.617579 
L 845.987868 -104.474039 
L 846.894932 -105.330499 
L 847.734752 -106.18696 
L 848.49093 -107.04342 
L 849.160501 -107.89988 
L 849.756024 -108.75634 
L 850.3023 -109.6128 
L 850.829492 -110.46926 
L 851.365618 -111.32572 
L 851.931174 -112.18218 
L 852.537399 -113.03864 
L 853.187847 -113.8951 
L 853.88155 -114.75156 
L 854.615683 -115.608021 
L 855.38641 -116.464481 
L 856.187902 -117.320941 
L 857.010715 -118.177401 
L 857.841044 -119.033861 
L 858.661844 -119.890321 
L 859.455764 -120.746781 
L 860.208854 -121.603241 
L 860.913607 -122.459701 
L 861.570163 -123.316161 
L 862.18525 -124.172621 
L 862.769291 -125.029082 
L 863.33274 -125.885542 
L 863.882943 -126.742002 
L 864.42256 -127.598462 
L 864.950017 -128.454922 
L 865.461663 -129.311382 
L 865.954661 -130.167842 
L 866.429309 -131.024302 
L 866.889717 -131.880762 
L 867.342418 -132.737222 
L 867.793369 -133.593682 
L 868.244512 -134.450143 
L 868.691297 -135.306603 
L 869.122239 -136.163063 
L 869.520872 -137.019523 
L 869.869572 -137.875983 
L 870.154116 -138.732443 
L 870.367584 -139.588903 
L 870.512454 -140.445363 
L 870.600311 -141.301823 
L 870.64927 -142.158283 
L 870.679892 -143.014743 
L 870.710721 -143.871204 
L 870.754667 -144.727664 
L 870.817109 -145.584124 
L 870.896091 -146.440584 
L 870.984346 -147.297044 
L 871.072366 -148.153504 
L 871.151551 -149.009964 
L 871.216532 -149.866424 
L 871.266164 -150.722884 
L 871.303117 -151.579344 
L 871.332442 -152.435804 
L 871.359723 -153.292265 
L 871.389415 -154.148725 
L 871.423839 -155.005185 
L 871.462968 -155.861645 
L 871.504919 -156.718105 
L 871.546837 -157.574565 
L 871.585822 -158.431025 
L 871.619651 -159.287485 
L 871.647119 -160.143945 
L 871.668049 -161.000405 
L 871.748201 -161.000405 
L 871.748201 -161.000405 
L 871.769131 -160.143945 
L 871.796599 -159.287485 
L 871.830428 -158.431025 
L 871.869413 -157.574565 
L 871.911331 -156.718105 
L 871.953282 -155.861645 
L 871.992411 -155.005185 
L 872.026835 -154.148725 
L 872.056527 -153.292265 
L 872.083808 -152.435804 
L 872.113133 -151.579344 
L 872.150086 -150.722884 
L 872.199718 -149.866424 
L 872.264699 -149.009964 
L 872.343884 -148.153504 
L 872.431904 -147.297044 
L 872.520159 -146.440584 
L 872.599141 -145.584124 
L 872.661583 -144.727664 
L 872.705529 -143.871204 
L 872.736358 -143.014743 
L 872.76698 -142.158283 
L 872.815939 -141.301823 
L 872.903796 -140.445363 
L 873.048666 -139.588903 
L 873.262134 -138.732443 
L 873.546678 -137.875983 
L 873.895378 -137.019523 
L 874.294011 -136.163063 
L 874.724953 -135.306603 
L 875.171738 -134.450143 
L 875.622881 -133.593682 
L 876.073832 -132.737222 
L 876.526533 -131.880762 
L 876.986941 -131.024302 
L 877.461589 -130.167842 
L 877.954587 -129.311382 
L 878.466233 -128.454922 
L 878.99369 -127.598462 
L 879.533307 -126.742002 
L 880.08351 -125.885542 
L 880.646959 -125.029082 
L 881.231 -124.172621 
L 881.846087 -123.316161 
L 882.502643 -122.459701 
L 883.207396 -121.603241 
L 883.960486 -120.746781 
L 884.754406 -119.890321 
L 885.575206 -119.033861 
L 886.405535 -118.177401 
L 887.228348 -117.320941 
L 888.02984 -116.464481 
L 888.800567 -115.608021 
L 889.5347 -114.75156 
L 890.228403 -113.8951 
L 890.878851 -113.03864 
L 891.485076 -112.18218 
L 892.050632 -111.32572 
L 892.586758 -110.46926 
L 893.11395 -109.6128 
L 893.660226 -108.75634 
L 894.255749 -107.89988 
L 894.92532 -107.04342 
L 895.681498 -106.18696 
L 896.521318 -105.330499 
L 897.428382 -104.474039 
L 898.38024 -103.617579 
L 899.358951 -102.761119 
L 900.361515 -101.904659 
L 901.406734 -101.048199 
L 902.536016 -100.191739 
L 903.807282 -99.335279 
L 905.282925 -98.478819 
L 907.014138 -97.622359 
L 909.024604 -96.765899 
L 911.296494 -95.909438 
L 913.761105 -95.052978 
L 916.295727 -94.196518 
L 918.727623 -93.340058 
L 920.845507 -92.483598 
L 922.418361 -91.627138 
L 923.220625 -90.770678 
L 923.061481 -89.914218 
L 921.814387 -89.057758 
L 919.441655 -88.201298 
L 916.008529 -87.344838 
L 911.682405 -86.488377 
L 906.715603 -85.631917 
L 901.413835 -84.775457 
L 896.09607 -83.918997 
L 891.053743 -83.062537 
L 886.517299 -82.206077 
L 882.636016 -81.349617 
L 879.473438 -80.493157 
L 877.016948 -79.636697 
L 875.197038 -78.780237 
L 873.910565 -77.923777 
L 873.042692 -77.067316 
L 872.483886 -76.210856 
z
" style="stroke: #3e3e3e; stroke-width: 3"/>
    </defs>
    <g clip-path="url(#p42e181ce42)">
     <use xlink:href="#m83b3bdc026" x="0" y="288" style="fill: #965a38; stroke: #3e3e3e; stroke-width: 3"/>
    </g>
   </g>
   <g id="PolyCollection_8">
    <defs>
     <path id="m92e5722a3f" d="M 1001.19583 -75.862038 
L 999.78292 -75.862038 
L 999.497573 -76.428138 
L 999.120752 -76.994238 
L 998.632377 -77.560338 
L 998.010989 -78.126438 
L 997.23454 -78.692538 
L 996.281384 -79.258638 
L 995.131401 -79.824738 
L 993.767196 -80.390837 
L 992.175271 -80.956937 
L 990.347117 -81.523037 
L 988.280141 -82.089137 
L 985.978417 -82.655237 
L 983.453265 -83.221337 
L 980.723681 -83.787437 
L 977.816678 -84.353537 
L 974.767558 -84.919636 
L 971.62011 -85.485736 
L 968.426667 -86.051836 
L 965.247858 -86.617936 
L 962.151864 -87.184036 
L 959.212923 -87.750136 
L 956.508892 -88.316236 
L 954.117746 -88.882336 
L 952.113075 -89.448436 
L 950.558843 -90.014535 
L 949.503897 -90.580635 
L 948.976875 -91.146735 
L 948.982282 -91.712835 
L 949.49844 -92.278935 
L 950.477871 -92.845035 
L 951.850368 -93.411135 
L 953.528632 -93.977235 
L 955.415956 -94.543335 
L 957.415093 -95.109434 
L 959.437206 -95.675534 
L 961.409757 -96.241634 
L 963.282307 -96.807734 
L 965.029477 -97.373834 
L 966.65077 -97.939934 
L 968.167366 -98.506034 
L 969.616478 -99.072134 
L 971.044128 -99.638233 
L 972.497437 -100.204333 
L 974.01746 -100.770433 
L 975.633485 -101.336533 
L 977.359397 -101.902633 
L 979.192372 -102.468733 
L 981.113809 -103.034833 
L 983.092114 -103.600933 
L 985.086727 -104.167033 
L 987.052708 -104.733132 
L 988.945214 -105.299232 
L 990.723281 -105.865332 
L 992.352548 -106.431432 
L 993.806681 -106.997532 
L 995.067515 -107.563632 
L 996.124042 -108.129732 
L 996.970506 -108.695832 
L 997.603963 -109.261931 
L 998.021674 -109.828031 
L 998.218714 -110.394131 
L 998.186188 -110.960231 
L 997.910362 -111.526331 
L 997.372985 -112.092431 
L 996.552961 -112.658531 
L 995.429411 -113.224631 
L 993.985947 -113.790731 
L 992.215837 -114.35683 
L 990.127451 -114.92293 
L 987.749275 -115.48903 
L 985.133599 -116.05513 
L 982.358071 -116.62123 
L 979.524416 -117.18733 
L 976.75398 -117.75343 
L 974.180174 -118.31953 
L 971.938408 -118.885629 
L 970.15456 -119.451729 
L 968.93337 -120.017829 
L 968.348287 -120.583929 
L 968.43415 -121.150029 
L 969.183762 -121.716129 
L 970.54883 -122.282229 
L 972.445112 -122.848329 
L 974.761027 -123.414429 
L 977.368498 -123.980528 
L 980.134579 -124.546628 
L 982.932402 -125.112728 
L 985.650241 -125.678828 
L 988.19789 -126.244928 
L 990.509998 -126.811028 
L 992.546499 -127.377128 
L 994.290616 -127.943228 
L 995.745132 -128.509327 
L 996.927721 -129.075427 
L 997.866059 -129.641527 
L 998.59329 -130.207627 
L 999.144227 -130.773727 
L 999.552495 -131.339827 
L 999.848615 -131.905927 
L 1001.130135 -131.905927 
L 1001.130135 -131.905927 
L 1001.426255 -131.339827 
L 1001.834523 -130.773727 
L 1002.38546 -130.207627 
L 1003.112691 -129.641527 
L 1004.051029 -129.075427 
L 1005.233618 -128.509327 
L 1006.688134 -127.943228 
L 1008.432251 -127.377128 
L 1010.468752 -126.811028 
L 1012.78086 -126.244928 
L 1015.328509 -125.678828 
L 1018.046348 -125.112728 
L 1020.844171 -124.546628 
L 1023.610252 -123.980528 
L 1026.217723 -123.414429 
L 1028.533638 -122.848329 
L 1030.42992 -122.282229 
L 1031.794988 -121.716129 
L 1032.5446 -121.150029 
L 1032.630463 -120.583929 
L 1032.04538 -120.017829 
L 1030.82419 -119.451729 
L 1029.040342 -118.885629 
L 1026.798576 -118.31953 
L 1024.22477 -117.75343 
L 1021.454334 -117.18733 
L 1018.620679 -116.62123 
L 1015.845151 -116.05513 
L 1013.229475 -115.48903 
L 1010.851299 -114.92293 
L 1008.762913 -114.35683 
L 1006.992803 -113.790731 
L 1005.549339 -113.224631 
L 1004.425789 -112.658531 
L 1003.605765 -112.092431 
L 1003.068388 -111.526331 
L 1002.792562 -110.960231 
L 1002.760036 -110.394131 
L 1002.957076 -109.828031 
L 1003.374787 -109.261931 
L 1004.008244 -108.695832 
L 1004.854708 -108.129732 
L 1005.911235 -107.563632 
L 1007.172069 -106.997532 
L 1008.626202 -106.431432 
L 1010.255469 -105.865332 
L 1012.033536 -105.299232 
L 1013.926042 -104.733132 
L 1015.892023 -104.167033 
L 1017.886636 -103.600933 
L 1019.864941 -103.034833 
L 1021.786378 -102.468733 
L 1023.619353 -101.902633 
L 1025.345265 -101.336533 
L 1026.96129 -100.770433 
L 1028.481313 -100.204333 
L 1029.934622 -99.638233 
L 1031.362272 -99.072134 
L 1032.811384 -98.506034 
L 1034.32798 -97.939934 
L 1035.949273 -97.373834 
L 1037.696443 -96.807734 
L 1039.568993 -96.241634 
L 1041.541544 -95.675534 
L 1043.563657 -95.109434 
L 1045.562794 -94.543335 
L 1047.450118 -93.977235 
L 1049.128382 -93.411135 
L 1050.500879 -92.845035 
L 1051.48031 -92.278935 
L 1051.996468 -91.712835 
L 1052.001875 -91.146735 
L 1051.474853 -90.580635 
L 1050.419907 -90.014535 
L 1048.865675 -89.448436 
L 1046.861004 -88.882336 
L 1044.469858 -88.316236 
L 1041.765827 -87.750136 
L 1038.826886 -87.184036 
L 1035.730892 -86.617936 
L 1032.552083 -86.051836 
L 1029.35864 -85.485736 
L 1026.211192 -84.919636 
L 1023.162072 -84.353537 
L 1020.255069 -83.787437 
L 1017.525485 -83.221337 
L 1015.000333 -82.655237 
L 1012.698609 -82.089137 
L 1010.631633 -81.523037 
L 1008.803479 -80.956937 
L 1007.211554 -80.390837 
L 1005.847349 -79.824738 
L 1004.697366 -79.258638 
L 1003.74421 -78.692538 
L 1002.967761 -78.126438 
L 1002.346373 -77.560338 
L 1001.857998 -76.994238 
L 1001.481177 -76.428138 
L 1001.19583 -75.862038 
z
" style="stroke: #3e3e3e; stroke-width: 3"/>
    </defs>
    <g clip-path="url(#p42e181ce42)">
     <use xlink:href="#m92e5722a3f" x="0" y="288" style="fill: #e890be; stroke: #3e3e3e; stroke-width: 3"/>
    </g>
   </g>
   <g id="line2d_9">
    <path d="M 99.020625 192.698444 
L 99.020625 179.438131 
" clip-path="url(#p42e181ce42)" style="fill: none; stroke: #3e3e3e; stroke-width: 3"/>
   </g>
   <g id="line2d_10">
    <path d="M 99.020625 192.590741 
L 99.020625 187.263307 
" clip-path="url(#p42e181ce42)" style="fill: none; stroke: #3e3e3e; stroke-width: 9"/>
   </g>
   <g id="line2d_11">
    <path d="M 227.801875 193.688105 
L 227.801875 176.52819 
" clip-path="url(#p42e181ce42)" style="fill: none; stroke: #3e3e3e; stroke-width: 3"/>
   </g>
   <g id="line2d_12">
    <path d="M 227.801875 193.688105 
L 227.801875 186.53814 
" clip-path="url(#p42e181ce42)" style="fill: none; stroke: #3e3e3e; stroke-width: 9"/>
   </g>
   <g id="line2d_13">
    <path d="M 356.583125 207.765702 
L 356.583125 155.260833 
" clip-path="url(#p42e181ce42)" style="fill: none; stroke: #3e3e3e; stroke-width: 3"/>
   </g>
   <g id="line2d_14">
    <path d="M 356.583125 198.719775 
L 356.583125 173.814606 
" clip-path="url(#p42e181ce42)" style="fill: none; stroke: #3e3e3e; stroke-width: 9"/>
   </g>
   <g id="line2d_15">
    <path d="M 485.364375 206.023453 
L 485.364375 151.713587 
" clip-path="url(#p42e181ce42)" style="fill: none; stroke: #3e3e3e; stroke-width: 3"/>
   </g>
   <g id="line2d_16">
    <path d="M 485.364375 199.262889 
L 485.364375 179.544577 
" clip-path="url(#p42e181ce42)" style="fill: none; stroke: #3e3e3e; stroke-width: 9"/>
   </g>
   <g id="line2d_17">
    <path d="M 614.145625 213.685221 
L 614.145625 160.911653 
" clip-path="url(#p42e181ce42)" style="fill: none; stroke: #3e3e3e; stroke-width: 3"/>
   </g>
   <g id="line2d_18">
    <path d="M 614.145625 194.892499 
L 614.145625 180.887134 
" clip-path="url(#p42e181ce42)" style="fill: none; stroke: #3e3e3e; stroke-width: 9"/>
   </g>
   <g id="line2d_19">
    <path d="M 742.926875 218.094315 
L 742.926875 172.389802 
" clip-path="url(#p42e181ce42)" style="fill: none; stroke: #3e3e3e; stroke-width: 3"/>
   </g>
   <g id="line2d_20">
    <path d="M 742.926875 198.419252 
L 742.926875 175.284578 
" clip-path="url(#p42e181ce42)" style="fill: none; stroke: #3e3e3e; stroke-width: 9"/>
   </g>
   <g id="line2d_21">
    <path d="M 871.708125 204.068112 
L 871.708125 153.031001 
" clip-path="url(#p42e181ce42)" style="fill: none; stroke: #3e3e3e; stroke-width: 3"/>
   </g>
   <g id="line2d_22">
    <path d="M 871.708125 197.946471 
L 871.708125 178.620815 
" clip-path="url(#p42e181ce42)" style="fill: none; stroke: #3e3e3e; stroke-width: 9"/>
   </g>
   <g id="line2d_23">
    <path d="M 1000.489375 204.41693 
L 1000.489375 163.815105 
" clip-path="url(#p42e181ce42)" style="fill: none; stroke: #3e3e3e; stroke-width: 3"/>
   </g>
   <g id="line2d_24">
    <path d="M 1000.489375 197.365849 
L 1000.489375 167.301903 
" clip-path="url(#p42e181ce42)" style="fill: none; stroke: #3e3e3e; stroke-width: 9"/>
   </g>
   <g id="patch_3">
    <path d="M 34.63 255.8 
L 34.63 43.92 
" style="fill: none; stroke: #ffffff; stroke-width: 3; stroke-linejoin: miter; stroke-linecap: square"/>
   </g>
   <g id="patch_4">
    <path d="M 1064.88 255.8 
L 1064.88 43.92 
" style="fill: none; stroke: #ffffff; stroke-width: 3; stroke-linejoin: miter; stroke-linecap: square"/>
   </g>
   <g id="patch_5">
    <path d="M 34.63 255.8 
L 1064.88 255.8 
" style="fill: none; stroke: #ffffff; stroke-width: 3; stroke-linejoin: miter; stroke-linecap: square"/>
   </g>
   <g id="patch_6">
    <path d="M 34.63 43.92 
L 1064.88 43.92 
" style="fill: none; stroke: #ffffff; stroke-width: 3; stroke-linejoin: miter; stroke-linecap: square"/>
   </g>
   <g id="PathCollection_1">
    <defs>
     <path id="m0c9597d9a1" d="M 0 3 
C 0.795609 3 1.55874 2.683901 2.12132 2.12132 
C 2.683901 1.55874 3 0.795609 3 0 
C 3 -0.795609 2.683901 -1.55874 2.12132 -2.12132 
C 1.55874 -2.683901 0.795609 -3 0 -3 
C -0.795609 -3 -1.55874 -2.683901 -2.12132 -2.12132 
C -2.683901 -1.55874 -3 -0.795609 -3 0 
C -3 0.795609 -2.683901 1.55874 -2.12132 2.12132 
C -1.55874 2.683901 -0.795609 3 0 3 
z
" style="stroke: #3e3e3e; stroke-width: 0.5"/>
    </defs>
    <g clip-path="url(#p42e181ce42)">
     <use xlink:href="#m0c9597d9a1" x="99.020625" y="192.34554" style="fill: #ffffff; stroke: #3e3e3e; stroke-width: 0.5"/>
    </g>
   </g>
   <g id="PathCollection_2">
    <g clip-path="url(#p42e181ce42)">
     <use xlink:href="#m0c9597d9a1" x="227.801875" y="193.688105" style="fill: #ffffff; stroke: #3e3e3e; stroke-width: 0.5"/>
    </g>
   </g>
   <g id="PathCollection_3">
    <g clip-path="url(#p42e181ce42)">
     <use xlink:href="#m0c9597d9a1" x="356.583125" y="190.001041" style="fill: #ffffff; stroke: #3e3e3e; stroke-width: 0.5"/>
    </g>
   </g>
   <g id="PathCollection_4">
    <g clip-path="url(#p42e181ce42)">
     <use xlink:href="#m0c9597d9a1" x="485.364375" y="189.234719" style="fill: #ffffff; stroke: #3e3e3e; stroke-width: 0.5"/>
    </g>
   </g>
   <g id="PathCollection_5">
    <g clip-path="url(#p42e181ce42)">
     <use xlink:href="#m0c9597d9a1" x="614.145625" y="188.753418" style="fill: #ffffff; stroke: #3e3e3e; stroke-width: 0.5"/>
    </g>
   </g>
   <g id="PathCollection_6">
    <g clip-path="url(#p42e181ce42)">
     <use xlink:href="#m0c9597d9a1" x="742.926875" y="183.357003" style="fill: #ffffff; stroke: #3e3e3e; stroke-width: 0.5"/>
    </g>
   </g>
   <g id="PathCollection_7">
    <g clip-path="url(#p42e181ce42)">
     <use xlink:href="#m0c9597d9a1" x="871.708125" y="191.017019" style="fill: #ffffff; stroke: #3e3e3e; stroke-width: 0.5"/>
    </g>
   </g>
   <g id="PathCollection_8">
    <g clip-path="url(#p42e181ce42)">
     <use xlink:href="#m0c9597d9a1" x="1000.489375" y="193.336661" style="fill: #ffffff; stroke: #3e3e3e; stroke-width: 0.5"/>
    </g>
   </g>
  </g>
  <g id="text_17">
   <!-- Violin Plot of all Continuous Variables -->
   <g style="fill: #ffffff" transform="translate(416.035547 16.496719) scale(0.15 -0.15)">
    <defs>
     <path id="ArialMT-56" d="M 1803 0 
L 28 4581 
L 684 4581 
L 1875 1253 
Q 2019 853 2116 503 
Q 2222 878 2363 1253 
L 3600 4581 
L 4219 4581 
L 2425 0 
L 1803 0 
z
" transform="scale(0.015625)"/>
     <path id="ArialMT-69" d="M 425 3934 
L 425 4581 
L 988 4581 
L 988 3934 
L 425 3934 
z
M 425 0 
L 425 3319 
L 988 3319 
L 988 0 
L 425 0 
z
" transform="scale(0.015625)"/>
     <path id="ArialMT-6f" d="M 213 1659 
Q 213 2581 725 3025 
Q 1153 3394 1769 3394 
Q 2453 3394 2887 2945 
Q 3322 2497 3322 1706 
Q 3322 1066 3130 698 
Q 2938 331 2570 128 
Q 2203 -75 1769 -75 
Q 1072 -75 642 372 
Q 213 819 213 1659 
z
M 791 1659 
Q 791 1022 1069 705 
Q 1347 388 1769 388 
Q 2188 388 2466 706 
Q 2744 1025 2744 1678 
Q 2744 2294 2464 2611 
Q 2184 2928 1769 2928 
Q 1347 2928 1069 2612 
Q 791 2297 791 1659 
z
" transform="scale(0.015625)"/>
     <path id="ArialMT-6c" d="M 409 0 
L 409 4581 
L 972 4581 
L 972 0 
L 409 0 
z
" transform="scale(0.015625)"/>
     <path id="ArialMT-6e" d="M 422 0 
L 422 3319 
L 928 3319 
L 928 2847 
Q 1294 3394 1984 3394 
Q 2284 3394 2536 3286 
Q 2788 3178 2913 3003 
Q 3038 2828 3088 2588 
Q 3119 2431 3119 2041 
L 3119 0 
L 2556 0 
L 2556 2019 
Q 2556 2363 2490 2533 
Q 2425 2703 2258 2804 
Q 2091 2906 1866 2906 
Q 1506 2906 1245 2678 
Q 984 2450 984 1813 
L 984 0 
L 422 0 
z
" transform="scale(0.015625)"/>
     <path id="ArialMT-20" transform="scale(0.015625)"/>
     <path id="ArialMT-50" d="M 494 0 
L 494 4581 
L 2222 4581 
Q 2678 4581 2919 4538 
Q 3256 4481 3484 4323 
Q 3713 4166 3852 3881 
Q 3991 3597 3991 3256 
Q 3991 2672 3619 2267 
Q 3247 1863 2275 1863 
L 1100 1863 
L 1100 0 
L 494 0 
z
M 1100 2403 
L 2284 2403 
Q 2872 2403 3119 2622 
Q 3366 2841 3366 3238 
Q 3366 3525 3220 3729 
Q 3075 3934 2838 4000 
Q 2684 4041 2272 4041 
L 1100 4041 
L 1100 2403 
z
" transform="scale(0.015625)"/>
     <path id="ArialMT-74" d="M 1650 503 
L 1731 6 
Q 1494 -44 1306 -44 
Q 1000 -44 831 53 
Q 663 150 594 308 
Q 525 466 525 972 
L 525 2881 
L 113 2881 
L 113 3319 
L 525 3319 
L 525 4141 
L 1084 4478 
L 1084 3319 
L 1650 3319 
L 1650 2881 
L 1084 2881 
L 1084 941 
Q 1084 700 1114 631 
Q 1144 563 1211 522 
Q 1278 481 1403 481 
Q 1497 481 1650 503 
z
" transform="scale(0.015625)"/>
     <path id="ArialMT-66" d="M 556 0 
L 556 2881 
L 59 2881 
L 59 3319 
L 556 3319 
L 556 3672 
Q 556 4006 616 4169 
Q 697 4388 901 4523 
Q 1106 4659 1475 4659 
Q 1713 4659 2000 4603 
L 1916 4113 
Q 1741 4144 1584 4144 
Q 1328 4144 1222 4034 
Q 1116 3925 1116 3625 
L 1116 3319 
L 1763 3319 
L 1763 2881 
L 1116 2881 
L 1116 0 
L 556 0 
z
" transform="scale(0.015625)"/>
     <path id="ArialMT-61" d="M 2588 409 
Q 2275 144 1986 34 
Q 1697 -75 1366 -75 
Q 819 -75 525 192 
Q 231 459 231 875 
Q 231 1119 342 1320 
Q 453 1522 633 1644 
Q 813 1766 1038 1828 
Q 1203 1872 1538 1913 
Q 2219 1994 2541 2106 
Q 2544 2222 2544 2253 
Q 2544 2597 2384 2738 
Q 2169 2928 1744 2928 
Q 1347 2928 1158 2789 
Q 969 2650 878 2297 
L 328 2372 
Q 403 2725 575 2942 
Q 747 3159 1072 3276 
Q 1397 3394 1825 3394 
Q 2250 3394 2515 3294 
Q 2781 3194 2906 3042 
Q 3031 2891 3081 2659 
Q 3109 2516 3109 2141 
L 3109 1391 
Q 3109 606 3145 398 
Q 3181 191 3288 0 
L 2700 0 
Q 2613 175 2588 409 
z
M 2541 1666 
Q 2234 1541 1622 1453 
Q 1275 1403 1131 1340 
Q 988 1278 909 1158 
Q 831 1038 831 891 
Q 831 666 1001 516 
Q 1172 366 1500 366 
Q 1825 366 2078 508 
Q 2331 650 2450 897 
Q 2541 1088 2541 1459 
L 2541 1666 
z
" transform="scale(0.015625)"/>
     <path id="ArialMT-75" d="M 2597 0 
L 2597 488 
Q 2209 -75 1544 -75 
Q 1250 -75 995 37 
Q 741 150 617 320 
Q 494 491 444 738 
Q 409 903 409 1263 
L 409 3319 
L 972 3319 
L 972 1478 
Q 972 1038 1006 884 
Q 1059 663 1231 536 
Q 1403 409 1656 409 
Q 1909 409 2131 539 
Q 2353 669 2445 892 
Q 2538 1116 2538 1541 
L 2538 3319 
L 3100 3319 
L 3100 0 
L 2597 0 
z
" transform="scale(0.015625)"/>
     <path id="ArialMT-73" d="M 197 991 
L 753 1078 
Q 800 744 1014 566 
Q 1228 388 1613 388 
Q 2000 388 2187 545 
Q 2375 703 2375 916 
Q 2375 1106 2209 1216 
Q 2094 1291 1634 1406 
Q 1016 1563 777 1677 
Q 538 1791 414 1992 
Q 291 2194 291 2438 
Q 291 2659 392 2848 
Q 494 3038 669 3163 
Q 800 3259 1026 3326 
Q 1253 3394 1513 3394 
Q 1903 3394 2198 3281 
Q 2494 3169 2634 2976 
Q 2775 2784 2828 2463 
L 2278 2388 
Q 2241 2644 2061 2787 
Q 1881 2931 1553 2931 
Q 1166 2931 1000 2803 
Q 834 2675 834 2503 
Q 834 2394 903 2306 
Q 972 2216 1119 2156 
Q 1203 2125 1616 2013 
Q 2213 1853 2448 1751 
Q 2684 1650 2818 1456 
Q 2953 1263 2953 975 
Q 2953 694 2789 445 
Q 2625 197 2315 61 
Q 2006 -75 1616 -75 
Q 969 -75 630 194 
Q 291 463 197 991 
z
" transform="scale(0.015625)"/>
     <path id="ArialMT-72" d="M 416 0 
L 416 3319 
L 922 3319 
L 922 2816 
Q 1116 3169 1280 3281 
Q 1444 3394 1641 3394 
Q 1925 3394 2219 3213 
L 2025 2691 
Q 1819 2813 1613 2813 
Q 1428 2813 1281 2702 
Q 1134 2591 1072 2394 
Q 978 2094 978 1738 
L 978 0 
L 416 0 
z
" transform="scale(0.015625)"/>
     <path id="ArialMT-62" d="M 941 0 
L 419 0 
L 419 4581 
L 981 4581 
L 981 2947 
Q 1338 3394 1891 3394 
Q 2197 3394 2470 3270 
Q 2744 3147 2920 2923 
Q 3097 2700 3197 2384 
Q 3297 2069 3297 1709 
Q 3297 856 2875 390 
Q 2453 -75 1863 -75 
Q 1275 -75 941 416 
L 941 0 
z
M 934 1684 
Q 934 1088 1097 822 
Q 1363 388 1816 388 
Q 2184 388 2453 708 
Q 2722 1028 2722 1663 
Q 2722 2313 2464 2622 
Q 2206 2931 1841 2931 
Q 1472 2931 1203 2611 
Q 934 2291 934 1684 
z
" transform="scale(0.015625)"/>
     <path id="ArialMT-65" d="M 2694 1069 
L 3275 997 
Q 3138 488 2766 206 
Q 2394 -75 1816 -75 
Q 1088 -75 661 373 
Q 234 822 234 1631 
Q 234 2469 665 2931 
Q 1097 3394 1784 3394 
Q 2450 3394 2872 2941 
Q 3294 2488 3294 1666 
Q 3294 1616 3291 1516 
L 816 1516 
Q 847 969 1125 678 
Q 1403 388 1819 388 
Q 2128 388 2347 550 
Q 2566 713 2694 1069 
z
M 847 1978 
L 2700 1978 
Q 2663 2397 2488 2606 
Q 2219 2931 1791 2931 
Q 1403 2931 1139 2672 
Q 875 2413 847 1978 
z
" transform="scale(0.015625)"/>
    </defs>
    <use xlink:href="#ArialMT-56"/>
    <use xlink:href="#ArialMT-69" x="64.949219"/>
    <use xlink:href="#ArialMT-6f" x="87.166016"/>
    <use xlink:href="#ArialMT-6c" x="142.78125"/>
    <use xlink:href="#ArialMT-69" x="164.998047"/>
    <use xlink:href="#ArialMT-6e" x="187.214844"/>
    <use xlink:href="#ArialMT-20" x="242.830078"/>
    <use xlink:href="#ArialMT-50" x="270.613281"/>
    <use xlink:href="#ArialMT-6c" x="337.3125"/>
    <use xlink:href="#ArialMT-6f" x="359.529297"/>
    <use xlink:href="#ArialMT-74" x="415.144531"/>
    <use xlink:href="#ArialMT-20" x="442.927734"/>
    <use xlink:href="#ArialMT-6f" x="470.710938"/>
    <use xlink:href="#ArialMT-66" x="526.326172"/>
    <use xlink:href="#ArialMT-20" x="554.109375"/>
    <use xlink:href="#ArialMT-61" x="581.892578"/>
    <use xlink:href="#ArialMT-6c" x="637.507812"/>
    <use xlink:href="#ArialMT-6c" x="659.724609"/>
    <use xlink:href="#ArialMT-20" x="681.941406"/>
    <use xlink:href="#ArialMT-43" x="709.724609"/>
    <use xlink:href="#ArialMT-6f" x="781.941406"/>
    <use xlink:href="#ArialMT-6e" x="837.556641"/>
    <use xlink:href="#ArialMT-74" x="893.171875"/>
    <use xlink:href="#ArialMT-69" x="920.955078"/>
    <use xlink:href="#ArialMT-6e" x="943.171875"/>
    <use xlink:href="#ArialMT-75" x="998.787109"/>
    <use xlink:href="#ArialMT-6f" x="1054.402344"/>
    <use xlink:href="#ArialMT-75" x="1110.017578"/>
    <use xlink:href="#ArialMT-73" x="1165.632812"/>
    <use xlink:href="#ArialMT-20" x="1215.632812"/>
    <use xlink:href="#ArialMT-56" x="1243.416016"/>
    <use xlink:href="#ArialMT-61" x="1302.740234"/>
    <use xlink:href="#ArialMT-72" x="1358.355469"/>
    <use xlink:href="#ArialMT-69" x="1391.65625"/>
    <use xlink:href="#ArialMT-61" x="1413.873047"/>
    <use xlink:href="#ArialMT-62" x="1469.488281"/>
    <use xlink:href="#ArialMT-6c" x="1525.103516"/>
    <use xlink:href="#ArialMT-65" x="1547.320312"/>
    <use xlink:href="#ArialMT-73" x="1602.935547"/>
   </g>
  </g>
 </g>
 <defs>
  <clipPath id="p42e181ce42">
   <rect x="34.63" y="43.92" width="1030.25" height="211.88"/>
  </clipPath>
 </defs>
</svg>
