<?xml version="1.0" encoding="utf-8" standalone="no"?>
<!DOCTYPE svg PUBLIC "-//W3C//DTD SVG 1.1//EN"
  "http://www.w3.org/Graphics/SVG/1.1/DTD/svg11.dtd">
<svg xmlns:xlink="http://www.w3.org/1999/xlink" width="1080pt" height="288pt" viewBox="0 0 1080 288" xmlns="http://www.w3.org/2000/svg" version="1.1">
 <metadata>
  <rdf:RDF xmlns:dc="http://purl.org/dc/elements/1.1/" xmlns:cc="http://creativecommons.org/ns#" xmlns:rdf="http://www.w3.org/1999/02/22-rdf-syntax-ns#">
   <cc:Work>
    <dc:type rdf:resource="http://purl.org/dc/dcmitype/StillImage"/>
    <dc:date>2023-02-21T15:25:48.771504</dc:date>
    <dc:format>image/svg+xml</dc:format>
    <dc:creator>
     <cc:Agent>
      <dc:title>Matplotlib v3.6.3, https://matplotlib.org/</dc:title>
     </cc:Agent>
    </dc:creator>
   </cc:Work>
  </rdf:RDF>
 </metadata>
 <defs>
  <style type="text/css">*{stroke-linejoin: round; stroke-linecap: butt}</style>
 </defs>
 <g id="figure_1">
  <g id="patch_1">
   <path d="M 0 288 
L 1080 288 
L 1080 0 
L 0 0 
z
"/>
  </g>
  <g id="axes_1">
   <g id="patch_2">
    <path d="M 34.45 255.69875 
L 1064.88 255.69875 
L 1064.88 43.92 
L 34.45 43.92 
z
"/>
   </g>
   <g id="matplotlib.axis_1">
    <g id="xtick_1">
     <g id="text_1">
      <!-- temperature -->
      <g style="fill: #ffffff" transform="translate(69.200859 270.572344) scale(0.11 -0.11)">
       <defs>
        <path id="ArialMT-74" d="M 1650 503 
L 1731 6 
Q 1494 -44 1306 -44 
Q 1000 -44 831 53 
Q 663 150 594 308 
Q 525 466 525 972 
L 525 2881 
L 113 2881 
L 113 3319 
L 525 3319 
L 525 4141 
L 1084 4478 
L 1084 3319 
L 1650 3319 
L 1650 2881 
L 1084 2881 
L 1084 941 
Q 1084 700 1114 631 
Q 1144 563 1211 522 
Q 1278 481 1403 481 
Q 1497 481 1650 503 
z
" transform="scale(0.015625)"/>
        <path id="ArialMT-65" d="M 2694 1069 
L 3275 997 
Q 3138 488 2766 206 
Q 2394 -75 1816 -75 
Q 1088 -75 661 373 
Q 234 822 234 1631 
Q 234 2469 665 2931 
Q 1097 3394 1784 3394 
Q 2450 3394 2872 2941 
Q 3294 2488 3294 1666 
Q 3294 1616 3291 1516 
L 816 1516 
Q 847 969 1125 678 
Q 1403 388 1819 388 
Q 2128 388 2347 550 
Q 2566 713 2694 1069 
z
M 847 1978 
L 2700 1978 
Q 2663 2397 2488 2606 
Q 2219 2931 1791 2931 
Q 1403 2931 1139 2672 
Q 875 2413 847 1978 
z
" transform="scale(0.015625)"/>
        <path id="ArialMT-6d" d="M 422 0 
L 422 3319 
L 925 3319 
L 925 2853 
Q 1081 3097 1340 3245 
Q 1600 3394 1931 3394 
Q 2300 3394 2536 3241 
Q 2772 3088 2869 2813 
Q 3263 3394 3894 3394 
Q 4388 3394 4653 3120 
Q 4919 2847 4919 2278 
L 4919 0 
L 4359 0 
L 4359 2091 
Q 4359 2428 4304 2576 
Q 4250 2725 4106 2815 
Q 3963 2906 3769 2906 
Q 3419 2906 3187 2673 
Q 2956 2441 2956 1928 
L 2956 0 
L 2394 0 
L 2394 2156 
Q 2394 2531 2256 2718 
Q 2119 2906 1806 2906 
Q 1569 2906 1367 2781 
Q 1166 2656 1075 2415 
Q 984 2175 984 1722 
L 984 0 
L 422 0 
z
" transform="scale(0.015625)"/>
        <path id="ArialMT-70" d="M 422 -1272 
L 422 3319 
L 934 3319 
L 934 2888 
Q 1116 3141 1344 3267 
Q 1572 3394 1897 3394 
Q 2322 3394 2647 3175 
Q 2972 2956 3137 2557 
Q 3303 2159 3303 1684 
Q 3303 1175 3120 767 
Q 2938 359 2589 142 
Q 2241 -75 1856 -75 
Q 1575 -75 1351 44 
Q 1128 163 984 344 
L 984 -1272 
L 422 -1272 
z
M 931 1641 
Q 931 1000 1190 694 
Q 1450 388 1819 388 
Q 2194 388 2461 705 
Q 2728 1022 2728 1688 
Q 2728 2322 2467 2637 
Q 2206 2953 1844 2953 
Q 1484 2953 1207 2617 
Q 931 2281 931 1641 
z
" transform="scale(0.015625)"/>
        <path id="ArialMT-72" d="M 416 0 
L 416 3319 
L 922 3319 
L 922 2816 
Q 1116 3169 1280 3281 
Q 1444 3394 1641 3394 
Q 1925 3394 2219 3213 
L 2025 2691 
Q 1819 2813 1613 2813 
Q 1428 2813 1281 2702 
Q 1134 2591 1072 2394 
Q 978 2094 978 1738 
L 978 0 
L 416 0 
z
" transform="scale(0.015625)"/>
        <path id="ArialMT-61" d="M 2588 409 
Q 2275 144 1986 34 
Q 1697 -75 1366 -75 
Q 819 -75 525 192 
Q 231 459 231 875 
Q 231 1119 342 1320 
Q 453 1522 633 1644 
Q 813 1766 1038 1828 
Q 1203 1872 1538 1913 
Q 2219 1994 2541 2106 
Q 2544 2222 2544 2253 
Q 2544 2597 2384 2738 
Q 2169 2928 1744 2928 
Q 1347 2928 1158 2789 
Q 969 2650 878 2297 
L 328 2372 
Q 403 2725 575 2942 
Q 747 3159 1072 3276 
Q 1397 3394 1825 3394 
Q 2250 3394 2515 3294 
Q 2781 3194 2906 3042 
Q 3031 2891 3081 2659 
Q 3109 2516 3109 2141 
L 3109 1391 
Q 3109 606 3145 398 
Q 3181 191 3288 0 
L 2700 0 
Q 2613 175 2588 409 
z
M 2541 1666 
Q 2234 1541 1622 1453 
Q 1275 1403 1131 1340 
Q 988 1278 909 1158 
Q 831 1038 831 891 
Q 831 666 1001 516 
Q 1172 366 1500 366 
Q 1825 366 2078 508 
Q 2331 650 2450 897 
Q 2541 1088 2541 1459 
L 2541 1666 
z
" transform="scale(0.015625)"/>
        <path id="ArialMT-75" d="M 2597 0 
L 2597 488 
Q 2209 -75 1544 -75 
Q 1250 -75 995 37 
Q 741 150 617 320 
Q 494 491 444 738 
Q 409 903 409 1263 
L 409 3319 
L 972 3319 
L 972 1478 
Q 972 1038 1006 884 
Q 1059 663 1231 536 
Q 1403 409 1656 409 
Q 1909 409 2131 539 
Q 2353 669 2445 892 
Q 2538 1116 2538 1541 
L 2538 3319 
L 3100 3319 
L 3100 0 
L 2597 0 
z
" transform="scale(0.015625)"/>
       </defs>
       <use xlink:href="#ArialMT-74"/>
       <use xlink:href="#ArialMT-65" x="27.783203"/>
       <use xlink:href="#ArialMT-6d" x="83.398438"/>
       <use xlink:href="#ArialMT-70" x="166.699219"/>
       <use xlink:href="#ArialMT-65" x="222.314453"/>
       <use xlink:href="#ArialMT-72" x="277.929688"/>
       <use xlink:href="#ArialMT-61" x="311.230469"/>
       <use xlink:href="#ArialMT-74" x="366.845703"/>
       <use xlink:href="#ArialMT-75" x="394.628906"/>
       <use xlink:href="#ArialMT-72" x="450.244141"/>
       <use xlink:href="#ArialMT-65" x="483.544922"/>
      </g>
     </g>
    </g>
    <g id="xtick_2">
     <g id="text_2">
      <!-- pressure -->
      <g style="fill: #ffffff" transform="translate(206.258906 270.572344) scale(0.11 -0.11)">
       <defs>
        <path id="ArialMT-73" d="M 197 991 
L 753 1078 
Q 800 744 1014 566 
Q 1228 388 1613 388 
Q 2000 388 2187 545 
Q 2375 703 2375 916 
Q 2375 1106 2209 1216 
Q 2094 1291 1634 1406 
Q 1016 1563 777 1677 
Q 538 1791 414 1992 
Q 291 2194 291 2438 
Q 291 2659 392 2848 
Q 494 3038 669 3163 
Q 800 3259 1026 3326 
Q 1253 3394 1513 3394 
Q 1903 3394 2198 3281 
Q 2494 3169 2634 2976 
Q 2775 2784 2828 2463 
L 2278 2388 
Q 2241 2644 2061 2787 
Q 1881 2931 1553 2931 
Q 1166 2931 1000 2803 
Q 834 2675 834 2503 
Q 834 2394 903 2306 
Q 972 2216 1119 2156 
Q 1203 2125 1616 2013 
Q 2213 1853 2448 1751 
Q 2684 1650 2818 1456 
Q 2953 1263 2953 975 
Q 2953 694 2789 445 
Q 2625 197 2315 61 
Q 2006 -75 1616 -75 
Q 969 -75 630 194 
Q 291 463 197 991 
z
" transform="scale(0.015625)"/>
       </defs>
       <use xlink:href="#ArialMT-70"/>
       <use xlink:href="#ArialMT-72" x="55.615234"/>
       <use xlink:href="#ArialMT-65" x="88.916016"/>
       <use xlink:href="#ArialMT-73" x="144.53125"/>
       <use xlink:href="#ArialMT-73" x="194.53125"/>
       <use xlink:href="#ArialMT-75" x="244.53125"/>
       <use xlink:href="#ArialMT-72" x="300.146484"/>
       <use xlink:href="#ArialMT-65" x="333.447266"/>
      </g>
     </g>
    </g>
    <g id="xtick_3">
     <g id="text_3">
      <!-- humidity -->
      <g style="fill: #ffffff" transform="translate(335.980469 270.572344) scale(0.11 -0.11)">
       <defs>
        <path id="ArialMT-68" d="M 422 0 
L 422 4581 
L 984 4581 
L 984 2938 
Q 1378 3394 1978 3394 
Q 2347 3394 2619 3248 
Q 2891 3103 3008 2847 
Q 3125 2591 3125 2103 
L 3125 0 
L 2563 0 
L 2563 2103 
Q 2563 2525 2380 2717 
Q 2197 2909 1863 2909 
Q 1613 2909 1392 2779 
Q 1172 2650 1078 2428 
Q 984 2206 984 1816 
L 984 0 
L 422 0 
z
" transform="scale(0.015625)"/>
        <path id="ArialMT-69" d="M 425 3934 
L 425 4581 
L 988 4581 
L 988 3934 
L 425 3934 
z
M 425 0 
L 425 3319 
L 988 3319 
L 988 0 
L 425 0 
z
" transform="scale(0.015625)"/>
        <path id="ArialMT-64" d="M 2575 0 
L 2575 419 
Q 2259 -75 1647 -75 
Q 1250 -75 917 144 
Q 584 363 401 755 
Q 219 1147 219 1656 
Q 219 2153 384 2558 
Q 550 2963 881 3178 
Q 1213 3394 1622 3394 
Q 1922 3394 2156 3267 
Q 2391 3141 2538 2938 
L 2538 4581 
L 3097 4581 
L 3097 0 
L 2575 0 
z
M 797 1656 
Q 797 1019 1065 703 
Q 1334 388 1700 388 
Q 2069 388 2326 689 
Q 2584 991 2584 1609 
Q 2584 2291 2321 2609 
Q 2059 2928 1675 2928 
Q 1300 2928 1048 2622 
Q 797 2316 797 1656 
z
" transform="scale(0.015625)"/>
        <path id="ArialMT-79" d="M 397 -1278 
L 334 -750 
Q 519 -800 656 -800 
Q 844 -800 956 -737 
Q 1069 -675 1141 -563 
Q 1194 -478 1313 -144 
Q 1328 -97 1363 -6 
L 103 3319 
L 709 3319 
L 1400 1397 
Q 1534 1031 1641 628 
Q 1738 1016 1872 1384 
L 2581 3319 
L 3144 3319 
L 1881 -56 
Q 1678 -603 1566 -809 
Q 1416 -1088 1222 -1217 
Q 1028 -1347 759 -1347 
Q 597 -1347 397 -1278 
z
" transform="scale(0.015625)"/>
       </defs>
       <use xlink:href="#ArialMT-68"/>
       <use xlink:href="#ArialMT-75" x="55.615234"/>
       <use xlink:href="#ArialMT-6d" x="111.230469"/>
       <use xlink:href="#ArialMT-69" x="194.53125"/>
       <use xlink:href="#ArialMT-64" x="216.748047"/>
       <use xlink:href="#ArialMT-69" x="272.363281"/>
       <use xlink:href="#ArialMT-74" x="294.580078"/>
       <use xlink:href="#ArialMT-79" x="322.363281"/>
      </g>
     </g>
    </g>
    <g id="xtick_4">
     <g id="text_4">
      <!-- wind_speed -->
      <g style="fill: #ffffff" transform="translate(455.909453 270.572344) scale(0.11 -0.11)">
       <defs>
        <path id="ArialMT-77" d="M 1034 0 
L 19 3319 
L 600 3319 
L 1128 1403 
L 1325 691 
Q 1338 744 1497 1375 
L 2025 3319 
L 2603 3319 
L 3100 1394 
L 3266 759 
L 3456 1400 
L 4025 3319 
L 4572 3319 
L 3534 0 
L 2950 0 
L 2422 1988 
L 2294 2553 
L 1622 0 
L 1034 0 
z
" transform="scale(0.015625)"/>
        <path id="ArialMT-6e" d="M 422 0 
L 422 3319 
L 928 3319 
L 928 2847 
Q 1294 3394 1984 3394 
Q 2284 3394 2536 3286 
Q 2788 3178 2913 3003 
Q 3038 2828 3088 2588 
Q 3119 2431 3119 2041 
L 3119 0 
L 2556 0 
L 2556 2019 
Q 2556 2363 2490 2533 
Q 2425 2703 2258 2804 
Q 2091 2906 1866 2906 
Q 1506 2906 1245 2678 
Q 984 2450 984 1813 
L 984 0 
L 422 0 
z
" transform="scale(0.015625)"/>
        <path id="ArialMT-5f" d="M -97 -1272 
L -97 -866 
L 3631 -866 
L 3631 -1272 
L -97 -1272 
z
" transform="scale(0.015625)"/>
       </defs>
       <use xlink:href="#ArialMT-77"/>
       <use xlink:href="#ArialMT-69" x="72.216797"/>
       <use xlink:href="#ArialMT-6e" x="94.433594"/>
       <use xlink:href="#ArialMT-64" x="150.048828"/>
       <use xlink:href="#ArialMT-5f" x="205.664062"/>
       <use xlink:href="#ArialMT-73" x="261.279297"/>
       <use xlink:href="#ArialMT-70" x="311.279297"/>
       <use xlink:href="#ArialMT-65" x="366.894531"/>
       <use xlink:href="#ArialMT-65" x="422.509766"/>
       <use xlink:href="#ArialMT-64" x="478.125"/>
      </g>
     </g>
    </g>
    <g id="xtick_5">
     <g id="text_5">
      <!-- wind_direction -->
      <g style="fill: #ffffff" transform="translate(578.909844 270.572344) scale(0.11 -0.11)">
       <defs>
        <path id="ArialMT-63" d="M 2588 1216 
L 3141 1144 
Q 3050 572 2676 248 
Q 2303 -75 1759 -75 
Q 1078 -75 664 370 
Q 250 816 250 1647 
Q 250 2184 428 2587 
Q 606 2991 970 3192 
Q 1334 3394 1763 3394 
Q 2303 3394 2647 3120 
Q 2991 2847 3088 2344 
L 2541 2259 
Q 2463 2594 2264 2762 
Q 2066 2931 1784 2931 
Q 1359 2931 1093 2626 
Q 828 2322 828 1663 
Q 828 994 1084 691 
Q 1341 388 1753 388 
Q 2084 388 2306 591 
Q 2528 794 2588 1216 
z
" transform="scale(0.015625)"/>
        <path id="ArialMT-6f" d="M 213 1659 
Q 213 2581 725 3025 
Q 1153 3394 1769 3394 
Q 2453 3394 2887 2945 
Q 3322 2497 3322 1706 
Q 3322 1066 3130 698 
Q 2938 331 2570 128 
Q 2203 -75 1769 -75 
Q 1072 -75 642 372 
Q 213 819 213 1659 
z
M 791 1659 
Q 791 1022 1069 705 
Q 1347 388 1769 388 
Q 2188 388 2466 706 
Q 2744 1025 2744 1678 
Q 2744 2294 2464 2611 
Q 2184 2928 1769 2928 
Q 1347 2928 1069 2612 
Q 791 2297 791 1659 
z
" transform="scale(0.015625)"/>
       </defs>
       <use xlink:href="#ArialMT-77"/>
       <use xlink:href="#ArialMT-69" x="72.216797"/>
       <use xlink:href="#ArialMT-6e" x="94.433594"/>
       <use xlink:href="#ArialMT-64" x="150.048828"/>
       <use xlink:href="#ArialMT-5f" x="205.664062"/>
       <use xlink:href="#ArialMT-64" x="261.279297"/>
       <use xlink:href="#ArialMT-69" x="316.894531"/>
       <use xlink:href="#ArialMT-72" x="339.111328"/>
       <use xlink:href="#ArialMT-65" x="372.412109"/>
       <use xlink:href="#ArialMT-63" x="428.027344"/>
       <use xlink:href="#ArialMT-74" x="478.027344"/>
       <use xlink:href="#ArialMT-69" x="505.810547"/>
       <use xlink:href="#ArialMT-6f" x="528.027344"/>
       <use xlink:href="#ArialMT-6e" x="583.642578"/>
      </g>
     </g>
    </g>
    <g id="xtick_6">
     <g id="text_6">
      <!-- precipitation -->
      <g style="fill: #ffffff" transform="translate(713.216172 270.572344) scale(0.11 -0.11)">
       <use xlink:href="#ArialMT-70"/>
       <use xlink:href="#ArialMT-72" x="55.615234"/>
       <use xlink:href="#ArialMT-65" x="88.916016"/>
       <use xlink:href="#ArialMT-63" x="144.53125"/>
       <use xlink:href="#ArialMT-69" x="194.53125"/>
       <use xlink:href="#ArialMT-70" x="216.748047"/>
       <use xlink:href="#ArialMT-69" x="272.363281"/>
       <use xlink:href="#ArialMT-74" x="294.580078"/>
       <use xlink:href="#ArialMT-61" x="322.363281"/>
       <use xlink:href="#ArialMT-74" x="377.978516"/>
       <use xlink:href="#ArialMT-69" x="405.761719"/>
       <use xlink:href="#ArialMT-6f" x="427.978516"/>
       <use xlink:href="#ArialMT-6e" x="483.59375"/>
      </g>
     </g>
    </g>
    <g id="xtick_7">
     <g id="text_7">
      <!-- cloudiness -->
      <g style="fill: #ffffff" transform="translate(845.687734 270.572344) scale(0.11 -0.11)">
       <defs>
        <path id="ArialMT-6c" d="M 409 0 
L 409 4581 
L 972 4581 
L 972 0 
L 409 0 
z
" transform="scale(0.015625)"/>
       </defs>
       <use xlink:href="#ArialMT-63"/>
       <use xlink:href="#ArialMT-6c" x="50"/>
       <use xlink:href="#ArialMT-6f" x="72.216797"/>
       <use xlink:href="#ArialMT-75" x="127.832031"/>
       <use xlink:href="#ArialMT-64" x="183.447266"/>
       <use xlink:href="#ArialMT-69" x="239.0625"/>
       <use xlink:href="#ArialMT-6e" x="261.279297"/>
       <use xlink:href="#ArialMT-65" x="316.894531"/>
       <use xlink:href="#ArialMT-73" x="372.509766"/>
       <use xlink:href="#ArialMT-73" x="422.509766"/>
      </g>
     </g>
    </g>
    <g id="xtick_8">
     <g id="text_8">
      <!-- target -->
      <g style="fill: #ffffff" transform="translate(986.415312 270.443438) scale(0.11 -0.11)">
       <defs>
        <path id="ArialMT-67" d="M 319 -275 
L 866 -356 
Q 900 -609 1056 -725 
Q 1266 -881 1628 -881 
Q 2019 -881 2231 -725 
Q 2444 -569 2519 -288 
Q 2563 -116 2559 434 
Q 2191 0 1641 0 
Q 956 0 581 494 
Q 206 988 206 1678 
Q 206 2153 378 2554 
Q 550 2956 876 3175 
Q 1203 3394 1644 3394 
Q 2231 3394 2613 2919 
L 2613 3319 
L 3131 3319 
L 3131 450 
Q 3131 -325 2973 -648 
Q 2816 -972 2473 -1159 
Q 2131 -1347 1631 -1347 
Q 1038 -1347 672 -1080 
Q 306 -813 319 -275 
z
M 784 1719 
Q 784 1066 1043 766 
Q 1303 466 1694 466 
Q 2081 466 2343 764 
Q 2606 1063 2606 1700 
Q 2606 2309 2336 2618 
Q 2066 2928 1684 2928 
Q 1309 2928 1046 2623 
Q 784 2319 784 1719 
z
" transform="scale(0.015625)"/>
       </defs>
       <use xlink:href="#ArialMT-74"/>
       <use xlink:href="#ArialMT-61" x="27.783203"/>
       <use xlink:href="#ArialMT-72" x="83.398438"/>
       <use xlink:href="#ArialMT-67" x="116.699219"/>
       <use xlink:href="#ArialMT-65" x="172.314453"/>
       <use xlink:href="#ArialMT-74" x="227.929688"/>
      </g>
     </g>
    </g>
   </g>
   <g id="matplotlib.axis_2">
    <g id="ytick_1">
     <g id="line2d_1">
      <path d="M 34.45 238.134922 
L 1064.88 238.134922 
" clip-path="url(#p5bd514358a)" style="fill: none; stroke: #ffffff"/>
     </g>
     <g id="text_9">
      <!-- 0 -->
      <g style="fill: #ffffff" transform="translate(21.332969 242.071718) scale(0.11 -0.11)">
       <defs>
        <path id="ArialMT-30" d="M 266 2259 
Q 266 3072 433 3567 
Q 600 4063 929 4331 
Q 1259 4600 1759 4600 
Q 2128 4600 2406 4451 
Q 2684 4303 2865 4023 
Q 3047 3744 3150 3342 
Q 3253 2941 3253 2259 
Q 3253 1453 3087 958 
Q 2922 463 2592 192 
Q 2263 -78 1759 -78 
Q 1097 -78 719 397 
Q 266 969 266 2259 
z
M 844 2259 
Q 844 1131 1108 757 
Q 1372 384 1759 384 
Q 2147 384 2411 759 
Q 2675 1134 2675 2259 
Q 2675 3391 2411 3762 
Q 2147 4134 1753 4134 
Q 1366 4134 1134 3806 
Q 844 3388 844 2259 
z
" transform="scale(0.015625)"/>
       </defs>
       <use xlink:href="#ArialMT-30"/>
      </g>
     </g>
    </g>
    <g id="ytick_2">
     <g id="line2d_2">
      <path d="M 34.45 191.411521 
L 1064.88 191.411521 
" clip-path="url(#p5bd514358a)" style="fill: none; stroke: #ffffff"/>
     </g>
     <g id="text_10">
      <!-- 20 -->
      <g style="fill: #ffffff" transform="translate(15.215938 195.348318) scale(0.11 -0.11)">
       <defs>
        <path id="ArialMT-32" d="M 3222 541 
L 3222 0 
L 194 0 
Q 188 203 259 391 
Q 375 700 629 1000 
Q 884 1300 1366 1694 
Q 2113 2306 2375 2664 
Q 2638 3022 2638 3341 
Q 2638 3675 2398 3904 
Q 2159 4134 1775 4134 
Q 1369 4134 1125 3890 
Q 881 3647 878 3216 
L 300 3275 
Q 359 3922 746 4261 
Q 1134 4600 1788 4600 
Q 2447 4600 2831 4234 
Q 3216 3869 3216 3328 
Q 3216 3053 3103 2787 
Q 2991 2522 2730 2228 
Q 2469 1934 1863 1422 
Q 1356 997 1212 845 
Q 1069 694 975 541 
L 3222 541 
z
" transform="scale(0.015625)"/>
       </defs>
       <use xlink:href="#ArialMT-32"/>
       <use xlink:href="#ArialMT-30" x="55.615234"/>
      </g>
     </g>
    </g>
    <g id="ytick_3">
     <g id="line2d_3">
      <path d="M 34.45 144.688121 
L 1064.88 144.688121 
" clip-path="url(#p5bd514358a)" style="fill: none; stroke: #ffffff"/>
     </g>
     <g id="text_11">
      <!-- 40 -->
      <g style="fill: #ffffff" transform="translate(15.215938 148.624918) scale(0.11 -0.11)">
       <defs>
        <path id="ArialMT-34" d="M 2069 0 
L 2069 1097 
L 81 1097 
L 81 1613 
L 2172 4581 
L 2631 4581 
L 2631 1613 
L 3250 1613 
L 3250 1097 
L 2631 1097 
L 2631 0 
L 2069 0 
z
M 2069 1613 
L 2069 3678 
L 634 1613 
L 2069 1613 
z
" transform="scale(0.015625)"/>
       </defs>
       <use xlink:href="#ArialMT-34"/>
       <use xlink:href="#ArialMT-30" x="55.615234"/>
      </g>
     </g>
    </g>
    <g id="ytick_4">
     <g id="line2d_4">
      <path d="M 34.45 97.96472 
L 1064.88 97.96472 
" clip-path="url(#p5bd514358a)" style="fill: none; stroke: #ffffff"/>
     </g>
     <g id="text_12">
      <!-- 60 -->
      <g style="fill: #ffffff" transform="translate(15.215938 101.901517) scale(0.11 -0.11)">
       <defs>
        <path id="ArialMT-36" d="M 3184 3459 
L 2625 3416 
Q 2550 3747 2413 3897 
Q 2184 4138 1850 4138 
Q 1581 4138 1378 3988 
Q 1113 3794 959 3422 
Q 806 3050 800 2363 
Q 1003 2672 1297 2822 
Q 1591 2972 1913 2972 
Q 2475 2972 2870 2558 
Q 3266 2144 3266 1488 
Q 3266 1056 3080 686 
Q 2894 316 2569 119 
Q 2244 -78 1831 -78 
Q 1128 -78 684 439 
Q 241 956 241 2144 
Q 241 3472 731 4075 
Q 1159 4600 1884 4600 
Q 2425 4600 2770 4297 
Q 3116 3994 3184 3459 
z
M 888 1484 
Q 888 1194 1011 928 
Q 1134 663 1356 523 
Q 1578 384 1822 384 
Q 2178 384 2434 671 
Q 2691 959 2691 1453 
Q 2691 1928 2437 2201 
Q 2184 2475 1800 2475 
Q 1419 2475 1153 2201 
Q 888 1928 888 1484 
z
" transform="scale(0.015625)"/>
       </defs>
       <use xlink:href="#ArialMT-36"/>
       <use xlink:href="#ArialMT-30" x="55.615234"/>
      </g>
     </g>
    </g>
    <g id="ytick_5">
     <g id="line2d_5">
      <path d="M 34.45 51.24132 
L 1064.88 51.24132 
" clip-path="url(#p5bd514358a)" style="fill: none; stroke: #ffffff"/>
     </g>
     <g id="text_13">
      <!-- 80 -->
      <g style="fill: #ffffff" transform="translate(15.215938 55.178117) scale(0.11 -0.11)">
       <defs>
        <path id="ArialMT-38" d="M 1131 2484 
Q 781 2613 612 2850 
Q 444 3088 444 3419 
Q 444 3919 803 4259 
Q 1163 4600 1759 4600 
Q 2359 4600 2725 4251 
Q 3091 3903 3091 3403 
Q 3091 3084 2923 2848 
Q 2756 2613 2416 2484 
Q 2838 2347 3058 2040 
Q 3278 1734 3278 1309 
Q 3278 722 2862 322 
Q 2447 -78 1769 -78 
Q 1091 -78 675 323 
Q 259 725 259 1325 
Q 259 1772 486 2073 
Q 713 2375 1131 2484 
z
M 1019 3438 
Q 1019 3113 1228 2906 
Q 1438 2700 1772 2700 
Q 2097 2700 2305 2904 
Q 2513 3109 2513 3406 
Q 2513 3716 2298 3927 
Q 2084 4138 1766 4138 
Q 1444 4138 1231 3931 
Q 1019 3725 1019 3438 
z
M 838 1322 
Q 838 1081 952 856 
Q 1066 631 1291 507 
Q 1516 384 1775 384 
Q 2178 384 2440 643 
Q 2703 903 2703 1303 
Q 2703 1709 2433 1975 
Q 2163 2241 1756 2241 
Q 1359 2241 1098 1978 
Q 838 1716 838 1322 
z
" transform="scale(0.015625)"/>
       </defs>
       <use xlink:href="#ArialMT-38"/>
       <use xlink:href="#ArialMT-30" x="55.615234"/>
      </g>
     </g>
    </g>
   </g>
   <g id="PolyCollection_1">
    <defs>
     <path id="m9387491ba8" d="M 98.870558 -43.532713 
L 98.833192 -43.532713 
L 98.806666 -43.668097 
L 98.756254 -43.803481 
L 98.671716 -43.938864 
L 98.541952 -44.074248 
L 98.351943 -44.209631 
L 98.079668 -44.345015 
L 97.699264 -44.480399 
L 97.19128 -44.615782 
L 96.551004 -44.751166 
L 95.785079 -44.886549 
L 94.898224 -45.021933 
L 93.881338 -45.157316 
L 92.708749 -45.2927 
L 91.34491 -45.428084 
L 89.760699 -45.563467 
L 87.957948 -45.698851 
L 85.98704 -45.834234 
L 83.932863 -45.969618 
L 81.86507 -46.105002 
L 79.787452 -46.240385 
L 77.632001 -46.375769 
L 75.306426 -46.511152 
L 72.755609 -46.646536 
L 69.988845 -46.781919 
L 67.06389 -46.917303 
L 64.061148 -47.052687 
L 61.078233 -47.18807 
L 58.23618 -47.323454 
L 55.669247 -47.458837 
L 53.491535 -47.594221 
L 51.759447 -47.729605 
L 50.451866 -47.864988 
L 49.481551 -48.000372 
L 48.739484 -48.135755 
L 48.150906 -48.271139 
L 47.703094 -48.406523 
L 47.423073 -48.541906 
L 47.330375 -48.67729 
L 47.412337 -48.812673 
L 47.639617 -48.948057 
L 47.997111 -49.08344 
L 48.499188 -49.218824 
L 49.180783 -49.354208 
L 50.073287 -49.489591 
L 51.180542 -49.624975 
L 52.470225 -49.760358 
L 53.880852 -49.895742 
L 55.328167 -50.031126 
L 56.706537 -50.166509 
L 57.903147 -50.301893 
L 58.831011 -50.437276 
L 59.457535 -50.57266 
L 59.809027 -50.708043 
L 59.95757 -50.843427 
L 60.000931 -50.978811 
L 60.037278 -51.114194 
L 60.144516 -51.249578 
L 60.381182 -51.384961 
L 60.805712 -51.520345 
L 61.487412 -51.655729 
L 62.488235 -51.791112 
L 63.821888 -51.926496 
L 65.421155 -52.061879 
L 67.147539 -52.197263 
L 68.848607 -52.332647 
L 70.424112 -52.46803 
L 71.848793 -52.603414 
L 73.141364 -52.738797 
L 74.32276 -52.874181 
L 75.406788 -53.009564 
L 76.414851 -53.144948 
L 77.376447 -53.280332 
L 78.309334 -53.415715 
L 79.213802 -53.551099 
L 80.097926 -53.686482 
L 80.999815 -53.821866 
L 81.967993 -53.95725 
L 83.014789 -54.092633 
L 84.097629 -54.228017 
L 85.15665 -54.3634 
L 86.176418 -54.498784 
L 87.21233 -54.634167 
L 88.35452 -54.769551 
L 89.659483 -54.904935 
L 91.105475 -55.040318 
L 92.600007 -55.175702 
L 94.021718 -55.311085 
L 95.263137 -55.446469 
L 96.258236 -55.581853 
L 96.994942 -55.717236 
L 97.511578 -55.85262 
L 97.874868 -55.988003 
L 98.148138 -56.123387 
L 98.368623 -56.258771 
L 98.546215 -56.394154 
L 98.678259 -56.529538 
L 98.76476 -56.664921 
L 98.813654 -56.800305 
L 98.837308 -56.935688 
L 98.866442 -56.935688 
L 98.866442 -56.935688 
L 98.890096 -56.800305 
L 98.93899 -56.664921 
L 99.025491 -56.529538 
L 99.157535 -56.394154 
L 99.335127 -56.258771 
L 99.555612 -56.123387 
L 99.828882 -55.988003 
L 100.192172 -55.85262 
L 100.708808 -55.717236 
L 101.445514 -55.581853 
L 102.440613 -55.446469 
L 103.682032 -55.311085 
L 105.103743 -55.175702 
L 106.598275 -55.040318 
L 108.044267 -54.904935 
L 109.34923 -54.769551 
L 110.49142 -54.634167 
L 111.527332 -54.498784 
L 112.5471 -54.3634 
L 113.606121 -54.228017 
L 114.688961 -54.092633 
L 115.735757 -53.95725 
L 116.703935 -53.821866 
L 117.605824 -53.686482 
L 118.489948 -53.551099 
L 119.394416 -53.415715 
L 120.327303 -53.280332 
L 121.288899 -53.144948 
L 122.296962 -53.009564 
L 123.38099 -52.874181 
L 124.562386 -52.738797 
L 125.854957 -52.603414 
L 127.279638 -52.46803 
L 128.855143 -52.332647 
L 130.556211 -52.197263 
L 132.282595 -52.061879 
L 133.881862 -51.926496 
L 135.215515 -51.791112 
L 136.216338 -51.655729 
L 136.898038 -51.520345 
L 137.322568 -51.384961 
L 137.559234 -51.249578 
L 137.666472 -51.114194 
L 137.702819 -50.978811 
L 137.74618 -50.843427 
L 137.894723 -50.708043 
L 138.246215 -50.57266 
L 138.872739 -50.437276 
L 139.800603 -50.301893 
L 140.997213 -50.166509 
L 142.375583 -50.031126 
L 143.822898 -49.895742 
L 145.233525 -49.760358 
L 146.523208 -49.624975 
L 147.630463 -49.489591 
L 148.522967 -49.354208 
L 149.204562 -49.218824 
L 149.706639 -49.08344 
L 150.064133 -48.948057 
L 150.291413 -48.812673 
L 150.373375 -48.67729 
L 150.280677 -48.541906 
L 150.000656 -48.406523 
L 149.552844 -48.271139 
L 148.964266 -48.135755 
L 148.222199 -48.000372 
L 147.251884 -47.864988 
L 145.944303 -47.729605 
L 144.212215 -47.594221 
L 142.034503 -47.458837 
L 139.46757 -47.323454 
L 136.625517 -47.18807 
L 133.642602 -47.052687 
L 130.63986 -46.917303 
L 127.714905 -46.781919 
L 124.948141 -46.646536 
L 122.397324 -46.511152 
L 120.071749 -46.375769 
L 117.916298 -46.240385 
L 115.83868 -46.105002 
L 113.770887 -45.969618 
L 111.71671 -45.834234 
L 109.745802 -45.698851 
L 107.943051 -45.563467 
L 106.35884 -45.428084 
L 104.995001 -45.2927 
L 103.822412 -45.157316 
L 102.805526 -45.021933 
L 101.918671 -44.886549 
L 101.152746 -44.751166 
L 100.51247 -44.615782 
L 100.004486 -44.480399 
L 99.624082 -44.345015 
L 99.351807 -44.209631 
L 99.161798 -44.074248 
L 99.032034 -43.938864 
L 98.947496 -43.803481 
L 98.897084 -43.668097 
L 98.870558 -43.532713 
z
" style="stroke: #3e3e3e; stroke-width: 3"/>
    </defs>
    <g clip-path="url(#p5bd514358a)">
     <use xlink:href="#m9387491ba8" x="0" y="288" style="fill: #cb3335; stroke: #3e3e3e; stroke-width: 3"/>
    </g>
   </g>
   <g id="PolyCollection_2">
    <defs>
     <path id="mb62dd3143f" d="M 279.177125 -48.988627 
L 176.134125 -48.988627 
L 218.959089 -50.862011 
L 227.655544 -52.735396 
L 227.655625 -54.60878 
L 227.641323 -56.482165 
L 227.636057 -58.355549 
L 227.655611 -60.228934 
L 227.655625 -62.102318 
L 227.655625 -63.975703 
L 227.655625 -65.849087 
L 227.323262 -67.722472 
L 227.655381 -69.595856 
L 227.655625 -71.469241 
L 227.655625 -73.342625 
L 227.655625 -75.21601 
L 227.655625 -77.089394 
L 227.655625 -78.962779 
L 227.655625 -80.836163 
L 227.655625 -82.709548 
L 227.655625 -84.582932 
L 227.655625 -86.456317 
L 227.655625 -88.329701 
L 227.655625 -90.203086 
L 227.655625 -92.07647 
L 227.655625 -93.949855 
L 227.655625 -95.823239 
L 227.655625 -97.696624 
L 227.655625 -99.570008 
L 227.655625 -101.443393 
L 227.655625 -103.316777 
L 227.655625 -105.190162 
L 227.655625 -107.063546 
L 227.655625 -108.936931 
L 227.655625 -110.810315 
L 227.655625 -112.6837 
L 227.655625 -114.557085 
L 227.655625 -116.430469 
L 227.655625 -118.303854 
L 227.655625 -120.177238 
L 227.655625 -122.050623 
L 227.655625 -123.924007 
L 227.655625 -125.797392 
L 227.655625 -127.670776 
L 227.655625 -129.544161 
L 227.655625 -131.417545 
L 227.655625 -133.29093 
L 227.655625 -135.164314 
L 227.655625 -137.037699 
L 227.655625 -138.911083 
L 227.655625 -140.784468 
L 227.655625 -142.657852 
L 227.655625 -144.531237 
L 227.655625 -146.404621 
L 227.655625 -148.278006 
L 227.655625 -150.15139 
L 227.655625 -152.024775 
L 227.655625 -153.898159 
L 227.655625 -155.771544 
L 227.655625 -157.644928 
L 227.655625 -159.518313 
L 227.655625 -161.391697 
L 227.655625 -163.265082 
L 227.655625 -165.138466 
L 227.655625 -167.011851 
L 227.655625 -168.885235 
L 227.655625 -170.75862 
L 227.655625 -172.632004 
L 227.655625 -174.505389 
L 227.655625 -176.378773 
L 227.655625 -178.252158 
L 227.655625 -180.125542 
L 227.655625 -181.998927 
L 227.655625 -183.872311 
L 227.655625 -185.745696 
L 227.655625 -187.61908 
L 227.655625 -189.492465 
L 227.655625 -191.365849 
L 227.655625 -193.239234 
L 227.655625 -195.112618 
L 227.655625 -196.986003 
L 227.655625 -198.859387 
L 227.655625 -200.732772 
L 227.655625 -202.606157 
L 227.655625 -204.479541 
L 227.655625 -206.352926 
L 227.655625 -208.22631 
L 227.655625 -210.099695 
L 227.655625 -211.973079 
L 227.655625 -213.846464 
L 227.655625 -215.719848 
L 227.655625 -217.593233 
L 227.655625 -219.466617 
L 227.655625 -221.340002 
L 227.655625 -223.213386 
L 227.655625 -225.086771 
L 227.655625 -226.960155 
L 227.655625 -228.83354 
L 227.655625 -230.706924 
L 227.654156 -232.580309 
L 227.641849 -234.453693 
L 227.669401 -234.453693 
L 227.669401 -234.453693 
L 227.657094 -232.580309 
L 227.655625 -230.706924 
L 227.655625 -228.83354 
L 227.655625 -226.960155 
L 227.655625 -225.086771 
L 227.655625 -223.213386 
L 227.655625 -221.340002 
L 227.655625 -219.466617 
L 227.655625 -217.593233 
L 227.655625 -215.719848 
L 227.655625 -213.846464 
L 227.655625 -211.973079 
L 227.655625 -210.099695 
L 227.655625 -208.22631 
L 227.655625 -206.352926 
L 227.655625 -204.479541 
L 227.655625 -202.606157 
L 227.655625 -200.732772 
L 227.655625 -198.859387 
L 227.655625 -196.986003 
L 227.655625 -195.112618 
L 227.655625 -193.239234 
L 227.655625 -191.365849 
L 227.655625 -189.492465 
L 227.655625 -187.61908 
L 227.655625 -185.745696 
L 227.655625 -183.872311 
L 227.655625 -181.998927 
L 227.655625 -180.125542 
L 227.655625 -178.252158 
L 227.655625 -176.378773 
L 227.655625 -174.505389 
L 227.655625 -172.632004 
L 227.655625 -170.75862 
L 227.655625 -168.885235 
L 227.655625 -167.011851 
L 227.655625 -165.138466 
L 227.655625 -163.265082 
L 227.655625 -161.391697 
L 227.655625 -159.518313 
L 227.655625 -157.644928 
L 227.655625 -155.771544 
L 227.655625 -153.898159 
L 227.655625 -152.024775 
L 227.655625 -150.15139 
L 227.655625 -148.278006 
L 227.655625 -146.404621 
L 227.655625 -144.531237 
L 227.655625 -142.657852 
L 227.655625 -140.784468 
L 227.655625 -138.911083 
L 227.655625 -137.037699 
L 227.655625 -135.164314 
L 227.655625 -133.29093 
L 227.655625 -131.417545 
L 227.655625 -129.544161 
L 227.655625 -127.670776 
L 227.655625 -125.797392 
L 227.655625 -123.924007 
L 227.655625 -122.050623 
L 227.655625 -120.177238 
L 227.655625 -118.303854 
L 227.655625 -116.430469 
L 227.655625 -114.557085 
L 227.655625 -112.6837 
L 227.655625 -110.810315 
L 227.655625 -108.936931 
L 227.655625 -107.063546 
L 227.655625 -105.190162 
L 227.655625 -103.316777 
L 227.655625 -101.443393 
L 227.655625 -99.570008 
L 227.655625 -97.696624 
L 227.655625 -95.823239 
L 227.655625 -93.949855 
L 227.655625 -92.07647 
L 227.655625 -90.203086 
L 227.655625 -88.329701 
L 227.655625 -86.456317 
L 227.655625 -84.582932 
L 227.655625 -82.709548 
L 227.655625 -80.836163 
L 227.655625 -78.962779 
L 227.655625 -77.089394 
L 227.655625 -75.21601 
L 227.655625 -73.342625 
L 227.655625 -71.469241 
L 227.655869 -69.595856 
L 227.987988 -67.722472 
L 227.655625 -65.849087 
L 227.655625 -63.975703 
L 227.655625 -62.102318 
L 227.655639 -60.228934 
L 227.675193 -58.355549 
L 227.669927 -56.482165 
L 227.655625 -54.60878 
L 227.655706 -52.735396 
L 236.352161 -50.862011 
L 279.177125 -48.988627 
z
" style="stroke: #3e3e3e; stroke-width: 3"/>
    </defs>
    <g clip-path="url(#p5bd514358a)">
     <use xlink:href="#mb62dd3143f" x="0" y="288" style="fill: #477ca8; stroke: #3e3e3e; stroke-width: 3"/>
    </g>
   </g>
   <g id="PolyCollection_3">
    <defs>
     <path id="m183a5cf4a8" d="M 356.462447 -41.927557 
L 356.456303 -41.927557 
L 356.452443 -42.063613 
L 356.445661 -42.19967 
L 356.434841 -42.335726 
L 356.417888 -42.471783 
L 356.390088 -42.607839 
L 356.343031 -42.743896 
L 356.266469 -42.879952 
L 356.153864 -43.016009 
L 356.008348 -43.152065 
L 355.843035 -43.288122 
L 355.672276 -43.424178 
L 355.497818 -43.560235 
L 355.299439 -43.696291 
L 355.037716 -43.832348 
L 354.668617 -43.968404 
L 354.161857 -44.104461 
L 353.512239 -44.240517 
L 352.736494 -44.376574 
L 351.856873 -44.51263 
L 350.882142 -44.648687 
L 349.797647 -44.784743 
L 348.567949 -44.920799 
L 347.150045 -45.056856 
L 345.516794 -45.192912 
L 343.685456 -45.328969 
L 341.730937 -45.465025 
L 339.763354 -45.601082 
L 337.882336 -45.737138 
L 336.151183 -45.873195 
L 334.61182 -46.009251 
L 333.304027 -46.145308 
L 332.241773 -46.281364 
L 331.364935 -46.417421 
L 330.540279 -46.553477 
L 329.642431 -46.689534 
L 328.648716 -46.82559 
L 327.657354 -46.961647 
L 326.817586 -47.097703 
L 326.238539 -47.23376 
L 325.935902 -47.369816 
L 325.824334 -47.505873 
L 325.746553 -47.641929 
L 325.537932 -47.777986 
L 325.106523 -47.914042 
L 324.476328 -48.050099 
L 323.754096 -48.186155 
L 323.04043 -48.322212 
L 322.353836 -48.458268 
L 321.625251 -48.594325 
L 320.762543 -48.730381 
L 319.727799 -48.866438 
L 318.56259 -49.002494 
L 317.348972 -49.13855 
L 316.156343 -49.274607 
L 315.0255 -49.410663 
L 313.981234 -49.54672 
L 313.027686 -49.682776 
L 312.1205 -49.818833 
L 311.165878 -49.954889 
L 310.078693 -50.090946 
L 308.857639 -50.227002 
L 307.606136 -50.363059 
L 306.481188 -50.499115 
L 305.619823 -50.635172 
L 305.099484 -50.771228 
L 304.937875 -50.907285 
L 305.095911 -51.043341 
L 305.468329 -51.179398 
L 305.897927 -51.315454 
L 306.24385 -51.451511 
L 306.464082 -51.587567 
L 306.638805 -51.723624 
L 306.920297 -51.85968 
L 307.465209 -51.995737 
L 308.396434 -52.131793 
L 309.788667 -52.26785 
L 311.658455 -52.403906 
L 313.965849 -52.539963 
L 316.638492 -52.676019 
L 319.600446 -52.812076 
L 322.778068 -52.948132 
L 326.084946 -53.084189 
L 329.415945 -53.220245 
L 332.668251 -53.356302 
L 335.773578 -53.492358 
L 338.712966 -53.628414 
L 341.502352 -53.764471 
L 344.159875 -53.900527 
L 346.675933 -54.036584 
L 349.002432 -54.17264 
L 351.064797 -54.308697 
L 352.788665 -54.444753 
L 354.128677 -54.58081 
L 355.087078 -54.716866 
L 355.713475 -54.852923 
L 356.086483 -54.988979 
L 356.288706 -55.125036 
L 356.388372 -55.261092 
L 356.432796 -55.397149 
L 356.485954 -55.397149 
L 356.485954 -55.397149 
L 356.530378 -55.261092 
L 356.630044 -55.125036 
L 356.832267 -54.988979 
L 357.205275 -54.852923 
L 357.831672 -54.716866 
L 358.790073 -54.58081 
L 360.130085 -54.444753 
L 361.853953 -54.308697 
L 363.916318 -54.17264 
L 366.242817 -54.036584 
L 368.758875 -53.900527 
L 371.416398 -53.764471 
L 374.205784 -53.628414 
L 377.145172 -53.492358 
L 380.250499 -53.356302 
L 383.502805 -53.220245 
L 386.833804 -53.084189 
L 390.140682 -52.948132 
L 393.318304 -52.812076 
L 396.280258 -52.676019 
L 398.952901 -52.539963 
L 401.260295 -52.403906 
L 403.130083 -52.26785 
L 404.522316 -52.131793 
L 405.453541 -51.995737 
L 405.998453 -51.85968 
L 406.279945 -51.723624 
L 406.454668 -51.587567 
L 406.6749 -51.451511 
L 407.020823 -51.315454 
L 407.450421 -51.179398 
L 407.822839 -51.043341 
L 407.980875 -50.907285 
L 407.819266 -50.771228 
L 407.298927 -50.635172 
L 406.437562 -50.499115 
L 405.312614 -50.363059 
L 404.061111 -50.227002 
L 402.840057 -50.090946 
L 401.752872 -49.954889 
L 400.79825 -49.818833 
L 399.891064 -49.682776 
L 398.937516 -49.54672 
L 397.89325 -49.410663 
L 396.762407 -49.274607 
L 395.569778 -49.13855 
L 394.35616 -49.002494 
L 393.190951 -48.866438 
L 392.156207 -48.730381 
L 391.293499 -48.594325 
L 390.564914 -48.458268 
L 389.87832 -48.322212 
L 389.164654 -48.186155 
L 388.442422 -48.050099 
L 387.812227 -47.914042 
L 387.380818 -47.777986 
L 387.172197 -47.641929 
L 387.094416 -47.505873 
L 386.982848 -47.369816 
L 386.680211 -47.23376 
L 386.101164 -47.097703 
L 385.261396 -46.961647 
L 384.270034 -46.82559 
L 383.276319 -46.689534 
L 382.378471 -46.553477 
L 381.553815 -46.417421 
L 380.676977 -46.281364 
L 379.614723 -46.145308 
L 378.30693 -46.009251 
L 376.767567 -45.873195 
L 375.036414 -45.737138 
L 373.155396 -45.601082 
L 371.187813 -45.465025 
L 369.233294 -45.328969 
L 367.401956 -45.192912 
L 365.768705 -45.056856 
L 364.350801 -44.920799 
L 363.121103 -44.784743 
L 362.036608 -44.648687 
L 361.061877 -44.51263 
L 360.182256 -44.376574 
L 359.406511 -44.240517 
L 358.756893 -44.104461 
L 358.250133 -43.968404 
L 357.881034 -43.832348 
L 357.619311 -43.696291 
L 357.420932 -43.560235 
L 357.246474 -43.424178 
L 357.075715 -43.288122 
L 356.910402 -43.152065 
L 356.764886 -43.016009 
L 356.652281 -42.879952 
L 356.575719 -42.743896 
L 356.528662 -42.607839 
L 356.500862 -42.471783 
L 356.483909 -42.335726 
L 356.473089 -42.19967 
L 356.466307 -42.063613 
L 356.462447 -41.927557 
z
" style="stroke: #3e3e3e; stroke-width: 3"/>
    </defs>
    <g clip-path="url(#p5bd514358a)">
     <use xlink:href="#m183a5cf4a8" x="0" y="288" style="fill: #59a257; stroke: #3e3e3e; stroke-width: 3"/>
    </g>
   </g>
   <g id="PolyCollection_4">
    <defs>
     <path id="m6b4277b437" d="M 485.26964 -44.960591 
L 485.25661 -44.960591 
L 485.093836 -45.490799 
L 483.648714 -46.021008 
L 476.309187 -46.551217 
L 459.744391 -47.081426 
L 442.572185 -47.611635 
L 433.741625 -48.141844 
L 435.790776 -48.672053 
L 441.184589 -49.202262 
L 447.116345 -49.73247 
L 453.598387 -50.262679 
L 459.882185 -50.792888 
L 463.237277 -51.323097 
L 466.370962 -51.853306 
L 470.319985 -52.383515 
L 472.75527 -52.913724 
L 475.604455 -53.443932 
L 478.231413 -53.974141 
L 479.896438 -54.50435 
L 480.860373 -55.034559 
L 482.192697 -55.564768 
L 483.157919 -56.094977 
L 483.473748 -56.625186 
L 483.764809 -57.155394 
L 484.13655 -57.685603 
L 484.47297 -58.215812 
L 484.712301 -58.746021 
L 484.745579 -59.27623 
L 484.859229 -59.806439 
L 484.965107 -60.336648 
L 485.103866 -60.866856 
L 485.131344 -61.397065 
L 485.170202 -61.927274 
L 485.211429 -62.457483 
L 485.23348 -62.987692 
L 485.254784 -63.517901 
L 485.262847 -64.04811 
L 485.263124 -64.578318 
L 485.263124 -65.108527 
L 485.262878 -65.638736 
L 485.255284 -66.168945 
L 485.238187 -66.699154 
L 485.252389 -67.229363 
L 485.262632 -67.759572 
L 485.263123 -68.28978 
L 485.263125 -68.819989 
L 485.263125 -69.350198 
L 485.263125 -69.880407 
L 485.263125 -70.410616 
L 485.263125 -70.940825 
L 485.263125 -71.471034 
L 485.263125 -72.001242 
L 485.263125 -72.531451 
L 485.263125 -73.06166 
L 485.263125 -73.591869 
L 485.263125 -74.122078 
L 485.263125 -74.652287 
L 485.263125 -75.182496 
L 485.263125 -75.712704 
L 485.263125 -76.242913 
L 485.263125 -76.773122 
L 485.263125 -77.303331 
L 485.263125 -77.83354 
L 485.263125 -78.363749 
L 485.263125 -78.893958 
L 485.263125 -79.424166 
L 485.263125 -79.954375 
L 485.263125 -80.484584 
L 485.263125 -81.014793 
L 485.263125 -81.545002 
L 485.263125 -82.075211 
L 485.263125 -82.60542 
L 485.263125 -83.135628 
L 485.263125 -83.665837 
L 485.263125 -84.196046 
L 485.263125 -84.726255 
L 485.263125 -85.256464 
L 485.263125 -85.786673 
L 485.263125 -86.316882 
L 485.263125 -86.84709 
L 485.263125 -87.377299 
L 485.263125 -87.907508 
L 485.263125 -88.437717 
L 485.263125 -88.967926 
L 485.263125 -89.498135 
L 485.263125 -90.028344 
L 485.263125 -90.558552 
L 485.263125 -91.088761 
L 485.263125 -91.61897 
L 485.263125 -92.149179 
L 485.263125 -92.679388 
L 485.263125 -93.209597 
L 485.263125 -93.739806 
L 485.263125 -94.270014 
L 485.263125 -94.800223 
L 485.263124 -95.330432 
L 485.262909 -95.860641 
L 485.256651 -96.39085 
L 485.249643 -96.921059 
L 485.261173 -97.451268 
L 485.265077 -97.451268 
L 485.265077 -97.451268 
L 485.276607 -96.921059 
L 485.269599 -96.39085 
L 485.263341 -95.860641 
L 485.263126 -95.330432 
L 485.263125 -94.800223 
L 485.263125 -94.270014 
L 485.263125 -93.739806 
L 485.263125 -93.209597 
L 485.263125 -92.679388 
L 485.263125 -92.149179 
L 485.263125 -91.61897 
L 485.263125 -91.088761 
L 485.263125 -90.558552 
L 485.263125 -90.028344 
L 485.263125 -89.498135 
L 485.263125 -88.967926 
L 485.263125 -88.437717 
L 485.263125 -87.907508 
L 485.263125 -87.377299 
L 485.263125 -86.84709 
L 485.263125 -86.316882 
L 485.263125 -85.786673 
L 485.263125 -85.256464 
L 485.263125 -84.726255 
L 485.263125 -84.196046 
L 485.263125 -83.665837 
L 485.263125 -83.135628 
L 485.263125 -82.60542 
L 485.263125 -82.075211 
L 485.263125 -81.545002 
L 485.263125 -81.014793 
L 485.263125 -80.484584 
L 485.263125 -79.954375 
L 485.263125 -79.424166 
L 485.263125 -78.893958 
L 485.263125 -78.363749 
L 485.263125 -77.83354 
L 485.263125 -77.303331 
L 485.263125 -76.773122 
L 485.263125 -76.242913 
L 485.263125 -75.712704 
L 485.263125 -75.182496 
L 485.263125 -74.652287 
L 485.263125 -74.122078 
L 485.263125 -73.591869 
L 485.263125 -73.06166 
L 485.263125 -72.531451 
L 485.263125 -72.001242 
L 485.263125 -71.471034 
L 485.263125 -70.940825 
L 485.263125 -70.410616 
L 485.263125 -69.880407 
L 485.263125 -69.350198 
L 485.263125 -68.819989 
L 485.263127 -68.28978 
L 485.263618 -67.759572 
L 485.273861 -67.229363 
L 485.288063 -66.699154 
L 485.270966 -66.168945 
L 485.263372 -65.638736 
L 485.263126 -65.108527 
L 485.263126 -64.578318 
L 485.263403 -64.04811 
L 485.271466 -63.517901 
L 485.29277 -62.987692 
L 485.314821 -62.457483 
L 485.356048 -61.927274 
L 485.394906 -61.397065 
L 485.422384 -60.866856 
L 485.561143 -60.336648 
L 485.667021 -59.806439 
L 485.780671 -59.27623 
L 485.813949 -58.746021 
L 486.05328 -58.215812 
L 486.3897 -57.685603 
L 486.761441 -57.155394 
L 487.052502 -56.625186 
L 487.368331 -56.094977 
L 488.333553 -55.564768 
L 489.665877 -55.034559 
L 490.629812 -54.50435 
L 492.294837 -53.974141 
L 494.921795 -53.443932 
L 497.77098 -52.913724 
L 500.206265 -52.383515 
L 504.155288 -51.853306 
L 507.288973 -51.323097 
L 510.644065 -50.792888 
L 516.927863 -50.262679 
L 523.409905 -49.73247 
L 529.341661 -49.202262 
L 534.735474 -48.672053 
L 536.784625 -48.141844 
L 527.954065 -47.611635 
L 510.781859 -47.081426 
L 494.217063 -46.551217 
L 486.877536 -46.021008 
L 485.432414 -45.490799 
L 485.26964 -44.960591 
z
" style="stroke: #3e3e3e; stroke-width: 3"/>
    </defs>
    <g clip-path="url(#p5bd514358a)">
     <use xlink:href="#m6b4277b437" x="0" y="288" style="fill: #905998; stroke: #3e3e3e; stroke-width: 3"/>
    </g>
   </g>
   <g id="PolyCollection_5">
    <defs>
     <path id="m90b17cf39a" d="M 614.08215 -42.425661 
L 614.0516 -42.425661 
L 614.020196 -42.577947 
L 613.946758 -42.730232 
L 613.805195 -42.882518 
L 613.580824 -43.034803 
L 613.2886 -43.187089 
L 612.972481 -43.339374 
L 612.674651 -43.49166 
L 612.397648 -43.643945 
L 612.099258 -43.796231 
L 611.728063 -43.948516 
L 611.263602 -44.100802 
L 610.724331 -44.253088 
L 610.141941 -44.405373 
L 609.528181 -44.557659 
L 608.860855 -44.709944 
L 608.092644 -44.86223 
L 607.162524 -45.014515 
L 606.001305 -45.166801 
L 604.555435 -45.319086 
L 602.839255 -45.471372 
L 600.969274 -45.623657 
L 599.126762 -45.775943 
L 597.464473 -45.928229 
L 596.031195 -46.080514 
L 594.764752 -46.2328 
L 593.542762 -46.385085 
L 592.248172 -46.537371 
L 590.805305 -46.689656 
L 589.171015 -46.841942 
L 587.327286 -46.994227 
L 585.321465 -47.146513 
L 583.290328 -47.298799 
L 581.367743 -47.451084 
L 579.537399 -47.60337 
L 577.614791 -47.755655 
L 575.401354 -47.907941 
L 572.851332 -48.060226 
L 570.111745 -48.212512 
L 567.455054 -48.364797 
L 565.189254 -48.517083 
L 563.573162 -48.669368 
L 562.722801 -48.821654 
L 562.545375 -48.97394 
L 562.779774 -49.126225 
L 563.138585 -49.278511 
L 563.437758 -49.430796 
L 563.627254 -49.583082 
L 563.738376 -49.735367 
L 563.810511 -49.887653 
L 563.848367 -50.039938 
L 563.827988 -50.192224 
L 563.738264 -50.344509 
L 563.625922 -50.496795 
L 563.60356 -50.649081 
L 563.807902 -50.801366 
L 564.347084 -50.953652 
L 565.273518 -51.105937 
L 566.57655 -51.258223 
L 568.180853 -51.410508 
L 569.952005 -51.562794 
L 571.72834 -51.715079 
L 573.403694 -51.867365 
L 575.020095 -52.019651 
L 576.751088 -52.171936 
L 578.742302 -52.324222 
L 580.970222 -52.476507 
L 583.283169 -52.628793 
L 585.55949 -52.781078 
L 587.785981 -52.933364 
L 589.993115 -53.085649 
L 592.162565 -53.237935 
L 594.223505 -53.39022 
L 596.122736 -53.542506 
L 597.867948 -53.694792 
L 599.495737 -53.847077 
L 601.022883 -53.999363 
L 602.448307 -54.151648 
L 603.781974 -54.303934 
L 605.042072 -54.456219 
L 606.232735 -54.608505 
L 607.350106 -54.76079 
L 608.402053 -54.913076 
L 609.395392 -55.065361 
L 610.306286 -55.217647 
L 611.086053 -55.369933 
L 611.701012 -55.522218 
L 612.157664 -55.674504 
L 612.492447 -55.826789 
L 612.74894 -55.979075 
L 612.963562 -56.13136 
L 613.159308 -56.283646 
L 613.344277 -56.435931 
L 613.516456 -56.588217 
L 613.671136 -56.740503 
L 613.803883 -56.892788 
L 613.909759 -57.045074 
L 613.984881 -57.197359 
L 614.03039 -57.349645 
L 614.053278 -57.50193 
L 614.080472 -57.50193 
L 614.080472 -57.50193 
L 614.10336 -57.349645 
L 614.148869 -57.197359 
L 614.223991 -57.045074 
L 614.329867 -56.892788 
L 614.462614 -56.740503 
L 614.617294 -56.588217 
L 614.789473 -56.435931 
L 614.974442 -56.283646 
L 615.170188 -56.13136 
L 615.38481 -55.979075 
L 615.641303 -55.826789 
L 615.976086 -55.674504 
L 616.432738 -55.522218 
L 617.047697 -55.369933 
L 617.827464 -55.217647 
L 618.738358 -55.065361 
L 619.731697 -54.913076 
L 620.783644 -54.76079 
L 621.901015 -54.608505 
L 623.091678 -54.456219 
L 624.351776 -54.303934 
L 625.685443 -54.151648 
L 627.110867 -53.999363 
L 628.638013 -53.847077 
L 630.265802 -53.694792 
L 632.011014 -53.542506 
L 633.910245 -53.39022 
L 635.971185 -53.237935 
L 638.140635 -53.085649 
L 640.347769 -52.933364 
L 642.57426 -52.781078 
L 644.850581 -52.628793 
L 647.163528 -52.476507 
L 649.391448 -52.324222 
L 651.382662 -52.171936 
L 653.113655 -52.019651 
L 654.730056 -51.867365 
L 656.40541 -51.715079 
L 658.181745 -51.562794 
L 659.952897 -51.410508 
L 661.5572 -51.258223 
L 662.860232 -51.105937 
L 663.786666 -50.953652 
L 664.325848 -50.801366 
L 664.53019 -50.649081 
L 664.507828 -50.496795 
L 664.395486 -50.344509 
L 664.305762 -50.192224 
L 664.285383 -50.039938 
L 664.323239 -49.887653 
L 664.395374 -49.735367 
L 664.506496 -49.583082 
L 664.695992 -49.430796 
L 664.995165 -49.278511 
L 665.353976 -49.126225 
L 665.588375 -48.97394 
L 665.410949 -48.821654 
L 664.560588 -48.669368 
L 662.944496 -48.517083 
L 660.678696 -48.364797 
L 658.022005 -48.212512 
L 655.282418 -48.060226 
L 652.732396 -47.907941 
L 650.518959 -47.755655 
L 648.596351 -47.60337 
L 646.766007 -47.451084 
L 644.843422 -47.298799 
L 642.812285 -47.146513 
L 640.806464 -46.994227 
L 638.962735 -46.841942 
L 637.328445 -46.689656 
L 635.885578 -46.537371 
L 634.590988 -46.385085 
L 633.368998 -46.2328 
L 632.102555 -46.080514 
L 630.669277 -45.928229 
L 629.006988 -45.775943 
L 627.164476 -45.623657 
L 625.294495 -45.471372 
L 623.578315 -45.319086 
L 622.132445 -45.166801 
L 620.971226 -45.014515 
L 620.041106 -44.86223 
L 619.272895 -44.709944 
L 618.605569 -44.557659 
L 617.991809 -44.405373 
L 617.409419 -44.253088 
L 616.870148 -44.100802 
L 616.405687 -43.948516 
L 616.034492 -43.796231 
L 615.736102 -43.643945 
L 615.459099 -43.49166 
L 615.161269 -43.339374 
L 614.84515 -43.187089 
L 614.552926 -43.034803 
L 614.328555 -42.882518 
L 614.186992 -42.730232 
L 614.113554 -42.577947 
L 614.08215 -42.425661 
z
" style="stroke: #3e3e3e; stroke-width: 3"/>
    </defs>
    <g clip-path="url(#p5bd514358a)">
     <use xlink:href="#m90b17cf39a" x="0" y="288" style="fill: #df7f20; stroke: #3e3e3e; stroke-width: 3"/>
    </g>
   </g>
   <g id="PolyCollection_6">
    <defs>
     <path id="m05abb175cc" d="M 750.171211 -48.289304 
L 735.570039 -48.289304 
L 702.38242 -48.691013 
L 691.349125 -49.092722 
L 716.653007 -49.494431 
L 728.923495 -49.896141 
L 736.968098 -50.29785 
L 737.999386 -50.699559 
L 736.474375 -51.101268 
L 738.318232 -51.502977 
L 739.648764 -51.904686 
L 741.096033 -52.306395 
L 741.677601 -52.708104 
L 741.813504 -53.109813 
L 741.988906 -53.511522 
L 742.321741 -53.913231 
L 742.533211 -54.31494 
L 742.683112 -54.716649 
L 742.708276 -55.118358 
L 742.50842 -55.520068 
L 741.544773 -55.921777 
L 741.082625 -56.323486 
L 741.91002 -56.725195 
L 742.345917 -57.126904 
L 742.682946 -57.528613 
L 742.738625 -57.930322 
L 742.681449 -58.332031 
L 742.704239 -58.73374 
L 742.720007 -59.135449 
L 742.790221 -59.537158 
L 742.823826 -59.938867 
L 742.823219 -60.340576 
L 742.829242 -60.742286 
L 742.852245 -61.143995 
L 742.846926 -61.545704 
L 742.824725 -61.947413 
L 742.844643 -62.349122 
L 742.865236 -62.750831 
L 742.855802 -63.15254 
L 742.848192 -63.554249 
L 742.859918 -63.955958 
L 742.862956 -64.357667 
L 742.857019 -64.759376 
L 742.855766 -65.161085 
L 742.855064 -65.562794 
L 742.858083 -65.964504 
L 742.860066 -66.366213 
L 742.86365 -66.767922 
L 742.865823 -67.169631 
L 742.869134 -67.57134 
L 742.870517 -67.973049 
L 742.870623 -68.374758 
L 742.870595 -68.776467 
L 742.86921 -69.178176 
L 742.856199 -69.579885 
L 742.838786 -69.981594 
L 742.855415 -70.383303 
L 742.869052 -70.785012 
L 742.87059 -71.186721 
L 742.870619 -71.588431 
L 742.87024 -71.99014 
L 742.865052 -72.391849 
L 742.852518 -72.793558 
L 742.851057 -73.195267 
L 742.85074 -73.596976 
L 742.861344 -73.998685 
L 742.86745 -74.400394 
L 742.857637 -74.802103 
L 742.853918 -75.203812 
L 742.865965 -75.605521 
L 742.870344 -76.00723 
L 742.870621 -76.408939 
L 742.87049 -76.810649 
L 742.865353 -77.212358 
L 742.825957 -77.614067 
L 742.783466 -78.015776 
L 742.800883 -78.417485 
L 742.813709 -78.819194 
L 742.840337 -79.220903 
L 742.849705 -79.622612 
L 742.85043 -80.024321 
L 742.857771 -80.42603 
L 742.868556 -80.827739 
L 742.870552 -81.229448 
L 742.870624 -81.631157 
L 742.870528 -82.032867 
L 742.868412 -82.434576 
L 742.859723 -82.836285 
L 742.859002 -83.237994 
L 742.867943 -83.639703 
L 742.870486 -84.041412 
L 742.870385 -84.443121 
L 742.868386 -84.84483 
L 742.86608 -85.246539 
L 742.868628 -85.648248 
L 742.870434 -86.049957 
L 742.870562 -86.451666 
L 742.869573 -86.853375 
L 742.866559 -87.255084 
L 742.867224 -87.656794 
L 742.870009 -88.058503 
L 742.871241 -88.058503 
L 742.871241 -88.058503 
L 742.874026 -87.656794 
L 742.874691 -87.255084 
L 742.871677 -86.853375 
L 742.870688 -86.451666 
L 742.870816 -86.049957 
L 742.872622 -85.648248 
L 742.87517 -85.246539 
L 742.872864 -84.84483 
L 742.870865 -84.443121 
L 742.870764 -84.041412 
L 742.873307 -83.639703 
L 742.882248 -83.237994 
L 742.881527 -82.836285 
L 742.872838 -82.434576 
L 742.870722 -82.032867 
L 742.870626 -81.631157 
L 742.870698 -81.229448 
L 742.872694 -80.827739 
L 742.883479 -80.42603 
L 742.89082 -80.024321 
L 742.891545 -79.622612 
L 742.900913 -79.220903 
L 742.927541 -78.819194 
L 742.940367 -78.417485 
L 742.957784 -78.015776 
L 742.915293 -77.614067 
L 742.875897 -77.212358 
L 742.87076 -76.810649 
L 742.870629 -76.408939 
L 742.870906 -76.00723 
L 742.875285 -75.605521 
L 742.887332 -75.203812 
L 742.883613 -74.802103 
L 742.8738 -74.400394 
L 742.879906 -73.998685 
L 742.89051 -73.596976 
L 742.890193 -73.195267 
L 742.888732 -72.793558 
L 742.876198 -72.391849 
L 742.87101 -71.99014 
L 742.870631 -71.588431 
L 742.87066 -71.186721 
L 742.872198 -70.785012 
L 742.885835 -70.383303 
L 742.902464 -69.981594 
L 742.885051 -69.579885 
L 742.87204 -69.178176 
L 742.870655 -68.776467 
L 742.870627 -68.374758 
L 742.870733 -67.973049 
L 742.872116 -67.57134 
L 742.875427 -67.169631 
L 742.8776 -66.767922 
L 742.881184 -66.366213 
L 742.883167 -65.964504 
L 742.886186 -65.562794 
L 742.885484 -65.161085 
L 742.884231 -64.759376 
L 742.878294 -64.357667 
L 742.881332 -63.955958 
L 742.893058 -63.554249 
L 742.885448 -63.15254 
L 742.876014 -62.750831 
L 742.896607 -62.349122 
L 742.916525 -61.947413 
L 742.894324 -61.545704 
L 742.889005 -61.143995 
L 742.912008 -60.742286 
L 742.918031 -60.340576 
L 742.917424 -59.938867 
L 742.951029 -59.537158 
L 743.021243 -59.135449 
L 743.037011 -58.73374 
L 743.059801 -58.332031 
L 743.002625 -57.930322 
L 743.058304 -57.528613 
L 743.395333 -57.126904 
L 743.83123 -56.725195 
L 744.658625 -56.323486 
L 744.196477 -55.921777 
L 743.23283 -55.520068 
L 743.032974 -55.118358 
L 743.058138 -54.716649 
L 743.208039 -54.31494 
L 743.419509 -53.913231 
L 743.752344 -53.511522 
L 743.927746 -53.109813 
L 744.063649 -52.708104 
L 744.645217 -52.306395 
L 746.092486 -51.904686 
L 747.423018 -51.502977 
L 749.266875 -51.101268 
L 747.741864 -50.699559 
L 748.773152 -50.29785 
L 756.817755 -49.896141 
L 769.088243 -49.494431 
L 794.392125 -49.092722 
L 783.35883 -48.691013 
L 750.171211 -48.289304 
z
" style="stroke: #3e3e3e; stroke-width: 3"/>
    </defs>
    <g clip-path="url(#p5bd514358a)">
     <use xlink:href="#m05abb175cc" x="0" y="288" style="fill: #e6e64c; stroke: #3e3e3e; stroke-width: 3"/>
    </g>
   </g>
   <g id="PolyCollection_7">
    <defs>
     <path id="m0d7f3c382a" d="M 874.159551 -45.803249 
L 869.189199 -45.803249 
L 866.212941 -45.941661 
L 861.522216 -46.080074 
L 855.559664 -46.218487 
L 849.494107 -46.3569 
L 844.588488 -46.495313 
L 841.447348 -46.633726 
L 839.889012 -46.772139 
L 839.409506 -46.910552 
L 839.55057 -47.048965 
L 839.920422 -47.187378 
L 840.224983 -47.325791 
L 840.387046 -47.464204 
L 840.424126 -47.602617 
L 840.141345 -47.74103 
L 839.102018 -47.879443 
L 836.953504 -48.017856 
L 833.725685 -48.156269 
L 829.869101 -48.294682 
L 826.076299 -48.433094 
L 822.988712 -48.571507 
L 820.978053 -48.70992 
L 820.152875 -48.848333 
L 820.439052 -48.986746 
L 821.577519 -49.125159 
L 823.221372 -49.263572 
L 825.194479 -49.401985 
L 827.535743 -49.540398 
L 830.196024 -49.678811 
L 832.859273 -49.817224 
L 835.163155 -49.955637 
L 836.947397 -50.09405 
L 838.227769 -50.232463 
L 839.098124 -50.370876 
L 839.73504 -50.509289 
L 840.367216 -50.647702 
L 841.153688 -50.786115 
L 842.118736 -50.924527 
L 843.192844 -51.06294 
L 844.280596 -51.201353 
L 845.324697 -51.339766 
L 846.342856 -51.478179 
L 847.388114 -51.616592 
L 848.482441 -51.755005 
L 849.617701 -51.893418 
L 850.78579 -52.031831 
L 851.957991 -52.170244 
L 853.060726 -52.308657 
L 854.0144 -52.44707 
L 854.788944 -52.585483 
L 855.418177 -52.723896 
L 855.982303 -52.862309 
L 856.564777 -53.000722 
L 857.189999 -53.139135 
L 857.803407 -53.277548 
L 858.331769 -53.41596 
L 858.761222 -53.554373 
L 859.157871 -53.692786 
L 859.626962 -53.831199 
L 860.244778 -53.969612 
L 861.008059 -54.108025 
L 861.847185 -54.246438 
L 862.690049 -54.384851 
L 863.500874 -54.523264 
L 864.263238 -54.661677 
L 864.956878 -54.80009 
L 865.564051 -54.938503 
L 866.084966 -55.076916 
L 866.540881 -55.215329 
L 866.966462 -55.353742 
L 867.393767 -55.492155 
L 867.833422 -55.630568 
L 868.268818 -55.768981 
L 868.670361 -55.907393 
L 869.017746 -56.045806 
L 869.312986 -56.184219 
L 869.574836 -56.322632 
L 869.819557 -56.461045 
L 870.046067 -56.599458 
L 870.239861 -56.737871 
L 870.390135 -56.876284 
L 870.501972 -57.014697 
L 870.593356 -57.15311 
L 870.682936 -57.291523 
L 870.781239 -57.429936 
L 870.890465 -57.568349 
L 871.00698 -57.706762 
L 871.120958 -57.845175 
L 871.216892 -57.983588 
L 871.280598 -58.122001 
L 871.309835 -58.260414 
L 871.318954 -58.398826 
L 871.331751 -58.537239 
L 871.366822 -58.675652 
L 871.426675 -58.814065 
L 871.498716 -58.952478 
L 871.565662 -59.090891 
L 871.615933 -59.229304 
L 871.647178 -59.367717 
L 871.663456 -59.50613 
L 871.685294 -59.50613 
L 871.685294 -59.50613 
L 871.701572 -59.367717 
L 871.732817 -59.229304 
L 871.783088 -59.090891 
L 871.850034 -58.952478 
L 871.922075 -58.814065 
L 871.981928 -58.675652 
L 872.016999 -58.537239 
L 872.029796 -58.398826 
L 872.038915 -58.260414 
L 872.068152 -58.122001 
L 872.131858 -57.983588 
L 872.227792 -57.845175 
L 872.34177 -57.706762 
L 872.458285 -57.568349 
L 872.567511 -57.429936 
L 872.665814 -57.291523 
L 872.755394 -57.15311 
L 872.846778 -57.014697 
L 872.958615 -56.876284 
L 873.108889 -56.737871 
L 873.302683 -56.599458 
L 873.529193 -56.461045 
L 873.773914 -56.322632 
L 874.035764 -56.184219 
L 874.331004 -56.045806 
L 874.678389 -55.907393 
L 875.079932 -55.768981 
L 875.515328 -55.630568 
L 875.954983 -55.492155 
L 876.382288 -55.353742 
L 876.807869 -55.215329 
L 877.263784 -55.076916 
L 877.784699 -54.938503 
L 878.391872 -54.80009 
L 879.085512 -54.661677 
L 879.847876 -54.523264 
L 880.658701 -54.384851 
L 881.501565 -54.246438 
L 882.340691 -54.108025 
L 883.103972 -53.969612 
L 883.721788 -53.831199 
L 884.190879 -53.692786 
L 884.587528 -53.554373 
L 885.016981 -53.41596 
L 885.545343 -53.277548 
L 886.158751 -53.139135 
L 886.783973 -53.000722 
L 887.366447 -52.862309 
L 887.930573 -52.723896 
L 888.559806 -52.585483 
L 889.33435 -52.44707 
L 890.288024 -52.308657 
L 891.390759 -52.170244 
L 892.56296 -52.031831 
L 893.731049 -51.893418 
L 894.866309 -51.755005 
L 895.960636 -51.616592 
L 897.005894 -51.478179 
L 898.024053 -51.339766 
L 899.068154 -51.201353 
L 900.155906 -51.06294 
L 901.230014 -50.924527 
L 902.195062 -50.786115 
L 902.981534 -50.647702 
L 903.61371 -50.509289 
L 904.250626 -50.370876 
L 905.120981 -50.232463 
L 906.401353 -50.09405 
L 908.185595 -49.955637 
L 910.489477 -49.817224 
L 913.152726 -49.678811 
L 915.813007 -49.540398 
L 918.154271 -49.401985 
L 920.127378 -49.263572 
L 921.771231 -49.125159 
L 922.909698 -48.986746 
L 923.195875 -48.848333 
L 922.370697 -48.70992 
L 920.360038 -48.571507 
L 917.272451 -48.433094 
L 913.479649 -48.294682 
L 909.623065 -48.156269 
L 906.395246 -48.017856 
L 904.246732 -47.879443 
L 903.207405 -47.74103 
L 902.924624 -47.602617 
L 902.961704 -47.464204 
L 903.123767 -47.325791 
L 903.428328 -47.187378 
L 903.79818 -47.048965 
L 903.939244 -46.910552 
L 903.459738 -46.772139 
L 901.901402 -46.633726 
L 898.760262 -46.495313 
L 893.854643 -46.3569 
L 887.789086 -46.218487 
L 881.826534 -46.080074 
L 877.135809 -45.941661 
L 874.159551 -45.803249 
z
" style="stroke: #3e3e3e; stroke-width: 3"/>
    </defs>
    <g clip-path="url(#p5bd514358a)">
     <use xlink:href="#m0d7f3c382a" x="0" y="288" style="fill: #965a38; stroke: #3e3e3e; stroke-width: 3"/>
    </g>
   </g>
   <g id="PolyCollection_8">
    <defs>
     <path id="me02143fe26" d="M 1000.509034 -45.238971 
L 1000.447216 -45.238971 
L 1000.375514 -45.379291 
L 1000.179734 -45.519612 
L 999.717406 -45.659932 
L 998.772985 -45.800252 
L 997.098492 -45.940573 
L 994.500964 -46.080893 
L 990.926505 -46.221214 
L 986.476297 -46.361534 
L 981.35378 -46.501855 
L 975.817832 -46.642175 
L 970.191597 -46.782496 
L 964.870897 -46.922816 
L 960.248116 -47.063136 
L 956.576138 -47.203457 
L 953.891336 -47.343777 
L 952.057553 -47.484098 
L 950.869269 -47.624418 
L 950.12503 -47.764739 
L 949.653943 -47.905059 
L 949.330016 -48.04538 
L 949.092498 -48.1857 
L 948.956625 -48.32602 
L 948.995842 -48.466341 
L 949.295399 -48.606661 
L 949.896141 -48.746982 
L 950.76426 -48.887302 
L 951.819635 -49.027623 
L 953.001274 -49.167943 
L 954.292022 -49.308264 
L 955.668116 -49.448584 
L 957.049564 -49.588904 
L 958.33926 -49.729225 
L 959.516208 -49.869545 
L 960.663015 -50.009866 
L 961.882678 -50.150186 
L 963.193938 -50.290507 
L 964.515662 -50.430827 
L 965.742987 -50.571148 
L 966.82404 -50.711468 
L 967.772577 -50.851788 
L 968.64031 -50.992109 
L 969.499692 -51.132429 
L 970.438339 -51.27275 
L 971.534818 -51.41307 
L 972.821467 -51.553391 
L 974.275049 -51.693711 
L 975.842877 -51.834032 
L 977.462252 -51.974352 
L 979.050123 -52.114672 
L 980.498214 -52.254993 
L 981.710497 -52.395313 
L 982.661097 -52.535634 
L 983.416452 -52.675954 
L 984.098082 -52.816275 
L 984.816472 -52.956595 
L 985.621453 -53.096915 
L 986.487787 -53.237236 
L 987.332852 -53.377556 
L 988.061407 -53.517877 
L 988.620308 -53.658197 
L 989.026002 -53.798518 
L 989.342804 -53.938838 
L 989.63506 -54.079159 
L 989.934757 -54.219479 
L 990.242435 -54.359799 
L 990.55146 -54.50012 
L 990.874312 -54.64044 
L 991.248659 -54.780761 
L 991.715389 -54.921081 
L 992.287326 -55.061402 
L 992.936495 -55.201722 
L 993.607383 -55.342043 
L 994.241947 -55.482363 
L 994.801238 -55.622683 
L 995.277015 -55.763004 
L 995.691259 -55.903324 
L 996.084819 -56.043645 
L 996.499959 -56.183965 
L 996.962004 -56.324286 
L 997.466327 -56.464606 
L 997.980131 -56.604927 
L 998.462157 -56.745247 
L 998.886035 -56.885567 
L 999.247567 -57.025888 
L 999.553891 -57.166208 
L 999.810081 -57.306529 
L 1000.015364 -57.446849 
L 1000.167387 -57.58717 
L 1000.267352 -57.72749 
L 1000.32244 -57.867811 
L 1000.345598 -58.008131 
L 1000.353103 -58.148451 
L 1000.360034 -58.288772 
L 1000.37523 -58.429092 
L 1000.398997 -58.569413 
L 1000.425541 -58.709733 
L 1000.448243 -58.850054 
L 1000.463691 -58.990374 
L 1000.472222 -59.130695 
L 1000.484028 -59.130695 
L 1000.484028 -59.130695 
L 1000.492559 -58.990374 
L 1000.508007 -58.850054 
L 1000.530709 -58.709733 
L 1000.557253 -58.569413 
L 1000.58102 -58.429092 
L 1000.596216 -58.288772 
L 1000.603147 -58.148451 
L 1000.610652 -58.008131 
L 1000.63381 -57.867811 
L 1000.688898 -57.72749 
L 1000.788863 -57.58717 
L 1000.940886 -57.446849 
L 1001.146169 -57.306529 
L 1001.402359 -57.166208 
L 1001.708683 -57.025888 
L 1002.070215 -56.885567 
L 1002.494093 -56.745247 
L 1002.976119 -56.604927 
L 1003.489923 -56.464606 
L 1003.994246 -56.324286 
L 1004.456291 -56.183965 
L 1004.871431 -56.043645 
L 1005.264991 -55.903324 
L 1005.679235 -55.763004 
L 1006.155012 -55.622683 
L 1006.714303 -55.482363 
L 1007.348867 -55.342043 
L 1008.019755 -55.201722 
L 1008.668924 -55.061402 
L 1009.240861 -54.921081 
L 1009.707591 -54.780761 
L 1010.081938 -54.64044 
L 1010.40479 -54.50012 
L 1010.713815 -54.359799 
L 1011.021493 -54.219479 
L 1011.32119 -54.079159 
L 1011.613446 -53.938838 
L 1011.930248 -53.798518 
L 1012.335942 -53.658197 
L 1012.894843 -53.517877 
L 1013.623398 -53.377556 
L 1014.468463 -53.237236 
L 1015.334797 -53.096915 
L 1016.139778 -52.956595 
L 1016.858168 -52.816275 
L 1017.539798 -52.675954 
L 1018.295153 -52.535634 
L 1019.245753 -52.395313 
L 1020.458036 -52.254993 
L 1021.906127 -52.114672 
L 1023.493998 -51.974352 
L 1025.113373 -51.834032 
L 1026.681201 -51.693711 
L 1028.134783 -51.553391 
L 1029.421432 -51.41307 
L 1030.517911 -51.27275 
L 1031.456558 -51.132429 
L 1032.31594 -50.992109 
L 1033.183673 -50.851788 
L 1034.13221 -50.711468 
L 1035.213263 -50.571148 
L 1036.440588 -50.430827 
L 1037.762312 -50.290507 
L 1039.073572 -50.150186 
L 1040.293235 -50.009866 
L 1041.440042 -49.869545 
L 1042.61699 -49.729225 
L 1043.906686 -49.588904 
L 1045.288134 -49.448584 
L 1046.664228 -49.308264 
L 1047.954976 -49.167943 
L 1049.136615 -49.027623 
L 1050.19199 -48.887302 
L 1051.060109 -48.746982 
L 1051.660851 -48.606661 
L 1051.960408 -48.466341 
L 1051.999625 -48.32602 
L 1051.863752 -48.1857 
L 1051.626234 -48.04538 
L 1051.302307 -47.905059 
L 1050.83122 -47.764739 
L 1050.086981 -47.624418 
L 1048.898697 -47.484098 
L 1047.064914 -47.343777 
L 1044.380112 -47.203457 
L 1040.708134 -47.063136 
L 1036.085353 -46.922816 
L 1030.764653 -46.782496 
L 1025.138418 -46.642175 
L 1019.60247 -46.501855 
L 1014.479953 -46.361534 
L 1010.029745 -46.221214 
L 1006.455286 -46.080893 
L 1003.857758 -45.940573 
L 1002.183265 -45.800252 
L 1001.238844 -45.659932 
L 1000.776516 -45.519612 
L 1000.580736 -45.379291 
L 1000.509034 -45.238971 
z
" style="stroke: #3e3e3e; stroke-width: 3"/>
    </defs>
    <g clip-path="url(#p5bd514358a)">
     <use xlink:href="#me02143fe26" x="0" y="288" style="fill: #e890be; stroke: #3e3e3e; stroke-width: 3"/>
    </g>
   </g>
   <g id="line2d_6">
    <path d="M 98.851875 243.817852 
L 98.851875 231.713746 
" clip-path="url(#p5bd514358a)" style="fill: none; stroke: #3e3e3e; stroke-width: 3"/>
   </g>
   <g id="line2d_7">
    <path d="M 98.851875 239.946171 
L 98.851875 236.423046 
" clip-path="url(#p5bd514358a)" style="fill: none; stroke: #3e3e3e; stroke-width: 9"/>
   </g>
   <g id="line2d_8">
    <path d="M 227.655625 238.189673 
L 227.655625 238.159004 
" clip-path="url(#p5bd514358a)" style="fill: none; stroke: #3e3e3e; stroke-width: 3"/>
   </g>
   <g id="line2d_9">
    <path d="M 227.655625 238.178287 
L 227.655625 238.170574 
" clip-path="url(#p5bd514358a)" style="fill: none; stroke: #3e3e3e; stroke-width: 9"/>
   </g>
   <g id="line2d_10">
    <path d="M 356.459375 245.108519 
L 356.459375 233.252286 
" clip-path="url(#p5bd514358a)" style="fill: none; stroke: #3e3e3e; stroke-width: 3"/>
   </g>
   <g id="line2d_11">
    <path d="M 356.459375 239.888003 
L 356.459375 236.27138 
" clip-path="url(#p5bd514358a)" style="fill: none; stroke: #3e3e3e; stroke-width: 9"/>
   </g>
   <g id="line2d_12">
    <path d="M 485.263125 242.389975 
L 485.263125 232.426468 
" clip-path="url(#p5bd514358a)" style="fill: none; stroke: #3e3e3e; stroke-width: 3"/>
   </g>
   <g id="line2d_13">
    <path d="M 485.263125 239.98499 
L 485.263125 236.892868 
" clip-path="url(#p5bd514358a)" style="fill: none; stroke: #3e3e3e; stroke-width: 9"/>
   </g>
   <g id="line2d_14">
    <path d="M 614.066875 244.69664 
L 614.066875 231.506206 
" clip-path="url(#p5bd514358a)" style="fill: none; stroke: #3e3e3e; stroke-width: 3"/>
   </g>
   <g id="line2d_15">
    <path d="M 614.066875 239.748189 
L 614.066875 236.446504 
" clip-path="url(#p5bd514358a)" style="fill: none; stroke: #3e3e3e; stroke-width: 9"/>
   </g>
   <g id="line2d_16">
    <path d="M 742.870625 239.061261 
L 742.870625 237.60955 
" clip-path="url(#p5bd514358a)" style="fill: none; stroke: #3e3e3e; stroke-width: 3"/>
   </g>
   <g id="line2d_17">
    <path d="M 742.870625 239.061261 
L 742.870625 238.335406 
" clip-path="url(#p5bd514358a)" style="fill: none; stroke: #3e3e3e; stroke-width: 9"/>
   </g>
   <g id="line2d_18">
    <path d="M 871.674375 241.547317 
L 871.674375 231.687717 
" clip-path="url(#p5bd514358a)" style="fill: none; stroke: #3e3e3e; stroke-width: 3"/>
   </g>
   <g id="line2d_19">
    <path d="M 871.674375 239.957059 
L 871.674375 236.644021 
" clip-path="url(#p5bd514358a)" style="fill: none; stroke: #3e3e3e; stroke-width: 9"/>
   </g>
   <g id="line2d_20">
    <path d="M 1000.478125 242.111595 
L 1000.478125 231.846501 
" clip-path="url(#p5bd514358a)" style="fill: none; stroke: #3e3e3e; stroke-width: 3"/>
   </g>
   <g id="line2d_21">
    <path d="M 1000.478125 239.965349 
L 1000.478125 236.712219 
" clip-path="url(#p5bd514358a)" style="fill: none; stroke: #3e3e3e; stroke-width: 9"/>
   </g>
   <g id="patch_3">
    <path d="M 34.45 255.69875 
L 34.45 43.92 
" style="fill: none; stroke: #ffffff; stroke-width: 3; stroke-linejoin: miter; stroke-linecap: square"/>
   </g>
   <g id="patch_4">
    <path d="M 1064.88 255.69875 
L 1064.88 43.92 
" style="fill: none; stroke: #ffffff; stroke-width: 3; stroke-linejoin: miter; stroke-linecap: square"/>
   </g>
   <g id="patch_5">
    <path d="M 34.45 255.69875 
L 1064.88 255.69875 
" style="fill: none; stroke: #ffffff; stroke-width: 3; stroke-linejoin: miter; stroke-linecap: square"/>
   </g>
   <g id="patch_6">
    <path d="M 34.45 43.92 
L 1064.88 43.92 
" style="fill: none; stroke: #ffffff; stroke-width: 3; stroke-linejoin: miter; stroke-linecap: square"/>
   </g>
   <g id="PathCollection_1">
    <defs>
     <path id="m6870e36d95" d="M 0 3 
C 0.795609 3 1.55874 2.683901 2.12132 2.12132 
C 2.683901 1.55874 3 0.795609 3 0 
C 3 -0.795609 2.683901 -1.55874 2.12132 -2.12132 
C 1.55874 -2.683901 0.795609 -3 0 -3 
C -0.795609 -3 -1.55874 -2.683901 -2.12132 -2.12132 
C -2.683901 -1.55874 -3 -0.795609 -3 0 
C -3 0.795609 -2.683901 1.55874 -2.12132 2.12132 
C -1.55874 2.683901 -0.795609 3 0 3 
z
" style="stroke: #3e3e3e; stroke-width: 0.5"/>
    </defs>
    <g clip-path="url(#p5bd514358a)">
     <use xlink:href="#m6870e36d95" x="98.851875" y="238.381276" style="fill: #ffffff; stroke: #3e3e3e; stroke-width: 0.5"/>
    </g>
   </g>
   <g id="PathCollection_2">
    <g clip-path="url(#p5bd514358a)">
     <use xlink:href="#m6870e36d95" x="227.655625" y="238.17443" style="fill: #ffffff; stroke: #3e3e3e; stroke-width: 0.5"/>
    </g>
   </g>
   <g id="PathCollection_3">
    <g clip-path="url(#p5bd514358a)">
     <use xlink:href="#m6870e36d95" x="356.459375" y="237.843825" style="fill: #ffffff; stroke: #3e3e3e; stroke-width: 0.5"/>
    </g>
   </g>
   <g id="PathCollection_4">
    <g clip-path="url(#p5bd514358a)">
     <use xlink:href="#m6870e36d95" x="485.263125" y="238.610714" style="fill: #ffffff; stroke: #3e3e3e; stroke-width: 0.5"/>
    </g>
   </g>
   <g id="PathCollection_5">
    <g clip-path="url(#p5bd514358a)">
     <use xlink:href="#m6870e36d95" x="614.066875" y="238.134032" style="fill: #ffffff; stroke: #3e3e3e; stroke-width: 0.5"/>
    </g>
   </g>
   <g id="PathCollection_6">
    <g clip-path="url(#p5bd514358a)">
     <use xlink:href="#m6870e36d95" x="742.870625" y="239.061261" style="fill: #ffffff; stroke: #3e3e3e; stroke-width: 0.5"/>
    </g>
   </g>
   <g id="PathCollection_7">
    <g clip-path="url(#p5bd514358a)">
     <use xlink:href="#m6870e36d95" x="871.674375" y="238.499322" style="fill: #ffffff; stroke: #3e3e3e; stroke-width: 0.5"/>
    </g>
   </g>
   <g id="PathCollection_8">
    <g clip-path="url(#p5bd514358a)">
     <use xlink:href="#m6870e36d95" x="1000.478125" y="238.599623" style="fill: #ffffff; stroke: #3e3e3e; stroke-width: 0.5"/>
    </g>
   </g>
  </g>
  <g id="text_14">
   <!-- Violin Plot of all Continuous Variables -->
   <g style="fill: #ffffff" transform="translate(416.035547 16.496719) scale(0.15 -0.15)">
    <defs>
     <path id="ArialMT-56" d="M 1803 0 
L 28 4581 
L 684 4581 
L 1875 1253 
Q 2019 853 2116 503 
Q 2222 878 2363 1253 
L 3600 4581 
L 4219 4581 
L 2425 0 
L 1803 0 
z
" transform="scale(0.015625)"/>
     <path id="ArialMT-20" transform="scale(0.015625)"/>
     <path id="ArialMT-50" d="M 494 0 
L 494 4581 
L 2222 4581 
Q 2678 4581 2919 4538 
Q 3256 4481 3484 4323 
Q 3713 4166 3852 3881 
Q 3991 3597 3991 3256 
Q 3991 2672 3619 2267 
Q 3247 1863 2275 1863 
L 1100 1863 
L 1100 0 
L 494 0 
z
M 1100 2403 
L 2284 2403 
Q 2872 2403 3119 2622 
Q 3366 2841 3366 3238 
Q 3366 3525 3220 3729 
Q 3075 3934 2838 4000 
Q 2684 4041 2272 4041 
L 1100 4041 
L 1100 2403 
z
" transform="scale(0.015625)"/>
     <path id="ArialMT-66" d="M 556 0 
L 556 2881 
L 59 2881 
L 59 3319 
L 556 3319 
L 556 3672 
Q 556 4006 616 4169 
Q 697 4388 901 4523 
Q 1106 4659 1475 4659 
Q 1713 4659 2000 4603 
L 1916 4113 
Q 1741 4144 1584 4144 
Q 1328 4144 1222 4034 
Q 1116 3925 1116 3625 
L 1116 3319 
L 1763 3319 
L 1763 2881 
L 1116 2881 
L 1116 0 
L 556 0 
z
" transform="scale(0.015625)"/>
     <path id="ArialMT-43" d="M 3763 1606 
L 4369 1453 
Q 4178 706 3683 314 
Q 3188 -78 2472 -78 
Q 1731 -78 1267 223 
Q 803 525 561 1097 
Q 319 1669 319 2325 
Q 319 3041 592 3573 
Q 866 4106 1370 4382 
Q 1875 4659 2481 4659 
Q 3169 4659 3637 4309 
Q 4106 3959 4291 3325 
L 3694 3184 
Q 3534 3684 3231 3912 
Q 2928 4141 2469 4141 
Q 1941 4141 1586 3887 
Q 1231 3634 1087 3207 
Q 944 2781 944 2328 
Q 944 1744 1114 1308 
Q 1284 872 1643 656 
Q 2003 441 2422 441 
Q 2931 441 3284 734 
Q 3638 1028 3763 1606 
z
" transform="scale(0.015625)"/>
     <path id="ArialMT-62" d="M 941 0 
L 419 0 
L 419 4581 
L 981 4581 
L 981 2947 
Q 1338 3394 1891 3394 
Q 2197 3394 2470 3270 
Q 2744 3147 2920 2923 
Q 3097 2700 3197 2384 
Q 3297 2069 3297 1709 
Q 3297 856 2875 390 
Q 2453 -75 1863 -75 
Q 1275 -75 941 416 
L 941 0 
z
M 934 1684 
Q 934 1088 1097 822 
Q 1363 388 1816 388 
Q 2184 388 2453 708 
Q 2722 1028 2722 1663 
Q 2722 2313 2464 2622 
Q 2206 2931 1841 2931 
Q 1472 2931 1203 2611 
Q 934 2291 934 1684 
z
" transform="scale(0.015625)"/>
    </defs>
    <use xlink:href="#ArialMT-56"/>
    <use xlink:href="#ArialMT-69" x="64.949219"/>
    <use xlink:href="#ArialMT-6f" x="87.166016"/>
    <use xlink:href="#ArialMT-6c" x="142.78125"/>
    <use xlink:href="#ArialMT-69" x="164.998047"/>
    <use xlink:href="#ArialMT-6e" x="187.214844"/>
    <use xlink:href="#ArialMT-20" x="242.830078"/>
    <use xlink:href="#ArialMT-50" x="270.613281"/>
    <use xlink:href="#ArialMT-6c" x="337.3125"/>
    <use xlink:href="#ArialMT-6f" x="359.529297"/>
    <use xlink:href="#ArialMT-74" x="415.144531"/>
    <use xlink:href="#ArialMT-20" x="442.927734"/>
    <use xlink:href="#ArialMT-6f" x="470.710938"/>
    <use xlink:href="#ArialMT-66" x="526.326172"/>
    <use xlink:href="#ArialMT-20" x="554.109375"/>
    <use xlink:href="#ArialMT-61" x="581.892578"/>
    <use xlink:href="#ArialMT-6c" x="637.507812"/>
    <use xlink:href="#ArialMT-6c" x="659.724609"/>
    <use xlink:href="#ArialMT-20" x="681.941406"/>
    <use xlink:href="#ArialMT-43" x="709.724609"/>
    <use xlink:href="#ArialMT-6f" x="781.941406"/>
    <use xlink:href="#ArialMT-6e" x="837.556641"/>
    <use xlink:href="#ArialMT-74" x="893.171875"/>
    <use xlink:href="#ArialMT-69" x="920.955078"/>
    <use xlink:href="#ArialMT-6e" x="943.171875"/>
    <use xlink:href="#ArialMT-75" x="998.787109"/>
    <use xlink:href="#ArialMT-6f" x="1054.402344"/>
    <use xlink:href="#ArialMT-75" x="1110.017578"/>
    <use xlink:href="#ArialMT-73" x="1165.632812"/>
    <use xlink:href="#ArialMT-20" x="1215.632812"/>
    <use xlink:href="#ArialMT-56" x="1243.416016"/>
    <use xlink:href="#ArialMT-61" x="1302.740234"/>
    <use xlink:href="#ArialMT-72" x="1358.355469"/>
    <use xlink:href="#ArialMT-69" x="1391.65625"/>
    <use xlink:href="#ArialMT-61" x="1413.873047"/>
    <use xlink:href="#ArialMT-62" x="1469.488281"/>
    <use xlink:href="#ArialMT-6c" x="1525.103516"/>
    <use xlink:href="#ArialMT-65" x="1547.320312"/>
    <use xlink:href="#ArialMT-73" x="1602.935547"/>
   </g>
  </g>
 </g>
 <defs>
  <clipPath id="p5bd514358a">
   <rect x="34.45" y="43.92" width="1030.43" height="211.77875"/>
  </clipPath>
 </defs>
</svg>
